<?xml version="1.0" encoding="UTF-8"?>
<svg xmlns="http://www.w3.org/2000/svg" xmlns:xlink="http://www.w3.org/1999/xlink" width="661px" height="500px" viewBox="0 0 660 500" version="1.1">
<defs>
<filter id="alpha" filterUnits="objectBoundingBox" x="0%" y="0%" width="100%" height="100%">
  <feColorMatrix type="matrix" in="SourceGraphic" values="0 0 0 0 1 0 0 0 0 1 0 0 0 0 1 0 0 0 1 0"/>
</filter>
<mask id="mask0">
  <g filter="url(#alpha)">
<rect x="0" y="0" width="660" height="500" style="fill:rgb(0%,0%,0%);fill-opacity:0.101961;stroke:none;"/>
  </g>
</mask>
<clipPath id="clip1">
  <rect x="0" y="0" width="660" height="500"/>
</clipPath>
<g id="surface5" clip-path="url(#clip1)">
<path style=" stroke:none;fill-rule:nonzero;fill:rgb(0%,0%,0%);fill-opacity:1;" d="M 199.71875 391.644531 L 198.925781 392.433594 C 198.925781 392.433594 199.191406 401.148438 199.453125 402.996094 C 199.71875 404.84375 200.773438 408.011719 199.980469 410.386719 C 199.191406 412.765625 198.925781 414.613281 199.191406 414.875 C 199.453125 415.140625 198.925781 416.195312 198.925781 416.195312 L 201.035156 414.875 L 204.464844 406.957031 L 202.882812 398.507812 Z M 199.71875 391.644531 "/>
</g>
<mask id="mask1">
  <g filter="url(#alpha)">
<rect x="0" y="0" width="660" height="500" style="fill:rgb(0%,0%,0%);fill-opacity:0.101961;stroke:none;"/>
  </g>
</mask>
<clipPath id="clip2">
  <rect x="0" y="0" width="660" height="500"/>
</clipPath>
<g id="surface8" clip-path="url(#clip2)">
<path style=" stroke:none;fill-rule:nonzero;fill:rgb(0%,0%,0%);fill-opacity:1;" d="M 203.410156 381.347656 C 203.410156 381.347656 205.78125 385.304688 204.199219 386.890625 C 202.617188 388.476562 203.410156 390.058594 203.671875 390.324219 C 203.9375 390.585938 211.320312 391.113281 211.320312 391.113281 L 211.585938 387.417969 L 212.375 384.25 C 212.375 384.25 208.15625 383.457031 208.683594 381.609375 C 209.210938 379.761719 203.410156 381.347656 203.410156 381.347656 Z M 203.410156 381.347656 "/>
</g>
<mask id="mask2">
  <g filter="url(#alpha)">
<rect x="0" y="0" width="660" height="500" style="fill:rgb(0%,0%,0%);fill-opacity:0.101961;stroke:none;"/>
  </g>
</mask>
<clipPath id="clip3">
  <rect x="0" y="0" width="660" height="500"/>
</clipPath>
<g id="surface11" clip-path="url(#clip3)">
<path style=" stroke:none;fill-rule:nonzero;fill:rgb(0%,0%,0%);fill-opacity:1;" d="M 553.824219 268.164062 C 553.804688 279.996094 557.777344 291.492188 565.101562 300.785156 C 548.109375 322.414062 550.574219 353.484375 570.765625 372.15625 C 590.953125 390.828125 622.089844 390.828125 642.28125 372.15625 C 662.472656 353.484375 664.9375 322.414062 647.941406 300.785156 C 655.007812 291.804688 553.824219 262.242188 553.824219 268.164062 Z M 553.824219 268.164062 "/>
</g>
<mask id="mask3">
  <g filter="url(#alpha)">
<rect x="0" y="0" width="660" height="500" style="fill:rgb(0%,0%,0%);fill-opacity:0.101961;stroke:none;"/>
  </g>
</mask>
<clipPath id="clip4">
  <rect x="0" y="0" width="660" height="500"/>
</clipPath>
<g id="surface14" clip-path="url(#clip4)">
<path style=" stroke:none;fill-rule:nonzero;fill:rgb(0%,0%,0%);fill-opacity:1;" d="M 0 268.164062 C -0.0195312 279.996094 3.957031 291.492188 11.277344 300.785156 C -5.714844 322.414062 -3.25 353.484375 16.941406 372.15625 C 37.132812 390.828125 68.265625 390.828125 88.457031 372.15625 C 108.648438 353.484375 111.113281 322.414062 94.121094 300.785156 C 101.183594 291.804688 0 262.242188 0 268.164062 Z M 0 268.164062 "/>
</g>
</defs>
<g id="surface1">
<path style=" stroke:none;fill-rule:nonzero;fill:rgb(42.352941%,38.823529%,100%);fill-opacity:1;" d="M 411.210938 193.570312 L 467.574219 193.570312 L 467.574219 229.660156 L 411.210938 229.660156 Z M 411.210938 193.570312 "/>
<path style=" stroke:none;fill-rule:nonzero;fill:rgb(42.352941%,38.823529%,100%);fill-opacity:1;" d="M 323.382812 250 L 379.75 250 L 379.75 286.089844 L 323.382812 286.089844 Z M 323.382812 250 "/>
<path style=" stroke:none;fill-rule:nonzero;fill:rgb(94.901961%,94.901961%,94.901961%);fill-opacity:1;" d="M 632.347656 205.378906 L 632.347656 128.609375 L 589.746094 128.609375 L 589.746094 78.738281 L 560.910156 78.738281 L 560.910156 128.609375 L 518.308594 128.609375 L 518.308594 205.378906 L 494.710938 205.378906 L 494.710938 32.808594 L 446.867188 32.808594 L 446.867188 16.402344 L 383.292969 16.402344 L 383.292969 0 L 320.371094 0 L 320.371094 16.402344 L 260.730469 16.402344 L 260.730469 32.808594 L 208.953125 32.808594 L 208.953125 204.722656 L 181.425781 204.722656 L 181.425781 127.953125 L 138.824219 127.953125 L 138.824219 78.085938 L 109.984375 78.085938 L 109.984375 127.953125 L 67.382812 127.953125 L 67.382812 204.722656 L 39.855469 204.722656 L 39.855469 477.035156 L 102.777344 477.035156 L 102.777344 380.578125 L 146.035156 380.578125 L 146.035156 477.035156 L 315.128906 477.035156 L 315.128906 364.828125 L 388.535156 364.828125 L 388.535156 477.035156 L 490.78125 477.035156 L 490.78125 477.691406 L 553.699219 477.691406 L 553.699219 381.234375 L 596.957031 381.234375 L 596.957031 477.691406 L 659.875 477.691406 L 659.875 205.378906 Z M 62.46875 238.1875 L 87.375 238.1875 L 87.375 257.875 L 62.46875 257.875 Z M 62.796875 293.308594 L 87.703125 293.308594 L 87.703125 312.992188 L 62.796875 312.992188 Z M 88.03125 368.109375 L 63.125 368.109375 L 63.125 348.425781 L 88.03125 348.425781 Z M 153.242188 190.289062 L 95.566406 190.289062 L 95.566406 178.476562 L 153.242188 178.476562 Z M 153.242188 173.226562 L 95.566406 173.226562 L 95.566406 161.417969 L 153.242188 161.417969 Z M 153.242188 156.167969 L 95.566406 156.167969 L 95.566406 144.355469 L 153.242188 144.355469 Z M 161.433594 238.1875 L 186.339844 238.1875 L 186.339844 257.875 L 161.433594 257.875 Z M 161.761719 293.308594 L 186.667969 293.308594 L 186.667969 312.992188 L 161.761719 312.992188 Z M 186.996094 368.109375 L 162.089844 368.109375 L 162.089844 348.425781 L 186.996094 348.425781 Z M 288.914062 335.300781 L 243.035156 335.300781 L 243.035156 314.960938 L 288.914062 314.960938 Z M 288.914062 276.902344 L 243.035156 276.902344 L 243.035156 256.5625 L 288.914062 256.5625 Z M 288.914062 218.503906 L 243.035156 218.503906 L 243.035156 198.164062 L 288.914062 198.164062 Z M 288.914062 160.105469 L 243.035156 160.105469 L 243.035156 139.765625 L 288.914062 139.765625 Z M 288.914062 101.707031 L 243.035156 101.707031 L 243.035156 81.363281 L 288.914062 81.363281 Z M 374.773438 335.300781 L 328.894531 335.300781 L 328.894531 314.960938 L 374.773438 314.960938 Z M 374.773438 276.902344 L 328.894531 276.902344 L 328.894531 256.5625 L 374.773438 256.5625 Z M 374.773438 218.503906 L 328.894531 218.503906 L 328.894531 198.164062 L 374.773438 198.164062 Z M 374.773438 160.105469 L 328.894531 160.105469 L 328.894531 139.765625 L 374.773438 139.765625 Z M 374.773438 101.707031 L 328.894531 101.707031 L 328.894531 81.363281 L 374.773438 81.363281 Z M 460.632812 335.300781 L 414.753906 335.300781 L 414.753906 314.960938 L 460.632812 314.960938 Z M 460.632812 276.902344 L 414.753906 276.902344 L 414.753906 256.5625 L 460.632812 256.5625 Z M 460.632812 218.503906 L 414.753906 218.503906 L 414.753906 198.164062 L 460.632812 198.164062 Z M 460.632812 160.105469 L 414.753906 160.105469 L 414.753906 139.765625 L 460.632812 139.765625 Z M 460.632812 101.707031 L 414.753906 101.707031 L 414.753906 81.363281 L 460.632812 81.363281 Z M 513.390625 238.84375 L 538.296875 238.84375 L 538.296875 258.53125 L 513.390625 258.53125 Z M 513.71875 293.964844 L 538.625 293.964844 L 538.625 313.648438 L 513.71875 313.648438 Z M 538.953125 368.765625 L 514.046875 368.765625 L 514.046875 349.082031 L 538.953125 349.082031 Z M 604.167969 190.945312 L 546.488281 190.945312 L 546.488281 179.132812 L 604.167969 179.132812 Z M 604.167969 173.882812 L 546.488281 173.882812 L 546.488281 162.074219 L 604.167969 162.074219 Z M 604.167969 156.824219 L 546.488281 156.824219 L 546.488281 145.011719 L 604.167969 145.011719 Z M 612.359375 238.84375 L 637.265625 238.84375 L 637.265625 258.53125 L 612.359375 258.53125 Z M 612.6875 293.964844 L 637.59375 293.964844 L 637.59375 313.648438 L 612.6875 313.648438 Z M 637.921875 368.765625 L 613.015625 368.765625 L 613.015625 349.082031 L 637.921875 349.082031 Z M 637.921875 368.765625 "/>
<path style=" stroke:none;fill-rule:nonzero;fill:rgb(42.352941%,38.823529%,100%);fill-opacity:1;" d="M 78.648438 410.570312 C 78.464844 413.167969 78.179688 416.070312 77.734375 419.121094 L 85.75 410.222656 L 85.792969 410.371094 C 85.300781 408.230469 84.511719 406.171875 83.449219 404.25 L 83.5 404.390625 Z M 78.648438 410.570312 "/>
<path style=" stroke:none;fill-rule:nonzero;fill:rgb(42.352941%,38.823529%,100%);fill-opacity:1;" d="M 78.679688 410.113281 L 83.378906 404.128906 C 82.378906 402.300781 80.933594 400.757812 79.175781 399.644531 C 79.089844 399.59375 79.003906 399.546875 78.917969 399.496094 C 78.941406 400.203125 79.066406 404.355469 78.679688 410.113281 Z M 78.679688 410.113281 "/>
<path style=" stroke:none;fill-rule:nonzero;fill:rgb(42.352941%,38.823529%,100%);fill-opacity:1;" d="M 74.441406 433.585938 C 74.234375 434.214844 74.023438 434.832031 73.800781 435.4375 L 85.601562 428.511719 L 85.621094 428.683594 C 85.867188 427.609375 86.070312 426.53125 86.234375 425.453125 L 74.453125 433.664062 Z M 74.441406 433.585938 "/>
<path style=" stroke:none;fill-rule:nonzero;fill:rgb(42.352941%,38.823529%,100%);fill-opacity:1;" d="M 76.082031 427.769531 L 86.710938 418.996094 L 86.742188 419.160156 C 86.777344 416.257812 86.472656 413.363281 85.828125 410.53125 L 77.664062 419.597656 C 77.234375 422.457031 76.707031 425.179688 76.082031 427.769531 Z M 76.082031 427.769531 "/>
<path style=" stroke:none;fill-rule:nonzero;fill:rgb(42.352941%,38.823529%,100%);fill-opacity:1;" d="M 77.480469 419.425781 L 64.765625 405.222656 L 64.832031 405.058594 C 63.636719 406.746094 62.613281 408.546875 61.78125 410.4375 L 76.292969 425.90625 C 76.789062 423.648438 77.179688 421.464844 77.480469 419.425781 Z M 77.480469 419.425781 "/>
<path style=" stroke:none;fill-rule:nonzero;fill:rgb(42.352941%,38.823529%,100%);fill-opacity:1;" d="M 61.644531 410.757812 C 61.667969 410.707031 61.6875 410.648438 61.710938 410.597656 Z M 61.644531 410.757812 "/>
<path style=" stroke:none;fill-rule:nonzero;fill:rgb(42.352941%,38.823529%,100%);fill-opacity:1;" d="M 60.9375 412.5 L 60.871094 412.664062 C 60.890625 412.605469 60.917969 412.554688 60.9375 412.5 Z M 60.9375 412.5 "/>
<path style=" stroke:none;fill-rule:nonzero;fill:rgb(42.352941%,38.823529%,100%);fill-opacity:1;" d="M 76.210938 426.285156 L 61.644531 410.757812 C 61.398438 411.324219 61.164062 411.902344 60.9375 412.5 L 75.824219 427.925781 C 75.957031 427.375 76.085938 426.828125 76.210938 426.285156 Z M 76.210938 426.285156 "/>
<path style=" stroke:none;fill-rule:nonzero;fill:rgb(42.352941%,38.823529%,100%);fill-opacity:1;" d="M 86.265625 425.246094 C 86.554688 423.292969 86.714844 421.324219 86.738281 419.351562 L 75.96875 428.242188 C 75.539062 429.96875 75.070312 431.625 74.558594 433.21875 L 86.242188 425.078125 Z M 86.265625 425.246094 "/>
<path style=" stroke:none;fill-rule:nonzero;fill:rgb(42.352941%,38.823529%,100%);fill-opacity:1;" d="M 59.003906 426.355469 L 70.796875 441.753906 C 71.765625 439.878906 72.621094 437.949219 73.359375 435.972656 L 58.972656 420.84375 C 58.828125 422.734375 58.8125 424.632812 58.925781 426.527344 Z M 59.003906 426.355469 "/>
<path style=" stroke:none;fill-rule:nonzero;fill:rgb(42.352941%,38.823529%,100%);fill-opacity:1;" d="M 78.703125 399.484375 L 78.808594 399.4375 C 76.226562 398.054688 73.429688 398.203125 70.75 399.605469 L 78.472656 410.105469 C 78.890625 403.871094 78.703125 399.546875 78.703125 399.484375 Z M 78.703125 399.484375 "/>
<path style=" stroke:none;fill-rule:nonzero;fill:rgb(42.352941%,38.823529%,100%);fill-opacity:1;" d="M 73.417969 436.46875 C 72.742188 438.246094 71.96875 439.988281 71.105469 441.683594 L 82.964844 435.539062 L 82.976562 435.710938 C 83.867188 434.199219 84.566406 432.582031 85.054688 430.894531 C 85.242188 430.230469 85.414062 429.566406 85.570312 428.898438 L 73.628906 435.90625 C 73.558594 436.09375 73.492188 436.285156 73.417969 436.46875 Z M 73.417969 436.46875 "/>
<path style=" stroke:none;fill-rule:nonzero;fill:rgb(42.352941%,38.823529%,100%);fill-opacity:1;" d="M 78.441406 410.570312 L 70.542969 399.828125 L 70.617188 399.675781 C 68.355469 400.984375 66.414062 402.777344 64.929688 404.929688 L 77.542969 419.019531 C 77.976562 416.003906 78.261719 413.132812 78.441406 410.570312 Z M 78.441406 410.570312 "/>
<path style=" stroke:none;fill-rule:nonzero;fill:rgb(42.352941%,38.823529%,100%);fill-opacity:1;" d="M 73.488281 435.625 C 74.367188 433.222656 75.117188 430.773438 75.730469 428.292969 L 60.808594 412.828125 C 60.453125 413.796875 60.128906 414.800781 59.828125 415.84375 C 59.417969 417.339844 59.140625 418.871094 59.007812 420.417969 L 73.476562 435.628906 Z M 73.488281 435.625 "/>
<path style=" stroke:none;fill-rule:nonzero;fill:rgb(42.352941%,38.823529%,100%);fill-opacity:1;" d="M 88.816406 452.308594 C 87.019531 454.1875 84.949219 456.242188 82.664062 458.308594 L 94.503906 456.574219 L 94.441406 456.714844 C 95.429688 454.753906 96.136719 452.664062 96.539062 450.503906 L 96.488281 450.644531 Z M 88.816406 452.308594 "/>
<path style=" stroke:none;fill-rule:nonzero;fill:rgb(42.352941%,38.823529%,100%);fill-opacity:1;" d="M 96.183594 444.230469 C 96.148438 444.132812 96.113281 444.042969 96.074219 443.949219 C 95.644531 444.511719 93.097656 447.785156 89.128906 451.976562 L 96.5625 450.367188 C 96.957031 448.320312 96.824219 446.210938 96.183594 444.230469 Z M 96.183594 444.230469 "/>
<path style=" stroke:none;fill-rule:nonzero;fill:rgb(42.352941%,38.823529%,100%);fill-opacity:1;" d="M 70.914062 467.34375 C 70.351562 467.699219 69.792969 468.039062 69.238281 468.363281 L 82.742188 470.566406 L 82.640625 470.710938 C 83.519531 470.035156 84.363281 469.339844 85.175781 468.613281 L 70.871094 467.414062 Z M 70.914062 467.34375 "/>
<path style=" stroke:none;fill-rule:nonzero;fill:rgb(42.352941%,38.823529%,100%);fill-opacity:1;" d="M 75.878906 463.914062 L 89.65625 463.941406 L 89.574219 464.089844 C 91.453125 461.878906 93.0625 459.453125 94.371094 456.863281 L 82.304688 458.632812 C 80.152344 460.558594 78.011719 462.320312 75.878906 463.914062 Z M 75.878906 463.914062 "/>
<path style=" stroke:none;fill-rule:nonzero;fill:rgb(42.352941%,38.823529%,100%);fill-opacity:1;" d="M 71.234375 467.136719 L 85.421875 468.328125 L 85.332031 468.472656 C 86.796875 467.15625 88.175781 465.738281 89.453125 464.234375 L 75.492188 464.207031 C 74.0625 465.261719 72.644531 466.238281 71.234375 467.136719 Z M 71.234375 467.136719 "/>
<path style=" stroke:none;fill-rule:nonzero;fill:rgb(42.352941%,38.823529%,100%);fill-opacity:1;" d="M 53.859375 474.164062 C 53.960938 474.0625 54.066406 473.953125 54.171875 473.84375 C 57.066406 473.382812 59.890625 472.574219 62.589844 471.4375 L 62.976562 461.203125 C 63.089844 460.941406 63.203125 460.679688 63.308594 460.414062 L 62.898438 471.308594 C 64.839844 470.484375 66.730469 469.542969 68.558594 468.492188 L 67.238281 449.460938 C 67.339844 449.410156 67.445312 449.355469 67.550781 449.300781 L 68.863281 468.304688 L 68.878906 468.304688 C 71.085938 467.019531 73.222656 465.613281 75.277344 464.09375 L 73.84375 445.367188 C 73.945312 445.292969 74.046875 445.222656 74.148438 445.144531 L 75.582031 463.867188 C 76.035156 463.53125 76.484375 463.191406 76.925781 462.851562 L 75.742188 443.894531 C 75.84375 443.8125 75.945312 443.730469 76.046875 443.644531 L 77.230469 462.613281 C 79.050781 461.191406 80.742188 459.757812 82.273438 458.382812 L 81.527344 439.320312 L 81.683594 439.242188 C 81.15625 439.378906 80.617188 439.542969 80.078125 439.71875 C 81.09375 438.554688 82.011719 437.304688 82.816406 435.980469 L 70.84375 442.183594 C 70.015625 443.757812 69.082031 445.277344 68.050781 446.730469 C 67.839844 446.933594 67.625 447.136719 67.414062 447.347656 L 67.429688 447.574219 C 67.332031 447.703125 67.234375 447.832031 67.136719 447.960938 L 67.113281 447.652344 C 66.964844 447.808594 66.816406 447.972656 66.667969 448.132812 C 68.183594 446.238281 69.511719 444.199219 70.640625 442.050781 L 58.9375 426.761719 C 59.015625 428.128906 59.148438 429.503906 59.320312 430.871094 C 58.234375 429.101562 56.914062 427.488281 55.398438 426.070312 L 55.492188 426.1875 L 52.785156 433.566406 C 53.414062 436.09375 54.035156 438.941406 54.554688 441.980469 L 59.363281 431.191406 C 59.382812 431.359375 59.40625 431.527344 59.429688 431.695312 L 54.636719 442.457031 C 55.109375 445.308594 55.449219 448.0625 55.65625 450.71875 L 61.410156 441.667969 C 61.441406 441.796875 61.476562 441.929688 61.507812 442.058594 L 55.691406 451.203125 C 55.816406 452.976562 55.882812 454.699219 55.886719 456.371094 L 62.921875 447.078125 C 62.960938 447.203125 62.996094 447.320312 63.03125 447.4375 L 55.921875 456.828125 L 55.890625 456.757812 C 55.886719 457.417969 55.875 458.074219 55.851562 458.71875 L 63.789062 449.773438 C 63.832031 449.898438 63.871094 450.011719 63.90625 450.117188 L 55.832031 459.214844 C 55.824219 459.417969 55.816406 459.617188 55.808594 459.816406 C 55.714844 461.714844 55.515625 463.609375 55.214844 465.492188 L 55.980469 464.714844 C 55.835938 465.015625 55.695312 465.3125 55.558594 465.605469 L 55.121094 466.046875 C 55.070312 466.335938 55.015625 466.613281 54.960938 466.898438 C 54.796875 467.25 54.644531 467.597656 54.496094 467.933594 C 54.636719 467.289062 54.773438 466.636719 54.886719 465.984375 L 39.039062 455.066406 C 43.171875 465.660156 50.960938 475.734375 51.457031 476.375 C 51.863281 475.617188 52.230469 474.835938 52.566406 474.042969 C 52.664062 474.035156 52.765625 474.023438 52.863281 474.015625 C 52.820312 474.113281 52.78125 474.207031 52.738281 474.304688 C 52.6875 474.308594 52.636719 474.316406 52.589844 474.324219 C 52.628906 474.332031 52.675781 474.347656 52.714844 474.359375 C 52.476562 474.914062 52.230469 475.457031 51.96875 475.984375 C 52.3125 475.675781 52.839844 475.183594 53.46875 474.558594 C 57.195312 475.511719 67.238281 477.546875 75.835938 474.539062 L 62.664062 471.667969 C 59.84375 472.863281 56.886719 473.703125 53.859375 474.164062 Z M 63.117188 457.480469 L 63.433594 457.160156 L 63.414062 457.636719 L 63.097656 457.957031 Z M 63.117188 457.480469 "/>
<path style=" stroke:none;fill-rule:nonzero;fill:rgb(42.352941%,38.823529%,100%);fill-opacity:1;" d="M 95.917969 443.800781 L 96.03125 443.832031 C 94.921875 441.121094 92.671875 439.449219 89.71875 438.816406 L 88.976562 451.835938 C 93.265625 447.300781 95.882812 443.851562 95.917969 443.800781 Z M 95.917969 443.800781 "/>
<path style=" stroke:none;fill-rule:nonzero;fill:rgb(42.352941%,38.823529%,100%);fill-opacity:1;" d="M 68.289062 468.914062 C 66.632812 469.851562 64.929688 470.699219 63.183594 471.449219 L 76.230469 474.292969 L 76.128906 474.433594 C 77.78125 473.839844 79.351562 473.039062 80.800781 472.050781 C 81.367188 471.660156 81.925781 471.257812 82.46875 470.839844 L 68.808594 468.613281 C 68.632812 468.714844 68.460938 468.816406 68.289062 468.914062 Z M 68.289062 468.914062 "/>
<path style=" stroke:none;fill-rule:nonzero;fill:rgb(42.352941%,38.823529%,100%);fill-opacity:1;" d="M 82.578125 458.105469 C 84.835938 456.0625 86.882812 454.03125 88.65625 452.171875 L 89.414062 438.855469 L 89.570312 438.785156 C 86.996094 438.351562 84.355469 438.492188 81.839844 439.199219 Z M 82.578125 458.105469 "/>
<path style=" stroke:none;fill-rule:nonzero;fill:rgb(42.352941%,38.823529%,100%);fill-opacity:1;" d="M 55.292969 425.976562 C 53.78125 424.550781 51.929688 423.53125 49.914062 423.011719 C 49.816406 422.992188 49.71875 422.972656 49.621094 422.953125 C 49.863281 423.617188 51.261719 427.527344 52.675781 433.125 Z M 55.292969 425.976562 "/>
<path style=" stroke:none;fill-rule:nonzero;fill:rgb(42.352941%,38.823529%,100%);fill-opacity:1;" d="M 54.410156 442.351562 L 37.929688 432.777344 L 37.945312 432.601562 C 37.328125 434.574219 36.910156 436.605469 36.703125 438.660156 L 55.28125 448.882812 C 55.054688 446.582031 54.75 444.382812 54.410156 442.351562 Z M 54.410156 442.351562 "/>
<path style=" stroke:none;fill-rule:nonzero;fill:rgb(42.352941%,38.823529%,100%);fill-opacity:1;" d="M 36.671875 439.007812 C 36.675781 438.949219 36.679688 438.890625 36.683594 438.832031 Z M 36.671875 439.007812 "/>
<path style=" stroke:none;fill-rule:nonzero;fill:rgb(42.352941%,38.823529%,100%);fill-opacity:1;" d="M 36.535156 440.882812 L 36.523438 441.058594 C 36.527344 441 36.535156 440.941406 36.535156 440.882812 Z M 36.535156 440.882812 "/>
<path style=" stroke:none;fill-rule:nonzero;fill:rgb(42.352941%,38.823529%,100%);fill-opacity:1;" d="M 55.316406 449.265625 L 36.671875 439.007812 C 36.613281 439.621094 36.566406 440.246094 36.535156 440.882812 L 55.457031 450.945312 C 55.414062 450.382812 55.367188 449.820312 55.316406 449.265625 Z M 55.316406 449.265625 "/>
<path style=" stroke:none;fill-rule:nonzero;fill:rgb(42.352941%,38.823529%,100%);fill-opacity:1;" d="M 55.59375 459.359375 L 37.242188 449.425781 C 37.691406 451.269531 38.261719 453.078125 38.953125 454.847656 L 38.976562 454.65625 L 54.941406 465.652344 C 55.285156 463.570312 55.503906 461.46875 55.59375 459.359375 Z M 55.59375 459.359375 "/>
<path style=" stroke:none;fill-rule:nonzero;fill:rgb(42.352941%,38.823529%,100%);fill-opacity:1;" d="M 49.414062 423.007812 L 49.5 422.929688 C 46.617188 422.414062 44.003906 423.421875 41.886719 425.582031 L 52.472656 433.179688 C 50.945312 427.125 49.433594 423.066406 49.414062 423.007812 Z M 49.414062 423.007812 "/>
<path style=" stroke:none;fill-rule:nonzero;fill:rgb(42.352941%,38.823529%,100%);fill-opacity:1;" d="M 52.585938 433.628906 L 41.757812 425.859375 L 41.78125 425.691406 C 40.035156 427.636719 38.742188 429.945312 37.996094 432.449219 L 54.339844 441.945312 C 53.824219 438.941406 53.207031 436.125 52.585938 433.628906 Z M 52.585938 433.628906 "/>
<path style=" stroke:none;fill-rule:nonzero;fill:rgb(42.352941%,38.823529%,100%);fill-opacity:1;" d="M 55.609375 458.992188 C 55.707031 456.433594 55.664062 453.875 55.484375 451.324219 L 36.515625 441.238281 C 36.476562 442.265625 36.476562 443.320312 36.515625 444.40625 C 36.585938 445.957031 36.796875 447.496094 37.144531 449.007812 L 55.601562 459 Z M 55.609375 458.992188 "/>
<path style=" stroke:none;fill-rule:nonzero;fill:rgb(42.352941%,38.823529%,100%);fill-opacity:1;" d="M 639.683594 408.601562 C 639.5 411.199219 639.210938 414.101562 638.769531 417.152344 L 646.78125 408.253906 L 646.824219 408.402344 C 646.335938 406.261719 645.546875 404.203125 644.480469 402.28125 L 644.53125 402.421875 Z M 639.683594 408.601562 "/>
<path style=" stroke:none;fill-rule:nonzero;fill:rgb(42.352941%,38.823529%,100%);fill-opacity:1;" d="M 639.714844 408.148438 L 644.414062 402.160156 C 643.414062 400.332031 641.964844 398.792969 640.210938 397.675781 C 640.125 397.625 640.035156 397.578125 639.949219 397.527344 C 639.976562 398.234375 640.097656 402.386719 639.714844 408.148438 Z M 639.714844 408.148438 "/>
<path style=" stroke:none;fill-rule:nonzero;fill:rgb(42.352941%,38.823529%,100%);fill-opacity:1;" d="M 635.472656 431.617188 C 635.269531 432.246094 635.054688 432.863281 634.835938 433.46875 L 646.636719 426.542969 L 646.652344 426.71875 C 646.898438 425.640625 647.105469 424.5625 647.269531 423.484375 L 635.484375 431.695312 Z M 635.472656 431.617188 "/>
<path style=" stroke:none;fill-rule:nonzero;fill:rgb(42.352941%,38.823529%,100%);fill-opacity:1;" d="M 637.117188 425.800781 L 647.742188 417.027344 L 647.773438 417.191406 C 647.8125 414.289062 647.503906 411.394531 646.863281 408.5625 L 638.695312 417.628906 C 638.269531 420.488281 637.742188 423.210938 637.117188 425.800781 Z M 637.117188 425.800781 "/>
<path style=" stroke:none;fill-rule:nonzero;fill:rgb(42.352941%,38.823529%,100%);fill-opacity:1;" d="M 638.515625 417.457031 L 625.796875 403.253906 L 625.867188 403.09375 C 624.671875 404.777344 623.648438 406.578125 622.8125 408.46875 L 637.328125 423.9375 C 637.824219 421.679688 638.210938 419.496094 638.515625 417.457031 Z M 638.515625 417.457031 "/>
<path style=" stroke:none;fill-rule:nonzero;fill:rgb(42.352941%,38.823529%,100%);fill-opacity:1;" d="M 622.675781 408.789062 C 622.699219 408.738281 622.71875 408.679688 622.742188 408.628906 Z M 622.675781 408.789062 "/>
<path style=" stroke:none;fill-rule:nonzero;fill:rgb(42.352941%,38.823529%,100%);fill-opacity:1;" d="M 637.242188 424.316406 L 622.675781 408.789062 C 622.429688 409.355469 622.195312 409.933594 621.96875 410.53125 L 636.855469 425.957031 C 636.992188 425.40625 637.121094 424.859375 637.242188 424.316406 Z M 637.242188 424.316406 "/>
<path style=" stroke:none;fill-rule:nonzero;fill:rgb(42.352941%,38.823529%,100%);fill-opacity:1;" d="M 621.96875 410.53125 L 621.902344 410.695312 C 621.925781 410.636719 621.949219 410.585938 621.96875 410.53125 Z M 621.96875 410.53125 "/>
<path style=" stroke:none;fill-rule:nonzero;fill:rgb(42.352941%,38.823529%,100%);fill-opacity:1;" d="M 647.300781 423.277344 C 647.589844 421.324219 647.746094 419.355469 647.773438 417.382812 L 637 426.277344 C 636.574219 428 636.105469 429.660156 635.589844 431.25 L 647.277344 423.109375 Z M 647.300781 423.277344 "/>
<path style=" stroke:none;fill-rule:nonzero;fill:rgb(42.352941%,38.823529%,100%);fill-opacity:1;" d="M 620.039062 424.386719 L 631.828125 439.785156 C 632.796875 437.910156 633.652344 435.980469 634.390625 434.003906 L 620.003906 418.875 C 619.863281 420.765625 619.847656 422.664062 619.957031 424.558594 Z M 620.039062 424.386719 "/>
<path style=" stroke:none;fill-rule:nonzero;fill:rgb(42.352941%,38.823529%,100%);fill-opacity:1;" d="M 639.734375 397.515625 L 639.839844 397.46875 C 637.257812 396.085938 634.464844 396.234375 631.785156 397.636719 L 639.507812 408.136719 C 639.921875 401.902344 639.738281 397.578125 639.734375 397.515625 Z M 639.734375 397.515625 "/>
<path style=" stroke:none;fill-rule:nonzero;fill:rgb(42.352941%,38.823529%,100%);fill-opacity:1;" d="M 634.453125 434.5 C 633.777344 436.277344 633.003906 438.019531 632.136719 439.714844 L 643.996094 433.570312 L 644.007812 433.742188 C 644.902344 432.230469 645.601562 430.613281 646.085938 428.925781 C 646.277344 428.261719 646.449219 427.597656 646.601562 426.929688 L 634.660156 433.9375 C 634.59375 434.125 634.523438 434.316406 634.453125 434.5 Z M 634.453125 434.5 "/>
<path style=" stroke:none;fill-rule:nonzero;fill:rgb(42.352941%,38.823529%,100%);fill-opacity:1;" d="M 639.472656 408.601562 L 631.574219 397.859375 L 631.648438 397.707031 C 629.386719 399.015625 627.445312 400.8125 625.960938 402.960938 L 638.574219 417.050781 C 639.011719 414.035156 639.292969 411.164062 639.472656 408.601562 Z M 639.472656 408.601562 "/>
<path style=" stroke:none;fill-rule:nonzero;fill:rgb(42.352941%,38.823529%,100%);fill-opacity:1;" d="M 634.519531 433.65625 C 635.398438 431.253906 636.148438 428.808594 636.765625 426.324219 L 621.839844 410.863281 C 621.484375 411.828125 621.160156 412.832031 620.863281 413.875 C 620.449219 415.371094 620.175781 416.902344 620.039062 418.449219 L 634.507812 433.660156 Z M 634.519531 433.65625 "/>
<path style=" stroke:none;fill-rule:nonzero;fill:rgb(42.352941%,38.823529%,100%);fill-opacity:1;" d="M 649.847656 450.339844 C 648.054688 452.21875 645.980469 454.273438 643.695312 456.339844 L 655.535156 454.605469 L 655.476562 454.746094 C 656.460938 452.785156 657.167969 450.695312 657.570312 448.535156 L 657.519531 448.675781 Z M 649.847656 450.339844 "/>
<path style=" stroke:none;fill-rule:nonzero;fill:rgb(42.352941%,38.823529%,100%);fill-opacity:1;" d="M 657.214844 442.261719 C 657.179688 442.164062 657.144531 442.074219 657.109375 441.980469 C 656.679688 442.542969 654.128906 445.816406 650.160156 450.007812 L 657.59375 448.398438 C 657.988281 446.351562 657.859375 444.242188 657.214844 442.261719 Z M 657.214844 442.261719 "/>
<path style=" stroke:none;fill-rule:nonzero;fill:rgb(42.352941%,38.823529%,100%);fill-opacity:1;" d="M 631.945312 465.375 C 631.386719 465.730469 630.828125 466.070312 630.269531 466.394531 L 643.773438 468.597656 L 643.675781 468.742188 C 644.550781 468.070312 645.394531 467.371094 646.207031 466.644531 L 631.902344 465.445312 Z M 631.945312 465.375 "/>
<path style=" stroke:none;fill-rule:nonzero;fill:rgb(42.352941%,38.823529%,100%);fill-opacity:1;" d="M 636.914062 461.945312 L 650.6875 461.976562 L 650.609375 462.121094 C 652.484375 459.910156 654.09375 457.484375 655.402344 454.894531 L 643.335938 456.664062 C 641.1875 458.589844 639.046875 460.351562 636.914062 461.945312 Z M 636.914062 461.945312 "/>
<path style=" stroke:none;fill-rule:nonzero;fill:rgb(42.352941%,38.823529%,100%);fill-opacity:1;" d="M 632.269531 465.167969 L 646.453125 466.359375 L 646.363281 466.503906 C 647.832031 465.1875 649.207031 463.769531 650.484375 462.265625 L 636.523438 462.238281 C 635.09375 463.292969 633.675781 464.269531 632.269531 465.167969 Z M 632.269531 465.167969 "/>
<path style=" stroke:none;fill-rule:nonzero;fill:rgb(42.352941%,38.823529%,100%);fill-opacity:1;" d="M 614.894531 472.199219 C 614.996094 472.09375 615.101562 471.984375 615.207031 471.878906 C 618.097656 471.414062 620.925781 470.605469 623.625 469.46875 L 624.007812 459.234375 C 624.125 458.972656 624.234375 458.710938 624.34375 458.445312 L 623.933594 469.339844 C 625.875 468.515625 627.761719 467.574219 629.589844 466.523438 L 628.273438 447.496094 C 628.375 447.441406 628.476562 447.386719 628.582031 447.332031 L 629.898438 466.335938 L 629.910156 466.335938 C 632.117188 465.050781 634.253906 463.644531 636.308594 462.125 L 634.875 443.402344 C 634.976562 443.324219 635.078125 443.253906 635.179688 443.175781 L 636.613281 461.902344 C 637.070312 461.5625 637.519531 461.222656 637.957031 460.882812 L 636.773438 441.925781 C 636.875 441.84375 636.976562 441.761719 637.078125 441.675781 L 638.261719 460.644531 C 640.085938 459.222656 641.777344 457.789062 643.304688 456.414062 L 642.5625 437.351562 L 642.714844 437.273438 C 642.1875 437.410156 641.652344 437.574219 641.109375 437.753906 C 642.128906 436.585938 643.042969 435.335938 643.847656 434.011719 L 631.875 440.214844 C 631.046875 441.792969 630.113281 443.3125 629.085938 444.765625 C 628.871094 444.964844 628.65625 445.167969 628.445312 445.378906 L 628.460938 445.605469 C 628.363281 445.734375 628.265625 445.863281 628.167969 445.992188 L 628.148438 445.683594 C 627.996094 445.839844 627.847656 446.003906 627.699219 446.164062 C 629.214844 444.269531 630.546875 442.230469 631.671875 440.082031 L 619.96875 424.792969 C 620.050781 426.160156 620.183594 427.535156 620.355469 428.902344 C 619.265625 427.132812 617.949219 425.519531 616.429688 424.101562 L 616.523438 424.21875 L 613.816406 431.597656 C 614.445312 434.125 615.070312 436.972656 615.589844 440.011719 L 620.394531 429.222656 C 620.417969 429.390625 620.441406 429.558594 620.464844 429.726562 L 615.667969 440.488281 C 616.144531 443.339844 616.484375 446.09375 616.6875 448.75 L 622.441406 439.699219 C 622.476562 439.828125 622.507812 439.960938 622.542969 440.089844 L 616.722656 449.234375 C 616.851562 451.007812 616.917969 452.730469 616.921875 454.402344 L 623.957031 445.109375 C 623.992188 445.234375 624.03125 445.351562 624.066406 445.46875 L 616.957031 454.859375 L 616.921875 454.789062 C 616.917969 455.449219 616.90625 456.105469 616.886719 456.75 L 624.820312 447.804688 C 624.863281 447.929688 624.902344 448.042969 624.9375 448.148438 L 616.867188 457.246094 C 616.859375 457.449219 616.851562 457.648438 616.839844 457.847656 C 616.746094 459.75 616.546875 461.644531 616.246094 463.523438 L 617.015625 462.746094 C 616.867188 463.046875 616.726562 463.34375 616.589844 463.636719 L 616.152344 464.078125 C 616.105469 464.367188 616.046875 464.648438 615.992188 464.929688 C 615.832031 465.28125 615.675781 465.628906 615.527344 465.964844 C 615.671875 465.320312 615.804688 464.667969 615.921875 464.015625 L 600.070312 453.097656 C 604.207031 463.691406 611.992188 473.765625 612.492188 474.40625 C 612.894531 473.648438 613.261719 472.871094 613.601562 472.074219 C 613.699219 472.066406 613.796875 472.054688 613.894531 472.046875 C 613.855469 472.144531 613.8125 472.238281 613.769531 472.335938 C 613.722656 472.339844 613.671875 472.347656 613.621094 472.355469 C 613.660156 472.363281 613.707031 472.378906 613.75 472.390625 C 613.511719 472.945312 613.265625 473.492188 613 474.015625 C 613.347656 473.707031 613.871094 473.214844 614.503906 472.589844 C 618.230469 473.542969 628.269531 475.578125 636.867188 472.570312 L 623.695312 469.699219 C 620.875 470.894531 617.921875 471.734375 614.894531 472.199219 Z M 624.148438 455.511719 L 624.464844 455.191406 L 624.449219 455.671875 L 624.132812 455.992188 Z M 624.148438 455.511719 "/>
<path style=" stroke:none;fill-rule:nonzero;fill:rgb(42.352941%,38.823529%,100%);fill-opacity:1;" d="M 656.949219 441.832031 L 657.0625 441.863281 C 655.953125 439.152344 653.707031 437.480469 650.75 436.847656 L 650.007812 449.867188 C 654.300781 445.332031 656.914062 441.882812 656.949219 441.832031 Z M 656.949219 441.832031 "/>
<path style=" stroke:none;fill-rule:nonzero;fill:rgb(42.352941%,38.823529%,100%);fill-opacity:1;" d="M 629.320312 466.945312 C 627.664062 467.882812 625.960938 468.730469 624.214844 469.484375 L 637.261719 472.324219 L 637.164062 472.464844 C 638.8125 471.871094 640.382812 471.070312 641.832031 470.082031 C 642.402344 469.691406 642.957031 469.289062 643.503906 468.871094 L 629.839844 466.644531 C 629.667969 466.746094 629.492188 466.847656 629.320312 466.945312 Z M 629.320312 466.945312 "/>
<path style=" stroke:none;fill-rule:nonzero;fill:rgb(42.352941%,38.823529%,100%);fill-opacity:1;" d="M 643.609375 456.136719 C 645.871094 454.09375 647.914062 452.066406 649.6875 450.203125 L 650.449219 436.886719 L 650.601562 436.816406 C 648.027344 436.382812 645.386719 436.523438 642.871094 437.230469 Z M 643.609375 456.136719 "/>
<path style=" stroke:none;fill-rule:nonzero;fill:rgb(42.352941%,38.823529%,100%);fill-opacity:1;" d="M 616.328125 424.007812 C 614.8125 422.582031 612.960938 421.5625 610.945312 421.042969 C 610.847656 421.023438 610.75 421.003906 610.65625 420.984375 C 610.898438 421.648438 612.296875 425.558594 613.707031 431.15625 Z M 616.328125 424.007812 "/>
<path style=" stroke:none;fill-rule:nonzero;fill:rgb(42.352941%,38.823529%,100%);fill-opacity:1;" d="M 615.441406 440.382812 L 598.960938 430.808594 L 598.976562 430.632812 C 598.359375 432.605469 597.945312 434.636719 597.734375 436.691406 L 616.3125 446.914062 C 616.089844 444.613281 615.78125 442.414062 615.441406 440.382812 Z M 615.441406 440.382812 "/>
<path style=" stroke:none;fill-rule:nonzero;fill:rgb(42.352941%,38.823529%,100%);fill-opacity:1;" d="M 597.570312 438.914062 L 597.554688 439.089844 C 597.558594 439.03125 597.566406 438.972656 597.570312 438.914062 Z M 597.570312 438.914062 "/>
<path style=" stroke:none;fill-rule:nonzero;fill:rgb(42.352941%,38.823529%,100%);fill-opacity:1;" d="M 597.703125 437.039062 C 597.710938 436.980469 597.710938 436.921875 597.714844 436.863281 Z M 597.703125 437.039062 "/>
<path style=" stroke:none;fill-rule:nonzero;fill:rgb(42.352941%,38.823529%,100%);fill-opacity:1;" d="M 616.347656 447.296875 L 597.703125 437.039062 C 597.644531 437.652344 597.597656 438.277344 597.570312 438.914062 L 616.488281 448.976562 C 616.449219 448.414062 616.402344 447.851562 616.347656 447.296875 Z M 616.347656 447.296875 "/>
<path style=" stroke:none;fill-rule:nonzero;fill:rgb(42.352941%,38.823529%,100%);fill-opacity:1;" d="M 616.628906 457.390625 L 598.277344 447.457031 C 598.722656 449.300781 599.292969 451.109375 599.984375 452.878906 L 600.007812 452.6875 L 615.976562 463.683594 C 616.320312 461.601562 616.535156 459.5 616.628906 457.390625 Z M 616.628906 457.390625 "/>
<path style=" stroke:none;fill-rule:nonzero;fill:rgb(42.352941%,38.823529%,100%);fill-opacity:1;" d="M 610.445312 421.039062 L 610.53125 420.960938 C 607.648438 420.445312 605.035156 421.453125 602.921875 423.613281 L 613.507812 431.210938 C 611.976562 425.15625 610.46875 421.097656 610.445312 421.039062 Z M 610.445312 421.039062 "/>
<path style=" stroke:none;fill-rule:nonzero;fill:rgb(42.352941%,38.823529%,100%);fill-opacity:1;" d="M 613.621094 431.660156 L 602.792969 423.890625 L 602.816406 423.722656 C 601.070312 425.667969 599.777344 427.976562 599.027344 430.480469 L 615.371094 439.976562 C 614.855469 436.972656 614.238281 434.15625 613.621094 431.660156 Z M 613.621094 431.660156 "/>
<path style=" stroke:none;fill-rule:nonzero;fill:rgb(42.352941%,38.823529%,100%);fill-opacity:1;" d="M 616.644531 457.023438 C 616.738281 454.464844 616.695312 451.90625 616.515625 449.355469 L 597.546875 439.269531 C 597.507812 440.296875 597.507812 441.351562 597.546875 442.4375 C 597.617188 443.988281 597.828125 445.527344 598.175781 447.042969 L 616.632812 457.03125 Z M 616.644531 457.023438 "/>
<path style=" stroke:none;fill-rule:nonzero;fill:rgb(18.431373%,18.039216%,25.490196%);fill-opacity:1;" d="M 39.855469 477.035156 L 659.875 477.035156 L 659.875 485.914062 C 659.875 493.695312 653.578125 500 645.808594 500 L 53.925781 500 C 46.15625 500 39.855469 493.695312 39.855469 485.914062 Z M 39.855469 477.035156 "/>
<path style=" stroke:none;fill-rule:nonzero;fill:rgb(24.705882%,23.921569%,33.72549%);fill-opacity:1;" d="M 39.855469 469.816406 L 659.875 469.816406 L 659.875 482.285156 L 39.855469 482.285156 Z M 39.855469 469.816406 "/>
<path style=" stroke:none;fill-rule:nonzero;fill:rgb(94.901961%,94.901961%,94.901961%);fill-opacity:1;" d="M 520.367188 43.289062 L 527.488281 47.8125 L 523.164062 39.941406 C 524.390625 38.960938 525.90625 38.421875 527.472656 38.402344 C 527.507812 38.402344 527.546875 38.402344 527.585938 38.402344 C 528.082031 38.410156 528.574219 38.375 529.0625 38.292969 L 531.476562 39.824219 L 530.441406 37.941406 C 532.152344 37.347656 533.628906 36.222656 534.664062 34.734375 L 538.984375 37.476562 L 536.253906 32.511719 C 538.78125 29.476562 542.183594 27.613281 545.929688 27.613281 C 550.421875 27.613281 554.425781 30.289062 557.007812 34.453125 C 558.5625 36.992188 561.355469 38.5 564.328125 38.40625 C 564.40625 38.402344 564.488281 38.402344 564.570312 38.402344 C 569.527344 38.402344 573.546875 44.03125 573.546875 50.972656 C 573.546875 57.917969 569.527344 63.546875 564.570312 63.546875 C 563.480469 63.542969 562.40625 63.273438 561.441406 62.761719 C 558.027344 61.101562 554.054688 61.023438 550.574219 62.550781 C 547.636719 63.871094 544.277344 63.878906 541.335938 62.570312 C 537.886719 61.074219 533.957031 61.148438 530.566406 62.777344 C 529.609375 63.277344 528.550781 63.542969 527.472656 63.546875 C 522.511719 63.546875 518.492188 57.917969 518.492188 50.972656 C 518.464844 48.296875 519.109375 45.652344 520.367188 43.289062 Z M 520.367188 43.289062 "/>
<path style=" stroke:none;fill-rule:nonzero;fill:rgb(94.901961%,94.901961%,94.901961%);fill-opacity:1;" d="M 158.082031 80.210938 L 162.613281 83.089844 L 159.863281 78.082031 C 160.640625 77.460938 161.605469 77.117188 162.601562 77.101562 C 162.625 77.101562 162.652344 77.105469 162.675781 77.105469 C 162.988281 77.109375 163.304688 77.085938 163.613281 77.035156 L 165.148438 78.007812 L 164.492188 76.8125 C 165.578125 76.429688 166.519531 75.71875 167.175781 74.769531 L 169.925781 76.515625 L 168.1875 73.355469 C 169.667969 71.445312 171.929688 70.300781 174.34375 70.242188 C 177.203125 70.242188 179.746094 71.941406 181.390625 74.59375 C 182.378906 76.207031 184.15625 77.167969 186.046875 77.105469 C 186.097656 77.105469 186.148438 77.101562 186.199219 77.101562 C 189.355469 77.101562 191.914062 80.683594 191.914062 85.101562 C 191.914062 89.515625 189.355469 93.097656 186.199219 93.097656 C 185.507812 93.09375 184.824219 92.925781 184.210938 92.597656 C 182.039062 91.542969 179.511719 91.492188 177.300781 92.464844 C 175.429688 93.304688 173.292969 93.308594 171.421875 92.476562 C 169.226562 91.523438 166.726562 91.574219 164.570312 92.609375 C 163.960938 92.929688 163.289062 93.09375 162.601562 93.097656 C 159.449219 93.097656 156.890625 89.515625 156.890625 85.101562 C 156.871094 83.398438 157.28125 81.714844 158.082031 80.210938 Z M 158.082031 80.210938 "/>
<path style=" stroke:none;fill-rule:nonzero;fill:rgb(94.901961%,94.901961%,94.901961%);fill-opacity:1;" d="M 36.175781 95.628906 L 40.707031 98.503906 L 37.957031 93.5 C 38.734375 92.875 39.699219 92.53125 40.695312 92.519531 C 40.71875 92.519531 40.742188 92.519531 40.769531 92.519531 C 41.082031 92.527344 41.398438 92.503906 41.707031 92.449219 L 43.242188 93.425781 L 42.585938 92.226562 C 43.671875 91.847656 44.613281 91.132812 45.269531 90.1875 L 48.019531 91.929688 L 46.28125 88.773438 C 47.761719 86.859375 50.023438 85.714844 52.4375 85.65625 C 55.296875 85.65625 57.839844 87.359375 59.484375 90.007812 C 60.472656 91.625 62.25 92.582031 64.140625 92.523438 C 64.191406 92.519531 64.242188 92.519531 64.292969 92.519531 C 67.449219 92.519531 70.003906 96.101562 70.003906 100.515625 C 70.003906 104.933594 67.449219 108.515625 64.292969 108.515625 C 63.601562 108.511719 62.917969 108.339844 62.304688 108.015625 C 60.132812 106.957031 57.605469 106.910156 55.390625 107.878906 C 53.523438 108.71875 51.386719 108.726562 49.515625 107.894531 C 47.320312 106.941406 44.820312 106.988281 42.664062 108.027344 C 42.054688 108.34375 41.382812 108.511719 40.695312 108.515625 C 37.542969 108.515625 34.984375 104.933594 34.984375 100.515625 C 34.964844 98.8125 35.375 97.132812 36.175781 95.628906 Z M 36.175781 95.628906 "/>
<path style=" stroke:none;fill-rule:nonzero;fill:rgb(42.352941%,38.823529%,100%);fill-opacity:1;" d="M 199.71875 391.644531 L 198.925781 392.433594 C 198.925781 392.433594 199.191406 401.148438 199.453125 402.996094 C 199.71875 404.84375 200.773438 408.011719 199.980469 410.386719 C 199.191406 412.765625 198.925781 414.613281 199.191406 414.875 C 199.453125 415.140625 198.925781 416.195312 198.925781 416.195312 L 201.035156 414.875 L 204.464844 406.957031 L 202.882812 398.507812 Z M 199.71875 391.644531 "/>
<use xlink:href="#surface5" mask="url(#mask0)"/>
<path style=" stroke:none;fill-rule:nonzero;fill:rgb(42.352941%,38.823529%,100%);fill-opacity:1;" d="M 213.695312 473.753906 C 213.695312 473.753906 213.695312 470.851562 213.167969 470.320312 C 212.640625 469.792969 211.847656 467.945312 210.792969 467.945312 C 209.738281 467.945312 206.046875 469 206.046875 469.265625 C 206.078125 470.089844 205.894531 470.90625 205.519531 471.640625 C 204.992188 472.433594 202.089844 475.601562 204.992188 476.128906 C 206.941406 476.449219 208.933594 475.976562 210.53125 474.808594 C 210.792969 474.546875 211.847656 474.28125 212.113281 474.546875 C 212.375 474.808594 213.695312 473.753906 213.695312 473.753906 Z M 213.695312 473.753906 "/>
<path style=" stroke:none;fill-rule:nonzero;fill:rgb(42.352941%,38.823529%,100%);fill-opacity:1;" d="M 221.078125 469 L 222.660156 471.90625 C 222.660156 471.90625 223.1875 474.546875 223.980469 474.808594 L 224.769531 474.808594 C 224.769531 474.808594 225.5625 477.714844 227.40625 477.449219 C 229.253906 477.1875 231.363281 476.128906 231.363281 475.601562 C 231.363281 475.074219 231.363281 473.488281 230.574219 472.960938 C 229.464844 472.054688 228.40625 471.085938 227.40625 470.058594 L 226.089844 468.738281 Z M 221.078125 469 "/>
<path style=" stroke:none;fill-rule:nonzero;fill:rgb(18.431373%,18.039216%,25.490196%);fill-opacity:1;" d="M 200.839844 372.289062 C 199.808594 372.8125 199.097656 373.808594 198.933594 374.953125 C 198.789062 376.839844 200.648438 378.617188 200.050781 380.410156 C 199.710938 381.425781 198.652344 382.085938 198.347656 383.117188 C 198.1875 383.9375 198.304688 384.789062 198.6875 385.53125 C 199.105469 386.550781 199.609375 387.53125 200.203125 388.460938 C 201.3125 390.210938 202.761719 391.867188 203.058594 393.917969 C 203.226562 394.644531 203.035156 395.410156 202.542969 395.972656 C 203.078125 395.566406 203.691406 395.273438 204.34375 395.113281 C 207.039062 394.210938 209.542969 392.816406 211.726562 390.996094 C 212.519531 390.4375 213.117188 389.644531 213.433594 388.722656 C 213.835938 387.101562 212.609375 385.480469 212.726562 383.8125 C 212.800781 382.746094 213.414062 381.804688 213.765625 380.792969 C 214.375 378.761719 214.132812 376.566406 213.089844 374.714844 C 212.230469 372.925781 210.671875 371.570312 208.78125 370.960938 C 207.339844 370.625 205.839844 370.667969 204.425781 371.085938 C 203.1875 371.34375 201.984375 371.746094 200.839844 372.289062 Z M 200.839844 372.289062 "/>
<path style=" stroke:none;fill-rule:nonzero;fill:rgb(42.352941%,38.823529%,100%);fill-opacity:1;" d="M 202.324219 386.929688 C 203.507812 384.730469 205.792969 383.347656 208.289062 383.328125 C 212.507812 383.328125 211.714844 383.0625 211.714844 383.0625 L 210.398438 388.34375 L 207.761719 390.984375 Z M 202.324219 386.929688 "/>
<path style=" stroke:none;fill-rule:nonzero;fill:rgb(98.431373%,74.509804%,74.509804%);fill-opacity:1;" d="M 203.410156 381.347656 C 203.410156 381.347656 205.78125 385.304688 204.199219 386.890625 C 202.617188 388.476562 203.410156 390.058594 203.671875 390.324219 C 203.9375 390.585938 211.320312 391.113281 211.320312 391.113281 L 211.585938 387.417969 L 212.375 384.25 C 212.375 384.25 208.15625 383.457031 208.683594 381.609375 C 209.210938 379.761719 203.410156 381.347656 203.410156 381.347656 Z M 203.410156 381.347656 "/>
<use xlink:href="#surface8" mask="url(#mask1)"/>
<path style=" stroke:none;fill-rule:nonzero;fill:rgb(98.431373%,74.509804%,74.509804%);fill-opacity:1;" d="M 221.871094 418.835938 C 221.585938 419.742188 221.234375 420.625 220.816406 421.476562 C 220.550781 421.742188 219.761719 419.628906 219.761719 419.628906 L 220.550781 417.78125 Z M 221.871094 418.835938 "/>
<path style=" stroke:none;fill-rule:nonzero;fill:rgb(98.431373%,74.509804%,74.509804%);fill-opacity:1;" d="M 218.835938 406.824219 L 219.890625 412.898438 L 204.070312 412.898438 L 204.859375 406.824219 Z M 218.835938 406.824219 "/>
<path style=" stroke:none;fill-rule:nonzero;fill:rgb(98.431373%,74.509804%,74.509804%);fill-opacity:1;" d="M 211.320312 378.441406 C 211.320312 381.210938 209.078125 383.457031 206.308594 383.457031 C 203.542969 383.457031 201.300781 381.210938 201.300781 378.441406 C 201.300781 375.671875 203.542969 373.425781 206.308594 373.425781 C 209.078125 373.425781 211.320312 375.671875 211.320312 378.441406 Z M 211.320312 378.441406 "/>
<path style=" stroke:none;fill-rule:nonzero;fill:rgb(42.352941%,38.823529%,100%);fill-opacity:1;" d="M 207.363281 388.738281 C 207.363281 388.738281 204.464844 389.003906 204.464844 388.476562 C 204.464844 387.945312 204.199219 386.363281 203.671875 386.625 C 203.144531 386.890625 199.71875 387.15625 199.980469 387.945312 C 200.246094 388.738281 200.773438 390.324219 200.246094 390.324219 C 199.785156 390.417969 199.382812 390.695312 199.132812 391.09375 C 198.882812 391.496094 198.808594 391.980469 198.925781 392.433594 C 199.191406 393.753906 202.089844 401.675781 202.089844 401.675781 C 202.089844 401.675781 202.355469 404.316406 203.144531 405.109375 C 203.808594 405.960938 203.808594 407.15625 203.144531 408.011719 C 202.617188 408.539062 204.464844 409.070312 205.253906 410.125 C 206.046875 411.179688 212.113281 410.386719 212.375 410.125 C 212.640625 409.859375 218.96875 409.859375 219.496094 409.332031 C 220.023438 408.804688 219.230469 407.21875 219.230469 407.21875 C 219.230469 407.21875 218.96875 404.84375 219.230469 404.050781 C 219.496094 403.261719 218.175781 390.324219 217.386719 389.53125 C 216.59375 388.738281 219.761719 386.363281 219.761719 386.363281 C 219.761719 386.363281 219.230469 384.25 215.804688 383.984375 C 215.804688 383.984375 214.75 382.402344 213.695312 382.402344 C 212.640625 382.402344 210.347656 383.628906 210.347656 383.628906 C 210.347656 383.628906 209.738281 387.15625 208.949219 387.417969 C 208.320312 387.726562 207.777344 388.179688 207.363281 388.738281 Z M 207.363281 388.738281 "/>
<path style=" stroke:none;fill-rule:nonzero;fill:rgb(42.352941%,38.823529%,100%);fill-opacity:1;" d="M 217.914062 385.570312 L 219.761719 386.363281 C 219.761719 386.363281 225.035156 402.730469 224.507812 405.898438 C 223.980469 409.070312 222.660156 419.894531 221.871094 419.894531 C 221.078125 419.894531 219.496094 418.308594 219.496094 418.308594 L 219.496094 415.667969 C 219.496094 415.140625 218.703125 413.558594 219.230469 413.558594 C 219.761719 413.558594 220.550781 413.027344 220.023438 412.5 C 219.496094 411.972656 218.96875 411.179688 219.496094 410.386719 C 220.023438 409.597656 220.289062 409.332031 220.023438 408.539062 C 219.761719 407.75 219.230469 406.957031 219.761719 406.429688 C 220.289062 405.898438 218.441406 403.261719 218.441406 403.261719 L 215.539062 391.644531 L 216.066406 386.890625 Z M 217.914062 385.570312 "/>
<path style=" stroke:none;fill-rule:nonzero;fill:rgb(18.431373%,18.039216%,25.490196%);fill-opacity:1;" d="M 218.96875 410.652344 C 218.96875 410.652344 208.949219 409.859375 207.628906 409.859375 C 206.308594 409.859375 203.351562 408.617188 203.351562 408.617188 C 203.351562 408.617188 195.761719 416.195312 198.398438 428.605469 C 201.035156 441.015625 201.5625 456.328125 203.144531 460.816406 C 204.222656 464.015625 205.101562 467.277344 205.78125 470.585938 C 205.78125 470.585938 208.417969 465.832031 213.429688 471.113281 C 213.429688 471.113281 213.957031 467.152344 213.167969 465.570312 C 212.375 463.984375 211.320312 455.535156 211.320312 455.535156 C 211.320312 455.535156 209.476562 442.070312 209.476562 440.488281 C 209.476562 438.902344 208.417969 425.4375 208.683594 425.171875 C 208.949219 424.910156 210.265625 435.46875 210.53125 437.320312 C 210.792969 439.167969 211.585938 453.425781 212.375 455.007812 C 213.167969 456.59375 216.859375 469.265625 218.96875 470.058594 C 221.078125 470.851562 228.199219 469.792969 227.933594 469.265625 C 227.671875 468.738281 225.824219 465.832031 225.296875 465.042969 L 223.1875 461.871094 L 218.175781 444.710938 L 220.550781 423.855469 C 220.550781 423.855469 221.871094 410.386719 218.96875 410.652344 Z M 218.96875 410.652344 "/>
<path style=" stroke:none;fill-rule:nonzero;fill:rgb(18.431373%,18.039216%,25.490196%);fill-opacity:1;" d="M 209.363281 377.78125 L 202.9375 377.78125 C 202.375 377.78125 201.894531 377.371094 201.804688 376.816406 L 201.167969 372.765625 L 211.1875 372.765625 L 210.292969 377.027344 C 210.199219 377.464844 209.8125 377.78125 209.363281 377.78125 Z M 209.363281 377.78125 "/>
<path style=" stroke:none;fill-rule:nonzero;fill:rgb(18.431373%,18.039216%,25.490196%);fill-opacity:1;" d="M 540.527344 376.53125 L 550.667969 376.53125 L 550.667969 391.03125 C 545.066406 391.03125 540.527344 386.488281 540.527344 380.882812 Z M 540.527344 376.53125 "/>
<path style=" stroke:none;fill-rule:nonzero;fill:rgb(62.745098%,38.039216%,41.568627%);fill-opacity:1;" d="M 534.613281 461.476562 L 533.890625 465.101562 L 538.960938 465.101562 L 539.199219 461.476562 Z M 534.613281 461.476562 "/>
<path style=" stroke:none;fill-rule:nonzero;fill:rgb(42.352941%,38.823529%,100%);fill-opacity:1;" d="M 534.613281 464.378906 C 534.613281 464.378906 533.648438 463.652344 533.164062 464.136719 C 532.683594 464.621094 530.992188 474.042969 530.75 474.285156 C 530.511719 474.527344 523.269531 478.152344 524.957031 478.394531 C 526.648438 478.636719 533.164062 478.878906 534.132812 478.394531 C 535.097656 477.910156 537.753906 473.320312 537.753906 473.320312 L 537.753906 477.429688 L 538.234375 477.429688 C 538.234375 477.429688 538.71875 473.078125 539.925781 471.871094 C 541.132812 470.660156 538.960938 466.554688 538.960938 466.554688 C 538.960938 466.554688 539.441406 463.894531 539.199219 463.894531 C 538.960938 463.894531 534.613281 464.378906 534.613281 464.378906 Z M 534.613281 464.378906 "/>
<path style=" stroke:none;fill-rule:nonzero;fill:rgb(62.745098%,38.039216%,41.568627%);fill-opacity:1;" d="M 549.582031 458.941406 L 548.855469 462.566406 L 553.925781 462.566406 L 554.167969 458.941406 Z M 549.582031 458.941406 "/>
<path style=" stroke:none;fill-rule:nonzero;fill:rgb(18.431373%,18.039216%,25.490196%);fill-opacity:1;" d="M 543.785156 435.378906 C 543.785156 435.378906 546.199219 442.628906 546.683594 443.351562 C 547.167969 444.078125 548.855469 457.613281 548.855469 457.613281 C 548.855469 457.613281 547.167969 460.269531 549.339844 460.511719 C 551.511719 460.753906 550.546875 460.027344 551.996094 460.511719 C 552.792969 460.8125 553.6875 460.722656 554.40625 460.269531 C 554.40625 460.269531 555.132812 458.820312 554.648438 458.335938 C 554.167969 457.851562 555.132812 445.285156 555.132812 445.285156 L 553.683594 440.9375 L 552.476562 427.160156 C 552.476562 427.160156 553.925781 423.535156 553.199219 422.570312 C 552.476562 421.601562 550.0625 423.292969 550.0625 423.292969 Z M 543.785156 435.378906 "/>
<path style=" stroke:none;fill-rule:nonzero;fill:rgb(18.431373%,18.039216%,25.490196%);fill-opacity:1;" d="M 540.648438 416.527344 C 540.648438 416.527344 539.925781 424.261719 539.441406 424.746094 C 538.960938 425.226562 533.648438 438.761719 533.648438 438.761719 C 533.648438 438.761719 532.199219 440.453125 532.683594 446.734375 C 533.164062 453.019531 534.371094 459.304688 534.371094 459.304688 C 534.371094 459.304688 533.40625 462.929688 535.097656 462.929688 C 536.785156 462.929688 537.511719 461.960938 538.234375 462.6875 C 538.960938 463.410156 539.441406 462.6875 539.683594 462.203125 C 539.925781 461.71875 540.890625 460.027344 540.890625 459.542969 C 540.890625 459.0625 541.855469 446.734375 541.855469 446.734375 C 541.855469 446.734375 549.820312 429.09375 550.546875 428.128906 C 551.269531 427.160156 555.375 421.84375 555.132812 418.21875 Z M 540.648438 416.527344 "/>
<path style=" stroke:none;fill-rule:nonzero;fill:rgb(62.745098%,38.039216%,41.568627%);fill-opacity:1;" d="M 551.753906 378.828125 C 551.753906 381.628906 549.484375 383.902344 546.683594 383.902344 C 543.882812 383.902344 541.613281 381.628906 541.613281 378.828125 C 541.613281 376.023438 543.882812 373.753906 546.683594 373.753906 C 549.484375 373.753906 551.753906 376.023438 551.753906 378.828125 Z M 551.753906 378.828125 "/>
<path style=" stroke:none;fill-rule:nonzero;fill:rgb(62.745098%,38.039216%,41.568627%);fill-opacity:1;" d="M 545.71875 383.175781 C 545.71875 383.175781 547.648438 387.527344 547.890625 388.734375 C 548.132812 389.945312 552.71875 386.320312 552.71875 386.320312 C 552.71875 386.320312 550.304688 382.210938 551.027344 380.277344 Z M 545.71875 383.175781 "/>
<path style=" stroke:none;fill-rule:nonzero;fill:rgb(24.705882%,23.921569%,33.72549%);fill-opacity:1;" d="M 553.441406 385.59375 C 553.441406 385.59375 549.820312 382.9375 547.167969 388.496094 C 544.511719 394.050781 543.785156 393.8125 543.785156 393.8125 C 543.785156 393.8125 540.648438 394.777344 541.613281 401.542969 C 542.578125 408.3125 538.476562 417.253906 540.167969 417.734375 C 541.855469 418.21875 557.546875 420.878906 557.546875 418.945312 C 557.546875 417.011719 556.097656 409.519531 557.304688 404.925781 C 558.511719 400.335938 555.613281 384.386719 553.441406 385.59375 Z M 553.441406 385.59375 "/>
<path style=" stroke:none;fill-rule:nonzero;fill:rgb(24.705882%,23.921569%,33.72549%);fill-opacity:1;" d="M 549.820312 386.800781 C 549.820312 386.800781 546.925781 391.152344 547.167969 394.535156 C 547.40625 397.917969 547.40625 400.09375 547.40625 400.09375 C 547.40625 400.09375 542.578125 423.292969 543.546875 423.292969 C 544.511719 423.292969 547.40625 424.503906 547.648438 423.777344 C 547.890625 423.054688 553.925781 408.3125 553.925781 408.3125 C 553.925781 408.3125 555.375 393.570312 553.683594 390.1875 C 551.996094 386.800781 549.820312 386.800781 549.820312 386.800781 Z M 549.820312 386.800781 "/>
<path style=" stroke:none;fill-rule:nonzero;fill:rgb(62.745098%,38.039216%,41.568627%);fill-opacity:1;" d="M 544.027344 422.570312 C 544.027344 422.570312 541.613281 430.785156 544.992188 431.027344 C 548.375 431.269531 546.441406 423.054688 546.441406 423.054688 Z M 544.027344 422.570312 "/>
<path style=" stroke:none;fill-rule:nonzero;fill:rgb(42.352941%,38.823529%,100%);fill-opacity:1;" d="M 550.453125 460.683594 C 550.453125 460.683594 549.609375 460.046875 549.183594 460.472656 C 548.761719 460.894531 547.28125 469.148438 547.070312 469.359375 C 546.859375 469.570312 540.519531 472.746094 541.996094 472.957031 C 543.476562 473.167969 549.183594 473.382812 550.03125 472.957031 C 550.875 472.535156 553.203125 468.511719 553.203125 468.511719 L 553.203125 472.113281 L 553.625 472.113281 C 553.625 472.113281 554.046875 468.300781 555.105469 467.242188 C 556.160156 466.1875 554.257812 462.585938 554.257812 462.585938 C 554.257812 462.585938 554.679688 460.261719 554.46875 460.261719 C 554.257812 460.261719 550.453125 460.683594 550.453125 460.683594 Z M 550.453125 460.683594 "/>
<path style=" stroke:none;fill-rule:nonzero;fill:rgb(18.431373%,18.039216%,25.490196%);fill-opacity:1;" d="M 544.179688 375.503906 C 544.339844 375.304688 544.550781 375.15625 544.789062 375.070312 C 545.011719 375.027344 545.242188 375.046875 545.453125 375.125 C 546.96875 375.570312 548.28125 376.523438 549.167969 377.828125 C 549.339844 378.164062 549.597656 378.441406 549.914062 378.640625 C 550.121094 378.703125 550.324219 378.78125 550.519531 378.871094 C 551.085938 379.246094 550.75 380.109375 550.425781 380.703125 C 549.59375 382.234375 549.210938 383.964844 549.316406 385.699219 C 549.308594 386.003906 549.398438 386.300781 549.570312 386.546875 C 549.84375 386.800781 550.203125 386.945312 550.574219 386.949219 C 551.746094 387.097656 552.925781 387.160156 554.105469 387.136719 C 555.261719 387.117188 556.542969 386.953125 557.292969 386.070312 C 558.097656 385.125 557.972656 383.671875 557.449219 382.546875 C 556.925781 381.417969 556.074219 380.476562 555.46875 379.386719 C 554.894531 378.242188 554.441406 377.035156 554.117188 375.792969 C 553.699219 374.210938 553.023438 372.703125 552.121094 371.335938 C 551.199219 369.960938 549.75 369.027344 548.113281 368.765625 C 545.921875 368.519531 543.898438 369.871094 542.136719 371.199219 C 540.15625 372.691406 538.050781 374.539062 537.890625 377.015625 C 537.765625 379.019531 538.964844 380.832031 539.59375 382.742188 C 540.566406 385.6875 540.160156 388.890625 539.742188 391.964844 C 541.527344 390.890625 543.550781 389.402344 543.433594 387.320312 C 543.355469 385.914062 542.296875 384.792969 541.636719 383.550781 C 539.824219 380.132812 541.890625 377.839844 544.179688 375.503906 Z M 544.179688 375.503906 "/>
<path style=" stroke:none;fill-rule:nonzero;fill:rgb(24.705882%,23.921569%,33.72549%);fill-opacity:1;" d="M 615.464844 400.203125 C 616.996094 397.523438 617.789062 394.480469 617.757812 391.390625 C 617.757812 383.425781 612.835938 376.972656 606.757812 376.972656 C 600.683594 376.972656 595.757812 383.425781 595.757812 391.390625 C 595.726562 394.480469 596.519531 397.523438 598.050781 400.203125 C 594.992188 405.675781 594.992188 412.351562 598.050781 417.824219 C 594.992188 423.300781 594.992188 429.972656 598.050781 435.449219 C 594.992188 440.921875 594.992188 447.597656 598.050781 453.070312 C 596.519531 455.753906 595.726562 458.792969 595.757812 461.882812 C 595.757812 469.847656 600.683594 476.300781 606.757812 476.300781 C 612.835938 476.300781 617.757812 469.847656 617.757812 461.882812 C 617.789062 458.792969 616.996094 455.753906 615.464844 453.070312 C 618.523438 447.597656 618.523438 440.921875 615.464844 435.449219 C 618.523438 429.972656 618.523438 423.300781 615.464844 417.824219 C 618.523438 412.351562 618.523438 405.675781 615.464844 400.203125 Z M 615.464844 400.203125 "/>
<path style=" stroke:none;fill-rule:nonzero;fill:rgb(24.705882%,23.921569%,33.72549%);fill-opacity:1;" d="M 617.757812 373.765625 C 617.757812 365.804688 612.835938 359.347656 606.757812 359.347656 C 600.683594 359.347656 595.757812 365.804688 595.757812 373.765625 C 595.757812 381.730469 600.683594 388.1875 606.757812 388.1875 C 612.835938 388.1875 617.757812 381.730469 617.757812 373.765625 Z M 617.757812 373.765625 "/>
<path style=" stroke:none;fill-rule:nonzero;fill:rgb(24.705882%,23.921569%,33.72549%);fill-opacity:1;" d="M 617.757812 356.144531 C 617.757812 348.179688 612.835938 341.726562 606.757812 341.726562 C 600.683594 341.726562 595.757812 348.179688 595.757812 356.144531 C 595.757812 364.109375 600.683594 370.5625 606.757812 370.5625 C 612.835938 370.5625 617.757812 364.109375 617.757812 356.144531 Z M 617.757812 356.144531 "/>
<path style=" stroke:none;fill-rule:nonzero;fill:rgb(94.901961%,94.901961%,94.901961%);fill-opacity:1;" d="M 647.941406 235.542969 C 649.445312 233.628906 650.816406 231.609375 652.039062 229.503906 L 623.132812 224.75 L 654.398438 224.984375 C 660.457031 211.78125 660.824219 196.660156 655.402344 183.179688 L 613.457031 204.964844 L 652.140625 176.496094 C 642.261719 159.40625 623.679688 149.269531 603.980469 150.222656 C 584.28125 151.175781 566.761719 163.058594 558.578125 181.023438 C 550.390625 198.988281 552.910156 220.023438 565.101562 235.542969 C 562.757812 238.523438 560.742188 241.75 559.089844 245.164062 L 596.617188 264.683594 L 556.605469 251.238281 C 550.894531 268.128906 554.09375 286.765625 565.101562 300.785156 C 548.109375 322.414062 550.574219 353.484375 570.765625 372.15625 C 590.953125 390.828125 622.089844 390.828125 642.28125 372.15625 C 662.472656 353.484375 664.9375 322.414062 647.941406 300.785156 C 662.980469 281.640625 662.980469 254.683594 647.941406 235.542969 Z M 647.941406 235.542969 "/>
<path style=" stroke:none;fill-rule:nonzero;fill:rgb(94.901961%,94.901961%,94.901961%);fill-opacity:1;" d="M 553.824219 268.164062 C 553.804688 279.996094 557.777344 291.492188 565.101562 300.785156 C 548.109375 322.414062 550.574219 353.484375 570.765625 372.15625 C 590.953125 390.828125 622.089844 390.828125 642.28125 372.15625 C 662.472656 353.484375 664.9375 322.414062 647.941406 300.785156 C 655.007812 291.804688 553.824219 262.242188 553.824219 268.164062 Z M 553.824219 268.164062 "/>
<path style=" stroke:none;fill-rule:nonzero;fill:rgb(34.117647%,72.156863%,58.039216%);fill-opacity:1;" d="M 647.941406 235.542969 C 649.445312 233.628906 650.816406 231.609375 652.039062 229.503906 L 623.132812 224.75 L 654.398438 224.984375 C 660.457031 211.78125 660.824219 196.660156 655.402344 183.179688 L 613.457031 204.964844 L 652.140625 176.496094 C 642.261719 159.40625 623.679688 149.269531 603.980469 150.222656 C 584.28125 151.175781 566.761719 163.058594 558.578125 181.023438 C 550.390625 198.988281 552.910156 220.023438 565.101562 235.542969 C 562.757812 238.523438 560.742188 241.75 559.089844 245.164062 L 596.617188 264.683594 L 556.605469 251.238281 C 550.894531 268.128906 554.09375 286.765625 565.101562 300.785156 C 548.109375 322.414062 550.574219 353.484375 570.765625 372.15625 C 590.953125 390.828125 622.089844 390.828125 642.28125 372.15625 C 662.472656 353.484375 664.9375 322.414062 647.941406 300.785156 C 662.980469 281.640625 662.980469 254.683594 647.941406 235.542969 Z M 647.941406 235.542969 "/>
<use xlink:href="#surface11" mask="url(#mask2)"/>
<path style=" stroke:none;fill-rule:nonzero;fill:rgb(24.705882%,23.921569%,33.72549%);fill-opacity:1;" d="M 61.640625 400.203125 C 63.175781 397.523438 63.96875 394.480469 63.9375 391.390625 C 63.9375 383.425781 59.011719 376.972656 52.933594 376.972656 C 46.859375 376.972656 41.933594 383.425781 41.933594 391.390625 C 41.902344 394.480469 42.695312 397.523438 44.230469 400.203125 C 41.167969 405.675781 41.167969 412.351562 44.230469 417.824219 C 41.167969 423.300781 41.167969 429.972656 44.230469 435.449219 C 41.167969 440.921875 41.167969 447.597656 44.230469 453.070312 C 42.695312 455.753906 41.902344 458.792969 41.933594 461.882812 C 41.933594 469.847656 46.859375 476.300781 52.933594 476.300781 C 59.011719 476.300781 63.9375 469.847656 63.9375 461.882812 C 63.96875 458.792969 63.175781 455.753906 61.640625 453.070312 C 64.703125 447.597656 64.703125 440.921875 61.640625 435.449219 C 64.703125 429.972656 64.703125 423.300781 61.640625 417.824219 C 64.703125 412.351562 64.703125 405.675781 61.640625 400.203125 Z M 61.640625 400.203125 "/>
<path style=" stroke:none;fill-rule:nonzero;fill:rgb(24.705882%,23.921569%,33.72549%);fill-opacity:1;" d="M 63.9375 373.765625 C 63.9375 365.804688 59.011719 359.347656 52.933594 359.347656 C 46.859375 359.347656 41.933594 365.804688 41.933594 373.765625 C 41.933594 381.730469 46.859375 388.1875 52.933594 388.1875 C 59.011719 388.1875 63.9375 381.730469 63.9375 373.765625 Z M 63.9375 373.765625 "/>
<path style=" stroke:none;fill-rule:nonzero;fill:rgb(24.705882%,23.921569%,33.72549%);fill-opacity:1;" d="M 63.9375 356.144531 C 63.9375 348.179688 59.011719 341.726562 52.933594 341.726562 C 46.859375 341.726562 41.933594 348.179688 41.933594 356.144531 C 41.933594 364.109375 46.859375 370.5625 52.933594 370.5625 C 59.011719 370.5625 63.9375 364.109375 63.9375 356.144531 Z M 63.9375 356.144531 "/>
<path style=" stroke:none;fill-rule:nonzero;fill:rgb(94.901961%,94.901961%,94.901961%);fill-opacity:1;" d="M 94.121094 235.542969 C 95.621094 233.628906 96.992188 231.609375 98.21875 229.503906 L 69.308594 224.75 L 100.574219 224.984375 C 106.636719 211.78125 107 196.660156 101.582031 183.179688 L 59.632812 204.964844 L 98.320312 176.496094 C 88.441406 159.40625 69.859375 149.269531 50.160156 150.222656 C 30.460938 151.175781 12.941406 163.058594 4.753906 181.023438 C -3.433594 198.988281 -0.914062 220.023438 11.277344 235.542969 C 8.933594 238.523438 6.921875 241.75 5.269531 245.164062 L 42.792969 264.683594 L 2.78125 251.238281 C -2.925781 268.128906 0.269531 286.765625 11.277344 300.785156 C -5.714844 322.414062 -3.25 353.484375 16.941406 372.15625 C 37.132812 390.828125 68.265625 390.828125 88.457031 372.15625 C 108.648438 353.484375 111.113281 322.414062 94.121094 300.785156 C 109.15625 281.640625 109.15625 254.683594 94.121094 235.542969 Z M 94.121094 235.542969 "/>
<path style=" stroke:none;fill-rule:nonzero;fill:rgb(94.901961%,94.901961%,94.901961%);fill-opacity:1;" d="M 0 268.164062 C -0.0195312 279.996094 3.957031 291.492188 11.277344 300.785156 C -5.714844 322.414062 -3.25 353.484375 16.941406 372.15625 C 37.132812 390.828125 68.265625 390.828125 88.457031 372.15625 C 108.648438 353.484375 111.113281 322.414062 94.121094 300.785156 C 101.183594 291.804688 0 262.242188 0 268.164062 Z M 0 268.164062 "/>
<path style=" stroke:none;fill-rule:nonzero;fill:rgb(34.117647%,72.156863%,58.039216%);fill-opacity:1;" d="M 94.121094 235.542969 C 95.621094 233.628906 96.992188 231.609375 98.21875 229.503906 L 69.308594 224.75 L 100.574219 224.984375 C 106.636719 211.78125 107 196.660156 101.582031 183.179688 L 59.632812 204.964844 L 98.320312 176.496094 C 88.441406 159.40625 69.859375 149.269531 50.160156 150.222656 C 30.460938 151.175781 12.941406 163.058594 4.753906 181.023438 C -3.433594 198.988281 -0.914062 220.023438 11.277344 235.542969 C 8.933594 238.523438 6.921875 241.75 5.269531 245.164062 L 42.792969 264.683594 L 2.78125 251.238281 C -2.925781 268.128906 0.269531 286.765625 11.277344 300.785156 C -5.714844 322.414062 -3.25 353.484375 16.941406 372.15625 C 37.132812 390.828125 68.265625 390.828125 88.457031 372.15625 C 108.648438 353.484375 111.113281 322.414062 94.121094 300.785156 C 109.15625 281.640625 109.15625 254.683594 94.121094 235.542969 Z M 94.121094 235.542969 "/>
<use xlink:href="#surface14" mask="url(#mask3)"/>
<path style=" stroke:none;fill-rule:nonzero;fill:rgb(34.117647%,72.156863%,58.039216%);fill-opacity:1;" d="M 379.78125 232.648438 L 353.632812 258.828125 L 341.242188 246.425781 L 336.417969 251.253906 L 353.613281 268.46875 L 384.605469 237.476562 Z M 379.78125 232.648438 "/>
<path style=" stroke:none;fill-rule:nonzero;fill:rgb(34.117647%,72.156863%,58.039216%);fill-opacity:1;" d="M 463.015625 172.9375 L 436.867188 199.117188 L 424.480469 186.710938 L 419.65625 191.542969 L 436.851562 208.757812 L 467.839844 177.765625 Z M 463.015625 172.9375 "/>
</g>
</svg>
