<?xml version="1.0" encoding="UTF-8"?>
<svg xmlns="http://www.w3.org/2000/svg" xmlns:xlink="http://www.w3.org/1999/xlink" width="200px" height="123px" viewBox="0 0 200 123" version="1.1">
<defs>
<filter id="alpha" filterUnits="objectBoundingBox" x="0%" y="0%" width="100%" height="100%">
  <feColorMatrix type="matrix" in="SourceGraphic" values="0 0 0 0 1 0 0 0 0 1 0 0 0 0 1 0 0 0 1 0"/>
</filter>
<mask id="mask0">
  <g filter="url(#alpha)">
<rect x="0" y="0" width="200" height="123" style="fill:rgb(0%,0%,0%);fill-opacity:0.501961;stroke:none;"/>
  </g>
</mask>
<clipPath id="clip1">
  <rect x="0" y="0" width="200" height="123"/>
</clipPath>
<g id="surface5" clip-path="url(#clip1)">
<path style=" stroke:none;fill-rule:nonzero;fill:rgb(100%,39.607843%,51.764706%);fill-opacity:1;" d="M 100.953125 110.769531 C 100.953125 113.554688 98.988281 113.605469 96.5625 113.605469 C 94.136719 113.605469 90.152344 113.054688 92.167969 110.769531 C 94.296875 108.355469 97.945312 103.761719 96.5625 103.519531 C 96.5625 103.519531 100.953125 107.980469 100.953125 110.769531 Z M 100.953125 110.769531 "/>
</g>
</defs>
<g id="surface1">
<path style=" stroke:none;fill-rule:nonzero;fill:rgb(90.196078%,90.196078%,90.196078%);fill-opacity:1;" d="M 195.066406 114.84375 C 195.066406 110.347656 151.398438 106.703125 97.535156 106.703125 C 43.667969 106.703125 0 110.347656 0 114.84375 C 0 119.339844 43.667969 122.984375 97.535156 122.984375 C 151.398438 122.984375 195.066406 119.339844 195.066406 114.84375 Z M 195.066406 114.84375 "/>
<path style=" stroke:none;fill-rule:nonzero;fill:rgb(24.705882%,23.921569%,33.72549%);fill-opacity:1;" d="M 98.414062 113.820312 C 98.332031 113.207031 97.671875 112.746094 96.894531 112.753906 C 96.1875 112.75 95.570312 113.128906 95.398438 113.667969 L 93.90625 119.394531 C 93.855469 119.5625 93.832031 119.734375 93.828125 119.90625 C 93.828125 121.199219 95.199219 122.09375 96.894531 122.09375 C 98.589844 122.09375 99.957031 121.199219 99.957031 119.90625 C 99.957031 119.699219 99.921875 119.492188 99.851562 119.292969 Z M 98.414062 113.820312 "/>
<path style=" stroke:none;fill-rule:nonzero;fill:rgb(24.705882%,23.921569%,33.72549%);fill-opacity:1;" d="M 109.714844 116.382812 C 109.5625 116.277344 109.398438 116.183594 109.226562 116.101562 L 103.519531 112.953125 C 102.964844 112.675781 102.371094 112.683594 101.941406 113.015625 C 101.550781 113.308594 101.484375 113.777344 101.777344 114.132812 L 106.085938 118.601562 C 106.183594 118.710938 106.292969 118.8125 106.414062 118.90625 C 107.160156 119.5625 108.816406 119.601562 109.726562 118.90625 C 110.625 118.199219 110.613281 116.9375 109.714844 116.382812 Z M 109.714844 116.382812 "/>
<path style=" stroke:none;fill-rule:nonzero;fill:rgb(24.705882%,23.921569%,33.72549%);fill-opacity:1;" d="M 114.003906 111.71875 L 108.222656 111.71875 C 107.839844 111.707031 107.511719 111.941406 107.496094 112.246094 C 107.488281 112.523438 107.722656 112.769531 108.0625 112.839844 L 113.515625 114.171875 C 114.308594 114.316406 115.375 113.761719 115.375 113.066406 C 115.375 112.179688 114.75 111.71875 114.003906 111.71875 Z M 114.003906 111.71875 "/>
<path style=" stroke:none;fill-rule:nonzero;fill:rgb(24.705882%,23.921569%,33.72549%);fill-opacity:1;" d="M 86.5 112.246094 C 86.488281 112.09375 86.398438 111.949219 86.253906 111.851562 C 86.109375 111.753906 85.917969 111.703125 85.726562 111.714844 L 79.945312 111.714844 C 79.21875 111.714844 78.601562 112.335938 78.601562 113.03125 C 78.601562 113.726562 79.640625 114.316406 80.433594 114.171875 L 85.96875 112.839844 C 86.3125 112.777344 86.539062 112.519531 86.5 112.246094 Z M 86.5 112.246094 "/>
<path style=" stroke:none;fill-rule:nonzero;fill:rgb(24.705882%,23.921569%,33.72549%);fill-opacity:1;" d="M 90.46875 112.957031 L 84.757812 116.089844 C 84.582031 116.171875 84.417969 116.265625 84.265625 116.375 C 83.390625 117.015625 83.34375 118.09375 84.15625 118.785156 C 84.191406 118.8125 84.226562 118.84375 84.265625 118.871094 C 85.195312 119.566406 86.648438 119.566406 87.578125 118.871094 C 87.703125 118.78125 87.8125 118.679688 87.90625 118.570312 L 92.21875 114.125 C 92.519531 113.773438 92.449219 113.304688 92.054688 113.019531 C 91.617188 112.695312 90.945312 112.667969 90.46875 112.957031 Z M 90.46875 112.957031 "/>
<path style=" stroke:none;fill-rule:nonzero;fill:rgb(24.705882%,23.921569%,33.72549%);fill-opacity:1;" d="M 99.347656 106.832031 C 99.414062 106.753906 99.449219 106.664062 99.453125 106.570312 C 99.453125 106.023438 98.082031 105.640625 96.386719 105.640625 C 94.695312 105.640625 93.324219 106.023438 93.324219 106.570312 C 93.328125 106.648438 93.351562 106.722656 93.402344 106.789062 L 94.894531 109.222656 C 95.066406 109.453125 95.683594 109.613281 96.386719 109.609375 C 97.183594 109.609375 97.84375 109.410156 97.910156 109.15625 Z M 99.347656 106.832031 "/>
<path style=" stroke:none;fill-rule:nonzero;fill:rgb(24.705882%,23.921569%,33.72549%);fill-opacity:1;" d="M 109.222656 106.996094 C 108.3125 106.703125 106.65625 106.714844 105.910156 106.996094 C 105.796875 107.035156 105.6875 107.078125 105.582031 107.125 L 101.269531 109.027344 C 100.976562 109.175781 101.046875 109.375 101.4375 109.5 C 101.945312 109.640625 102.5 109.648438 103.015625 109.527344 L 108.722656 108.1875 C 108.886719 108.15625 109.050781 108.117188 109.210938 108.070312 C 110.109375 107.832031 110.121094 107.296875 109.222656 106.996094 Z M 109.222656 106.996094 "/>
<path style=" stroke:none;fill-rule:nonzero;fill:rgb(24.705882%,23.921569%,33.72549%);fill-opacity:1;" d="M 114.871094 109.480469 C 114.871094 109.183594 113.804688 108.945312 113.011719 109.007812 L 107.558594 109.574219 C 107.234375 109.609375 106.992188 109.695312 106.992188 109.828125 C 106.992188 109.957031 107.347656 110.050781 107.71875 110.050781 L 113.5 110.050781 C 114.246094 110.050781 114.871094 109.855469 114.871094 109.480469 Z M 114.871094 109.480469 "/>
<path style=" stroke:none;fill-rule:nonzero;fill:rgb(24.705882%,23.921569%,33.72549%);fill-opacity:1;" d="M 85.464844 109.574219 L 79.929688 109.007812 C 79.132812 108.945312 78.097656 109.195312 78.097656 109.492188 C 78.097656 109.789062 78.710938 110.050781 79.441406 110.050781 L 85.21875 110.050781 C 85.621094 110.050781 85.996094 109.964844 85.996094 109.828125 C 85.996094 109.691406 85.824219 109.609375 85.464844 109.574219 Z M 85.464844 109.574219 "/>
<path style=" stroke:none;fill-rule:nonzero;fill:rgb(24.705882%,23.921569%,33.72549%);fill-opacity:1;" d="M 91.550781 109.5 C 91.957031 109.371094 92.003906 109.183594 91.714844 109.027344 L 87.402344 107.140625 C 87.296875 107.089844 87.1875 107.046875 87.074219 107.011719 C 86.003906 106.714844 84.835938 106.714844 83.761719 107.011719 C 83.722656 107.023438 83.6875 107.035156 83.652344 107.046875 C 82.839844 107.339844 82.886719 107.800781 83.761719 108.074219 C 83.921875 108.121094 84.085938 108.160156 84.253906 108.191406 L 89.964844 109.523438 C 90.484375 109.648438 91.039062 109.636719 91.550781 109.5 Z M 91.550781 109.5 "/>
<path style=" stroke:none;fill-rule:nonzero;fill:rgb(97.647059%,65.882353%,14.509804%);fill-opacity:1;" d="M 108.144531 106.4375 C 108.144531 113.476562 103.175781 113.605469 97.046875 113.605469 C 90.917969 113.605469 80.855469 112.210938 85.949219 106.4375 C 91.320312 100.347656 100.539062 88.734375 97.046875 88.121094 C 97.046875 88.121094 108.144531 99.402344 108.144531 106.4375 Z M 108.144531 106.4375 "/>
<use xlink:href="#surface5" mask="url(#mask0)"/>
<path style=" stroke:none;fill-rule:nonzero;fill:rgb(90.196078%,90.196078%,90.196078%);fill-opacity:1;" d="M 182.996094 107.710938 L 198.132812 89.945312 L 183.027344 109.621094 L 183.058594 111.621094 C 181.953125 111.628906 180.859375 111.613281 179.777344 111.578125 L 180.527344 85.882812 L 180.507812 85.683594 L 180.535156 85.644531 L 180.605469 83.21875 L 164.03125 64.222656 L 180.585938 81.398438 L 180.644531 81.914062 L 181.210938 62.5 L 166.898438 42.804688 L 181.253906 59.089844 L 181.105469 18.867188 L 181.105469 18.734375 L 181.109375 18.863281 L 182.058594 50.566406 L 195.105469 37.6875 L 182.101562 53.296875 L 182.386719 70.660156 L 194.390625 53.714844 L 182.429688 73.214844 L 182.589844 82.871094 L 200.050781 59.261719 L 182.640625 86.238281 Z M 182.996094 107.710938 "/>
<path style=" stroke:none;fill-rule:nonzero;fill:rgb(90.196078%,90.196078%,90.196078%);fill-opacity:1;" d="M 20.441406 108.417969 L 35.574219 90.652344 L 20.472656 110.332031 L 20.503906 112.328125 C 19.398438 112.335938 18.304688 112.320312 17.222656 112.285156 L 17.972656 86.589844 L 17.949219 86.390625 L 17.980469 86.351562 L 18.050781 83.925781 L 1.476562 64.929688 L 18.03125 82.109375 L 18.089844 82.621094 L 18.65625 63.207031 L 4.339844 43.515625 L 18.699219 59.796875 L 18.546875 19.574219 L 18.546875 19.441406 L 18.550781 19.574219 L 19.503906 51.273438 L 32.550781 38.394531 L 19.546875 54.003906 L 19.832031 71.367188 L 31.835938 54.421875 L 19.875 73.921875 L 20.03125 83.578125 L 37.492188 59.96875 L 20.085938 86.945312 Z M 20.441406 108.417969 "/>
<path style=" stroke:none;fill-rule:nonzero;fill:rgb(90.196078%,90.196078%,90.196078%);fill-opacity:1;" d="M 119.851562 104.484375 L 137.621094 83.621094 L 119.886719 106.726562 L 119.921875 109.074219 C 118.625 109.082031 117.339844 109.066406 116.070312 109.023438 L 116.949219 78.851562 L 116.925781 78.617188 L 116.957031 78.570312 L 117.042969 75.722656 L 97.582031 53.417969 L 117.019531 73.585938 L 117.089844 74.1875 L 117.753906 51.390625 L 100.945312 28.269531 L 117.800781 47.386719 L 117.625 0.15625 L 117.628906 0 L 117.632812 0.15625 L 118.75 37.378906 L 134.070312 22.257812 L 118.796875 40.585938 L 119.132812 60.976562 L 133.230469 41.074219 L 119.183594 63.972656 L 119.371094 75.3125 L 139.875 47.589844 L 119.433594 79.269531 Z M 119.851562 104.484375 "/>
<path style=" stroke:none;fill-rule:nonzero;fill:rgb(100%,72.54902%,72.54902%);fill-opacity:1;" d="M 75.320312 78.097656 C 74.128906 78.140625 73.105469 77.4375 73 76.496094 L 72.667969 73.480469 L 75.515625 72.664062 L 77.234375 75.609375 C 77.546875 76.140625 77.5 76.753906 77.117188 77.253906 C 76.734375 77.753906 76.0625 78.070312 75.320312 78.097656 Z M 75.320312 78.097656 "/>
<path style=" stroke:none;fill-rule:nonzero;fill:rgb(100%,72.54902%,72.54902%);fill-opacity:1;" d="M 67.234375 38.566406 C 67.234375 40.933594 64.804688 42.855469 61.804688 42.855469 C 58.804688 42.855469 56.371094 40.933594 56.371094 38.566406 C 56.371094 36.199219 58.804688 34.277344 61.804688 34.277344 C 64.804688 34.277344 67.234375 36.199219 67.234375 38.566406 Z M 67.234375 38.566406 "/>
<path style=" stroke:none;fill-rule:nonzero;fill:rgb(100%,72.54902%,72.54902%);fill-opacity:1;" d="M 63.355469 48.164062 L 54.042969 46.324219 C 56.0625 43.933594 57.347656 41.703125 57.148438 39.789062 L 63.097656 39.789062 C 62.726562 42.890625 62.726562 45.738281 63.355469 48.164062 Z M 63.355469 48.164062 "/>
<path style=" stroke:none;fill-rule:nonzero;fill:rgb(42.352941%,38.823529%,100%);fill-opacity:1;" d="M 66.460938 74.09375 L 52.230469 74.09375 C 49.257812 62.28125 50.015625 52.195312 55.078125 44.28125 C 55.226562 44 55.308594 43.695312 55.316406 43.386719 C 55.339844 43.164062 55.503906 42.964844 55.75 42.859375 C 55.996094 42.75 56.296875 42.746094 56.546875 42.851562 C 58.65625 43.714844 60.90625 44.355469 63.230469 44.753906 C 63.492188 44.800781 63.714844 44.941406 63.824219 45.136719 C 63.933594 45.332031 63.914062 45.558594 63.777344 45.742188 C 63.621094 45.910156 63.5625 46.121094 63.613281 46.324219 C 66.996094 55.324219 67.964844 64.78125 66.460938 74.09375 Z M 66.460938 74.09375 "/>
<path style=" stroke:none;fill-rule:nonzero;fill:rgb(18.431373%,18.039216%,25.490196%);fill-opacity:1;" d="M 64.90625 108.398438 L 60.769531 108.804688 L 58.183594 79.8125 L 49.386719 107.988281 L 44.988281 108.195312 L 49.386719 72.050781 L 67.234375 72.050781 Z M 64.90625 108.398438 "/>
<path style=" stroke:none;fill-rule:nonzero;fill:rgb(18.431373%,18.039216%,25.490196%);fill-opacity:1;" d="M 49.835938 114.726562 L 46.785156 114.945312 C 44.722656 114.457031 45.136719 112.636719 44.800781 110.550781 L 45.265625 107.617188 L 45.914062 107.511719 C 46.871094 105.980469 47.960938 105.832031 49.207031 107.304688 L 49.570312 107.253906 L 50.03125 109.632812 L 51.304688 113.015625 C 51.445312 113.402344 51.367188 113.816406 51.082031 114.144531 C 50.796875 114.476562 50.339844 114.6875 49.835938 114.726562 Z M 49.835938 114.726562 "/>
<path style=" stroke:none;fill-rule:nonzero;fill:rgb(18.431373%,18.039216%,25.490196%);fill-opacity:1;" d="M 65.355469 114.726562 L 62.304688 114.945312 C 60.242188 114.457031 60.65625 112.636719 60.324219 110.550781 L 60.789062 107.617188 L 61.4375 107.511719 C 62.390625 105.980469 63.480469 105.832031 64.726562 107.304688 L 65.089844 107.253906 L 65.554688 109.632812 L 66.824219 113.015625 C 66.96875 113.402344 66.886719 113.816406 66.601562 114.144531 C 66.316406 114.476562 65.859375 114.6875 65.355469 114.726562 Z M 65.355469 114.726562 "/>
<path style=" stroke:none;fill-rule:nonzero;fill:rgb(18.431373%,18.039216%,25.490196%);fill-opacity:1;" d="M 66.421875 38.195312 L 63.992188 36.949219 C 63.210938 36.550781 62.246094 36.453125 61.367188 36.691406 C 60.488281 36.925781 59.792969 37.464844 59.480469 38.15625 L 58.050781 41.320312 L 57.019531 40.914062 C 55.1875 38.417969 54.324219 36.046875 57.277344 34.175781 C 58.070312 32.65625 60.871094 32.101562 62.949219 32.207031 C 65.503906 32.339844 68.140625 33.992188 68.140625 36.011719 L 67.800781 37.480469 C 67.859375 37.757812 67.707031 38.039062 67.40625 38.191406 C 67.109375 38.347656 66.71875 38.347656 66.421875 38.195312 Z M 66.421875 38.195312 "/>
<path style=" stroke:none;fill-rule:nonzero;fill:rgb(18.431373%,18.039216%,25.490196%);fill-opacity:1;" d="M 59.476562 82.875 L 42.660156 80.425781 C 47.371094 69.003906 49.359375 57.855469 46.570312 47.191406 C 46.289062 46.136719 47.125 45.101562 48.453125 44.855469 L 53.785156 43.875 L 56.628906 42.242188 L 59.476562 45.304688 Z M 59.476562 82.875 "/>
<path style=" stroke:none;fill-rule:nonzero;fill:rgb(18.431373%,18.039216%,25.490196%);fill-opacity:1;" d="M 69.046875 82.058594 L 63.875 83.078125 C 65.15625 71.96875 64.066406 59.621094 61.546875 46.527344 L 62.839844 44.28125 L 64.003906 44.996094 L 68.179688 48.589844 C 68.882812 48.960938 69.300781 49.585938 69.296875 50.25 Z M 69.046875 82.058594 "/>
<path style=" stroke:none;fill-rule:nonzero;fill:rgb(18.431373%,18.039216%,25.490196%);fill-opacity:1;" d="M 76.03125 72.867188 L 71.890625 74.503906 L 64.390625 60.210938 L 68.269531 51.835938 Z M 76.03125 72.867188 "/>
<path style=" stroke:none;fill-rule:nonzero;fill:rgb(100%,72.54902%,72.54902%);fill-opacity:1;" d="M 51.9375 70.1875 C 50.886719 70.632812 49.574219 70.34375 48.972656 69.53125 L 47.03125 66.917969 L 49.15625 65.21875 L 52.3125 67.292969 C 52.882812 67.667969 53.175781 68.238281 53.101562 68.820312 C 53.027344 69.402344 52.589844 69.914062 51.9375 70.1875 Z M 51.9375 70.1875 "/>
<path style=" stroke:none;fill-rule:nonzero;fill:rgb(18.431373%,18.039216%,25.490196%);fill-opacity:1;" d="M 49.386719 64.703125 L 47.574219 68.988281 C 42.65625 66.601562 39.203125 63.351562 38.003906 58.78125 L 42.582031 48.414062 C 43.421875 46.507812 45.558594 45.144531 48.09375 44.894531 L 48.609375 54.695312 L 44.988281 59.597656 Z M 49.386719 64.703125 "/>
<path style=" stroke:none;fill-rule:nonzero;fill:rgb(100%,72.54902%,72.54902%);fill-opacity:1;" d="M 60.390625 36.894531 C 60.0625 36.785156 59.617188 37.035156 59.394531 37.449219 C 59.175781 37.867188 59.265625 38.292969 59.59375 38.398438 C 59.921875 38.507812 60.367188 38.261719 60.589844 37.84375 C 60.808594 37.429688 60.722656 37.003906 60.390625 36.894531 Z M 60.390625 36.894531 "/>
<path style=" stroke:none;fill-rule:nonzero;fill:rgb(18.431373%,18.039216%,25.490196%);fill-opacity:1;" d="M 149.003906 40.230469 C 149.003906 40.230469 146.222656 39.445312 144.4375 42.582031 C 142.648438 45.71875 139.867188 49.167969 139.867188 49.167969 L 141.457031 49.480469 C 141.457031 49.480469 141.855469 47.285156 142.847656 46.972656 L 142.449219 49.792969 C 142.449219 49.792969 154.367188 53.085938 159.730469 49.480469 L 159.53125 48.382812 C 159.53125 48.382812 160.328125 48.539062 160.328125 49.480469 L 160.921875 49.011719 C 160.921875 49.011719 160.328125 48.070312 158.539062 46.816406 C 157.367188 45.992188 156.960938 44.425781 156.824219 43.445312 C 156.71875 42.628906 156.304688 41.855469 155.632812 41.226562 C 154.445312 40.140625 152.28125 38.984375 149.003906 40.230469 Z M 149.003906 40.230469 "/>
<path style=" stroke:none;fill-rule:nonzero;fill:rgb(98.431373%,74.509804%,74.509804%);fill-opacity:1;" d="M 132.671875 67.128906 L 135.273438 69.742188 L 136.929688 68.25 L 135.511719 66.382812 Z M 132.671875 67.128906 "/>
<path style=" stroke:none;fill-rule:nonzero;fill:rgb(98.431373%,74.509804%,74.509804%);fill-opacity:1;" d="M 131.726562 107.246094 L 130.78125 111.164062 L 133.144531 112.097656 L 134.800781 111.164062 L 134.800781 107.246094 Z M 131.726562 107.246094 "/>
<path style=" stroke:none;fill-rule:nonzero;fill:rgb(98.431373%,74.509804%,74.509804%);fill-opacity:1;" d="M 148.273438 107.246094 L 149.222656 111.164062 L 146.855469 112.097656 L 145.203125 111.164062 L 145.203125 107.246094 Z M 148.273438 107.246094 "/>
<path style=" stroke:none;fill-rule:nonzero;fill:rgb(18.431373%,18.039216%,25.490196%);fill-opacity:1;" d="M 138.582031 71.980469 L 135.273438 90.640625 L 130.546875 107.621094 L 136.21875 108.179688 L 140.710938 92.320312 L 146.382812 78.882812 L 145.675781 94.929688 L 144.492188 108.179688 L 148.746094 108.179688 L 151.820312 90.265625 L 155.21875 76.949219 L 155.128906 71.980469 Z M 138.582031 71.980469 "/>
<path style=" stroke:none;fill-rule:nonzero;fill:rgb(18.431373%,18.039216%,25.490196%);fill-opacity:1;" d="M 132.4375 110.792969 C 132.4375 110.792969 131.253906 109.671875 130.546875 110.230469 C 129.835938 110.792969 128.183594 113.03125 128.183594 113.03125 C 128.183594 113.03125 124.398438 114.710938 127.472656 115.082031 C 130.546875 115.457031 131.492188 115.082031 131.492188 114.894531 C 131.492188 114.710938 131.964844 114.148438 131.964844 114.148438 L 133.144531 114.335938 L 134.800781 113.964844 C 134.800781 113.964844 135.511719 110.523438 134.800781 110.660156 C 134.089844 110.792969 132.671875 111.351562 132.4375 110.792969 Z M 132.4375 110.792969 "/>
<path style=" stroke:none;fill-rule:nonzero;fill:rgb(18.431373%,18.039216%,25.490196%);fill-opacity:1;" d="M 147.566406 110.792969 C 147.566406 110.792969 148.746094 109.671875 149.457031 110.230469 C 150.167969 110.792969 151.820312 113.03125 151.820312 113.03125 C 151.820312 113.03125 155.601562 114.710938 152.53125 115.082031 C 149.457031 115.457031 148.511719 115.082031 148.511719 114.894531 C 148.511719 114.710938 148.039062 114.148438 148.039062 114.148438 L 146.855469 114.335938 L 145.203125 113.964844 C 145.203125 113.964844 144.492188 110.523438 145.203125 110.660156 C 145.910156 110.792969 147.328125 111.351562 147.566406 110.792969 Z M 147.566406 110.792969 "/>
<path style=" stroke:none;fill-rule:nonzero;fill:rgb(98.431373%,74.509804%,74.509804%);fill-opacity:1;" d="M 154.539062 46.136719 C 154.539062 48.199219 152.421875 49.871094 149.8125 49.871094 C 147.199219 49.871094 145.082031 48.199219 145.082031 46.136719 C 145.082031 44.078125 147.199219 42.40625 149.8125 42.40625 C 152.421875 42.40625 154.539062 44.078125 154.539062 46.136719 Z M 154.539062 46.136719 "/>
<path style=" stroke:none;fill-rule:nonzero;fill:rgb(98.431373%,74.509804%,74.509804%);fill-opacity:1;" d="M 153.003906 48.46875 C 153.003906 48.46875 152.53125 51.640625 152.765625 52.386719 C 153.003906 53.136719 153.476562 54.253906 153.476562 54.253906 L 145.910156 53.136719 C 145.910156 53.136719 148.039062 49.589844 147.566406 49.03125 C 147.09375 48.46875 153.003906 48.46875 153.003906 48.46875 Z M 153.003906 48.46875 "/>
<path style=" stroke:none;fill-rule:nonzero;fill:rgb(42.352941%,38.823529%,100%);fill-opacity:1;" d="M 153.710938 52.949219 L 145.910156 51.640625 L 141.417969 73.285156 C 143.445312 72.851562 145.589844 72.914062 147.566406 73.472656 C 150.875 74.40625 155.367188 73.472656 155.367188 73.472656 L 154.421875 53.136719 Z M 153.710938 52.949219 "/>
<path style=" stroke:none;fill-rule:nonzero;fill:rgb(18.431373%,18.039216%,25.490196%);fill-opacity:1;" d="M 147.5 49.929688 L 144.730469 51.082031 L 141.183594 51.640625 L 137.402344 58.734375 L 137.875 63.769531 C 137.875 63.769531 133.855469 69.554688 133.382812 72.726562 C 133.382812 72.726562 133.855469 77.578125 141.65625 77.390625 L 146.855469 66.007812 C 146.855469 66.007812 148.984375 57.425781 146.855469 55 C 146.855469 55 148.378906 50.453125 147.5 49.929688 Z M 147.5 49.929688 "/>
<path style=" stroke:none;fill-rule:nonzero;fill:rgb(18.431373%,18.039216%,25.490196%);fill-opacity:1;" d="M 142.601562 51.640625 L 141.835938 51.539062 L 141.183594 51.640625 C 141.183594 51.640625 139.527344 51.828125 137.636719 53.136719 C 135.746094 54.441406 129.363281 58.546875 128.890625 59.664062 C 128.417969 60.785156 128.65625 62.652344 129.363281 63.769531 C 130.074219 64.890625 131.492188 66.382812 131.492188 66.382812 L 132.199219 67.6875 L 136.21875 66.757812 C 136.21875 66.757812 133.617188 62.835938 133.855469 61.160156 L 138.582031 58.171875 Z M 142.601562 51.640625 "/>
<path style=" stroke:none;fill-rule:nonzero;fill:rgb(18.431373%,18.039216%,25.490196%);fill-opacity:1;" d="M 152.742188 50.773438 L 156.3125 54.253906 L 158.203125 56.121094 L 155.839844 62.464844 L 154.65625 67.875 C 154.65625 67.875 157.496094 76.457031 155.128906 79.070312 C 155.128906 79.070312 153.710938 80.378906 153.238281 78.882812 C 152.765625 77.390625 152.765625 70.300781 152.765625 70.300781 C 152.765625 70.300781 150.875 60.972656 151.820312 58.546875 C 152.765625 56.121094 151.769531 51.207031 152.742188 50.773438 Z M 152.742188 50.773438 "/>
<path style=" stroke:none;fill-rule:nonzero;fill:rgb(98.431373%,74.509804%,74.509804%);fill-opacity:1;" d="M 156.078125 77.765625 L 156.078125 79.628906 C 156.078125 79.628906 155.601562 85.789062 157.96875 85.042969 C 160.332031 84.296875 158.675781 79.628906 158.675781 79.628906 L 158.441406 77.578125 Z M 156.078125 77.765625 "/>
<path style=" stroke:none;fill-rule:nonzero;fill:rgb(18.431373%,18.039216%,25.490196%);fill-opacity:1;" d="M 144.542969 46.335938 C 146.339844 45.308594 147.796875 44.125 148.757812 42.71875 C 148.757812 42.71875 152.058594 45.613281 154.074219 45.757812 C 156.089844 45.902344 154.257812 42.285156 154.257812 42.285156 L 150.589844 41.5625 L 147.109375 41.851562 L 144.359375 43.296875 Z M 144.542969 46.335938 "/>
<path style=" stroke:none;fill-rule:nonzero;fill:rgb(18.431373%,18.039216%,25.490196%);fill-opacity:1;" d="M 156.3125 55.558594 L 158.203125 56.121094 L 158.441406 57.984375 L 159.386719 69.367188 L 158.914062 77.953125 L 155.367188 78.136719 L 154.183594 68.621094 L 153.710938 58.171875 Z M 156.3125 55.558594 "/>
</g>
</svg>
