<?xml version="1.0" encoding="UTF-8"?>
<svg xmlns="http://www.w3.org/2000/svg" xmlns:xlink="http://www.w3.org/1999/xlink" width="200px" height="123px" viewBox="0 0 200 123" version="1.1">
<defs>
<filter id="alpha" filterUnits="objectBoundingBox" x="0%" y="0%" width="100%" height="100%">
  <feColorMatrix type="matrix" in="SourceGraphic" values="0 0 0 0 1 0 0 0 0 1 0 0 0 0 1 0 0 0 1 0"/>
</filter>
<mask id="mask0">
  <g filter="url(#alpha)">
<rect x="0" y="0" width="200" height="123" style="fill:rgb(0%,0%,0%);fill-opacity:0.2;stroke:none;"/>
  </g>
</mask>
<clipPath id="clip1">
  <rect x="0" y="0" width="200" height="123"/>
</clipPath>
<g id="surface5" clip-path="url(#clip1)">
<path style=" stroke:none;fill-rule:nonzero;fill:rgb(0%,0%,0%);fill-opacity:1;" d="M 145.992188 47.191406 L 146.871094 51.742188 L 140.941406 53.78125 Z M 145.992188 47.191406 "/>
</g>
<mask id="mask1">
  <g filter="url(#alpha)">
<rect x="0" y="0" width="200" height="123" style="fill:rgb(0%,0%,0%);fill-opacity:0.2;stroke:none;"/>
  </g>
</mask>
<clipPath id="clip2">
  <rect x="0" y="0" width="200" height="123"/>
</clipPath>
<g id="surface8" clip-path="url(#clip2)">
<path style=" stroke:none;fill-rule:nonzero;fill:rgb(0%,0%,0%);fill-opacity:1;" d="M 149.746094 55.945312 C 146.570312 59.007812 141.304688 59.894531 136.949219 58.097656 L 135.683594 57.578125 Z M 149.746094 55.945312 "/>
</g>
<mask id="mask2">
  <g filter="url(#alpha)">
<rect x="0" y="0" width="200" height="123" style="fill:rgb(0%,0%,0%);fill-opacity:0.2;stroke:none;"/>
  </g>
</mask>
<clipPath id="clip3">
  <rect x="0" y="0" width="200" height="123"/>
</clipPath>
<g id="surface11" clip-path="url(#clip3)">
<path style=" stroke:none;fill-rule:nonzero;fill:rgb(0%,0%,0%);fill-opacity:1;" d="M 106.933594 15.898438 C 107.355469 16.410156 107.796875 16.90625 108.261719 17.390625 C 108.621094 16.847656 109.058594 16.339844 109.558594 15.878906 C 111.328125 14.261719 113.695312 13.203125 115.992188 12.144531 C 118.289062 11.085938 120.621094 9.949219 122.246094 8.230469 C 122.972656 7.457031 123.496094 6.5625 123.777344 5.605469 C 118.609375 6.203125 113.863281 8.296875 110.375 11.523438 C 108.976562 12.835938 107.820312 14.308594 106.933594 15.898438 Z M 106.933594 15.898438 "/>
</g>
</defs>
<g id="surface1">
<path style=" stroke:none;fill-rule:nonzero;fill:rgb(61.960784%,38.039216%,41.568627%);fill-opacity:1;" d="M 40.953125 120.253906 L 44.039062 120.253906 L 45.507812 110.34375 L 40.953125 110.34375 Z M 40.953125 120.253906 "/>
<path style=" stroke:none;fill-rule:nonzero;fill:rgb(18.431373%,18.039216%,25.490196%);fill-opacity:1;" d="M 40.167969 119.417969 L 41.035156 119.417969 L 44.425781 118.269531 L 46.246094 119.417969 C 48.382812 119.417969 50.117188 120.859375 50.117188 122.640625 L 50.117188 122.746094 L 40.167969 122.746094 Z M 40.167969 119.417969 "/>
<path style=" stroke:none;fill-rule:nonzero;fill:rgb(61.960784%,38.039216%,41.568627%);fill-opacity:1;" d="M 55.292969 120.253906 L 58.378906 120.253906 L 59.847656 110.34375 L 55.292969 110.34375 Z M 55.292969 120.253906 "/>
<path style=" stroke:none;fill-rule:nonzero;fill:rgb(18.431373%,18.039216%,25.490196%);fill-opacity:1;" d="M 54.503906 119.417969 L 55.375 119.417969 L 58.765625 118.269531 L 60.585938 119.417969 C 62.722656 119.417969 64.457031 120.859375 64.457031 122.640625 L 64.457031 122.746094 L 54.507812 122.746094 Z M 54.503906 119.417969 "/>
<path style=" stroke:none;fill-rule:nonzero;fill:rgb(18.431373%,18.039216%,25.490196%);fill-opacity:1;" d="M 57.761719 66.011719 L 33.507812 66.539062 L 33.929688 76.371094 C 33.929688 76.371094 33.507812 79.003906 34.351562 79.707031 C 35.195312 80.410156 35.617188 80.410156 35.195312 81.636719 C 34.773438 82.867188 37.003906 84.875 36.734375 85.101562 C 36.460938 85.324219 35.828125 86.554688 35.828125 86.554688 L 37.9375 96.5625 C 37.9375 96.5625 39.414062 113.941406 39.835938 114.292969 C 40.257812 114.644531 40.679688 114.292969 40.257812 115.171875 C 39.835938 116.050781 39.414062 115.699219 39.835938 116.050781 C 40.210938 116.382812 40.5625 116.734375 40.890625 117.101562 L 45.988281 117.101562 C 45.988281 117.101562 46.375 115.347656 46.375 115.171875 C 46.375 114.996094 46.792969 113.941406 46.792969 113.765625 C 46.792969 113.589844 46.421875 113.28125 46.421875 113.28125 C 46.292969 112.925781 46.207031 112.558594 46.164062 112.1875 C 46.164062 111.835938 44.898438 98.316406 44.898438 98.316406 L 47.425781 80.761719 L 53.542969 97.964844 C 53.542969 97.964844 53.542969 113.066406 53.964844 113.414062 C 54.386719 113.765625 54.386719 113.589844 54.175781 114.292969 C 53.964844 114.996094 53.121094 114.820312 53.753906 115.347656 C 54.386719 115.875 54.597656 114.996094 54.386719 115.875 L 54.175781 116.75 L 60.5 116.828125 C 60.5 116.828125 61.34375 115.347656 60.921875 114.820312 C 60.5 114.292969 60.527344 114.4375 61.042969 113.574219 C 61.554688 112.714844 61.765625 112.539062 61.554688 112.363281 C 61.34375 112.1875 61.34375 111.253906 61.34375 111.253906 L 60.289062 94.453125 C 60.289062 94.453125 60.078125 76.722656 60.078125 76.195312 C 60.0625 75.925781 60.125 75.652344 60.253906 75.40625 L 60.253906 74.691406 L 59.449219 72.15625 Z M 57.761719 66.011719 "/>
<path style=" stroke:none;fill-rule:nonzero;fill:rgb(61.960784%,38.039216%,41.568627%);fill-opacity:1;" d="M 85.203125 27.722656 C 84.96875 28.265625 84.453125 28.699219 83.800781 28.898438 C 83.144531 29.097656 82.417969 29.046875 81.816406 28.757812 L 71.289062 36.097656 L 70.714844 32.511719 L 81.011719 25.949219 C 81.679688 25.117188 82.984375 24.832031 84.054688 25.285156 C 85.125 25.738281 85.617188 26.785156 85.203125 27.722656 Z M 85.203125 27.722656 "/>
<path style=" stroke:none;fill-rule:nonzero;fill:rgb(61.960784%,38.039216%,41.568627%);fill-opacity:1;" d="M 45.324219 25.308594 C 45.324219 28.316406 42.398438 30.75 38.789062 30.75 C 35.175781 30.75 32.25 28.316406 32.25 25.308594 C 32.25 22.304688 35.175781 19.867188 38.789062 19.867188 C 42.398438 19.867188 45.324219 22.304688 45.324219 25.308594 Z M 45.324219 25.308594 "/>
<path style=" stroke:none;fill-rule:nonzero;fill:rgb(18.431373%,18.039216%,25.490196%);fill-opacity:1;" d="M 44.085938 19.894531 C 43.480469 18.683594 40.871094 17.96875 36.742188 18.074219 C 32.617188 18.183594 31.894531 22.28125 31.894531 22.28125 C 29.621094 24.046875 33.289062 29.554688 33.925781 28.792969 C 34.5625 28.035156 35.632812 28.753906 35.632812 28.753906 L 34.613281 23.980469 C 35.691406 24.324219 36.847656 24.558594 37.859375 24.15625 L 36.183594 23.410156 C 37.570312 23.554688 38.960938 23.695312 40.351562 23.839844 L 38.632812 22.738281 C 38.671875 22.730469 38.714844 22.714844 38.757812 22.703125 C 39.445312 22.953125 40.183594 23.09375 40.933594 23.117188 C 41.8125 23.109375 42.742188 22.769531 43.109375 22.105469 C 43.207031 21.925781 43.261719 21.726562 43.265625 21.527344 C 44.472656 21.855469 45.109375 23.035156 45.109375 23.035156 C 44.878906 21.964844 44.539062 20.914062 44.085938 19.894531 Z M 44.085938 19.894531 "/>
<path style=" stroke:none;fill-rule:nonzero;fill:rgb(42.352941%,38.823529%,100%);fill-opacity:1;" d="M 44.019531 30.996094 C 42.558594 30.996094 41.621094 31.164062 39.347656 31.480469 C 35.15625 32.070312 37.667969 35.386719 37.667969 35.386719 C 37.667969 35.386719 37.855469 35.304688 37.34375 35.386719 C 36.828125 35.464844 35.078125 36.726562 35.078125 36.726562 L 31.945312 39.042969 C 27.222656 42.128906 28.28125 46.941406 28.28125 46.941406 L 35.164062 52.710938 L 32.148438 64.285156 C 32.148438 64.285156 33.429688 66.003906 32.769531 66.773438 C 32.105469 67.542969 38.605469 67.324219 38.605469 67.324219 C 43.09375 68.988281 58.90625 67.582031 58.90625 67.582031 C 58.6875 67.105469 56.570312 63.410156 56.570312 63.410156 C 57.488281 62.089844 56.613281 60.179688 56.613281 60.179688 C 56.613281 60.179688 55.699219 51.140625 55.117188 49.890625 C 54.53125 48.640625 56.609375 41.871094 57.976562 41.945312 C 59.34375 42.015625 68.167969 38.269531 68.167969 38.269531 C 68.167969 38.269531 67.949219 37.976562 70.859375 36.984375 C 72.535156 36.4375 74.070312 35.628906 75.382812 34.609375 L 76.582031 32.617188 C 76.003906 32.800781 74.0625 29.753906 74.0625 29.753906 L 73.21875 30.023438 L 72.726562 29.90625 C 72.726562 29.90625 68.898438 30.8125 68.117188 31.472656 C 67.335938 32.132812 67.070312 31.949219 66.363281 32.097656 C 65.660156 32.246094 65.570312 32.660156 65.347656 32.613281 C 65.125 32.566406 64.734375 33.125 64.421875 33.050781 C 64.113281 32.980469 63.449219 33.273438 63.011719 33.347656 C 62.570312 33.417969 59.4375 34.523438 59.4375 34.523438 C 57.496094 33.707031 52.242188 34.039062 52.242188 34.039062 C 52.242188 34.039062 50.523438 33.195312 50.035156 34.039062 C 49.765625 34.527344 49.183594 34.84375 48.539062 34.847656 L 46.441406 34.101562 C 46.320312 34.46875 44.03125 30.609375 44.019531 30.996094 Z M 44.019531 30.996094 "/>
<path style=" stroke:none;fill-rule:nonzero;fill:rgb(61.960784%,38.039216%,41.568627%);fill-opacity:1;" d="M 34.011719 76.289062 C 33.546875 75.855469 33.339844 75.273438 33.441406 74.699219 C 33.542969 74.125 33.945312 73.617188 34.539062 73.316406 L 31.566406 63.59375 L 35.628906 64.890625 L 37.882812 74.070312 C 38.445312 74.953125 38.121094 76.046875 37.132812 76.613281 C 36.144531 77.179688 34.804688 77.039062 34.011719 76.289062 Z M 34.011719 76.289062 "/>
<path style=" stroke:none;fill-rule:nonzero;fill:rgb(42.352941%,38.823529%,100%);fill-opacity:1;" d="M 28.546875 45.09375 L 28.179688 48.976562 C 28.179688 48.976562 27.722656 53.238281 27.84375 54.027344 C 27.960938 54.816406 28.183594 59.632812 28.183594 59.632812 L 32.050781 66 L 36.429688 65.027344 L 36.167969 62.039062 L 36.429688 64.785156 L 37.011719 62.351562 L 35.554688 58.21875 L 36.429688 56.761719 L 35.988281 51.867188 Z M 28.546875 45.09375 "/>
<path style=" stroke:none;fill-rule:nonzero;fill:rgb(18.431373%,18.039216%,25.490196%);fill-opacity:1;" d="M 132.238281 36.023438 L 133.683594 36.28125 C 133.691406 35.777344 133.765625 35.273438 133.90625 34.785156 C 134.039062 35.386719 134.316406 35.957031 134.722656 36.464844 L 143.015625 37.9375 L 150.976562 30.945312 C 150.988281 27.445312 148.65625 24.789062 144.472656 24.789062 C 144.21875 24.789062 143.957031 24.796875 143.695312 24.820312 C 138.996094 24.164062 134.519531 26.722656 133.566406 30.605469 C 130.601562 33.039062 131.679688 34.464844 132.238281 36.023438 Z M 132.238281 36.023438 "/>
<path style=" stroke:none;fill-rule:nonzero;fill:rgb(100%,71.372549%,71.372549%);fill-opacity:1;" d="M 128.160156 117.828125 L 125.152344 117.828125 L 123.722656 108.167969 L 128.160156 108.167969 Z M 128.160156 117.828125 "/>
<path style=" stroke:none;fill-rule:nonzero;fill:rgb(18.431373%,18.039216%,25.490196%);fill-opacity:1;" d="M 129.503906 122.582031 L 127.371094 122.582031 L 126.988281 120.90625 L 126.015625 122.582031 L 120.351562 122.582031 C 119.796875 122.582031 119.304688 122.28125 119.136719 121.839844 C 118.972656 121.394531 119.171875 120.914062 119.628906 120.652344 L 124.152344 118.050781 L 124.152344 116.355469 L 128.90625 116.59375 Z M 129.503906 122.582031 "/>
<path style=" stroke:none;fill-rule:nonzero;fill:rgb(100%,71.372549%,71.372549%);fill-opacity:1;" d="M 163.398438 115.101562 L 160.785156 116.335938 L 153.8125 108.523438 L 157.675781 106.699219 Z M 163.398438 115.101562 "/>
<path style=" stroke:none;fill-rule:nonzero;fill:rgb(18.431373%,18.039216%,25.490196%);fill-opacity:1;" d="M 167.390625 118.683594 L 165.53125 119.5625 L 164.207031 118.257812 L 164.351562 120.121094 L 159.429688 122.445312 C 158.945312 122.675781 158.335938 122.613281 157.929688 122.296875 C 157.523438 121.980469 157.414062 121.480469 157.65625 121.0625 L 160.046875 116.945312 L 159.042969 115.46875 L 163.316406 113.722656 Z M 167.390625 118.683594 "/>
<path style=" stroke:none;fill-rule:nonzero;fill:rgb(100%,71.372549%,71.372549%);fill-opacity:1;" d="M 117.042969 37.714844 C 117.820312 37.808594 118.511719 38.183594 118.925781 38.742188 C 119.339844 39.300781 119.4375 39.984375 119.1875 40.609375 L 123.792969 43.925781 L 122.050781 46.746094 L 115.632812 41.984375 C 114.375 41.558594 113.699219 40.417969 114.058594 39.328125 C 114.417969 38.238281 115.699219 37.546875 117.042969 37.714844 Z M 117.042969 37.714844 "/>
<path style=" stroke:none;fill-rule:nonzero;fill:rgb(18.431373%,18.039216%,25.490196%);fill-opacity:1;" d="M 121.019531 48.039062 L 117.941406 43.960938 L 121.363281 41.046875 L 123.796875 43.507812 L 126.808594 44.628906 L 130.941406 46.722656 C 131.761719 45.917969 138.09375 39.863281 140.921875 41.605469 C 141.605469 41.996094 142.054688 42.617188 142.144531 43.304688 C 142.34375 44.925781 140.601562 46.574219 140.535156 46.636719 L 136.800781 50.828125 C 136.683594 51.089844 135.449219 53.804688 133.523438 54.535156 C 132.96875 54.757812 132.328125 54.773438 131.761719 54.585938 C 126.652344 52.925781 123.210938 51.058594 121.675781 49.121094 C 121.40625 48.785156 121.183594 48.417969 121.019531 48.039062 Z M 121.019531 48.039062 "/>
<path style=" stroke:none;fill-rule:nonzero;fill:rgb(18.431373%,18.039216%,25.490196%);fill-opacity:1;" d="M 132.410156 56.546875 C 132.410156 56.546875 123.566406 68.277344 125.167969 69.613281 C 126.773438 70.945312 129.265625 71.296875 129.265625 71.296875 L 134.785156 65.34375 Z M 132.410156 56.546875 "/>
<path style=" stroke:none;fill-rule:nonzero;fill:rgb(18.431373%,18.039216%,25.490196%);fill-opacity:1;" d="M 140.230469 40.53125 L 136.0625 42.878906 C 132.082031 45.121094 130.371094 49.289062 131.875 53.089844 L 133.046875 56.058594 Z M 140.230469 40.53125 "/>
<path style=" stroke:none;fill-rule:nonzero;fill:rgb(18.431373%,18.039216%,25.490196%);fill-opacity:1;" d="M 147.601562 72.546875 L 148.160156 74.164062 L 150.0625 93.652344 L 159.5625 108.394531 L 155.027344 111.089844 L 142.070312 97.066406 L 136.949219 83.144531 L 128.902344 113.964844 L 122.855469 113.605469 L 127.054688 70.871094 L 135.023438 58.84375 Z M 147.601562 72.546875 "/>
<path style=" stroke:none;fill-rule:nonzero;fill:rgb(42.352941%,38.823529%,100%);fill-opacity:1;" d="M 140.941406 41.121094 L 135.140625 45.066406 C 133.867188 45.933594 132.949219 47.109375 132.515625 48.429688 C 132.320312 49.03125 132.226562 49.648438 132.238281 50.269531 L 132.410156 58.84375 L 127.09375 70.679688 C 127.09375 70.679688 141.511719 75.214844 143.4375 71.210938 C 145.359375 67.210938 140.941406 41.121094 140.941406 41.121094 Z M 140.941406 41.121094 "/>
<path style=" stroke:none;fill-rule:nonzero;fill:rgb(18.431373%,18.039216%,25.490196%);fill-opacity:1;" d="M 132.859375 67.210938 L 131.898438 64.007812 L 132.132812 56.042969 C 132.152344 55.578125 135.117188 48.375 138.851562 40.722656 L 142.066406 38.046875 L 143.796875 37.109375 L 147.609375 40.039062 C 147.609375 40.039062 147.125 48.058594 147.28125 56.269531 C 147.324219 58.542969 146.847656 61.195312 146.640625 63.207031 L 148.394531 69.691406 L 148.394531 73.296875 L 148.277344 73.316406 C 148.164062 73.335938 146.410156 73.289062 139.207031 73.289062 C 133.234375 73.289062 137.210938 69.765625 132.859375 67.210938 Z M 132.859375 67.210938 "/>
<use xlink:href="#surface5" mask="url(#mask0)"/>
<path style=" stroke:none;fill-rule:nonzero;fill:rgb(100%,71.372549%,71.372549%);fill-opacity:1;" d="M 145.824219 31.421875 C 145.824219 34.089844 143.226562 36.253906 140.019531 36.253906 C 136.816406 36.253906 134.214844 34.089844 134.214844 31.421875 C 134.214844 28.753906 136.816406 26.589844 140.019531 26.589844 C 143.226562 26.589844 145.824219 28.753906 145.824219 31.421875 Z M 145.824219 31.421875 "/>
<use xlink:href="#surface8" mask="url(#mask1)"/>
<path style=" stroke:none;fill-rule:nonzero;fill:rgb(100%,71.372549%,71.372549%);fill-opacity:1;" d="M 129.546875 54.832031 C 130.070312 54.339844 130.832031 54.070312 131.617188 54.089844 C 132.40625 54.109375 133.144531 54.417969 133.632812 54.933594 L 139.492188 53.5625 L 141.359375 56.328125 L 133.050781 58.164062 C 131.929688 58.804688 130.414062 58.644531 129.519531 57.792969 C 128.628906 56.941406 128.640625 55.671875 129.546875 54.832031 Z M 129.546875 54.832031 "/>
<path style=" stroke:none;fill-rule:nonzero;fill:rgb(18.431373%,18.039216%,25.490196%);fill-opacity:1;" d="M 142.085938 57.757812 L 136.304688 57.648438 L 135.269531 53.664062 L 139.078125 53.332031 L 141.859375 51.855469 L 146.238281 50.140625 C 145.882812 49.125 143.304688 41.386719 146.609375 40.386719 C 147.378906 40.125 148.246094 40.15625 148.984375 40.46875 C 150.71875 41.226562 151.410156 43.347656 151.4375 43.425781 L 153.582031 48.332031 C 153.78125 48.554688 155.820312 50.910156 155.492188 52.652344 C 155.40625 53.15625 155.070312 53.613281 154.566406 53.902344 C 150.089844 56.535156 146.320312 57.898438 143.535156 57.898438 C 143.046875 57.898438 142.5625 57.851562 142.085938 57.757812 Z M 142.085938 57.757812 "/>
<path style=" stroke:none;fill-rule:nonzero;fill:rgb(18.431373%,18.039216%,25.490196%);fill-opacity:1;" d="M 133.058594 28.242188 C 133.523438 28.746094 135.125 29.191406 137.027344 29.550781 C 137.023438 29.515625 137.023438 29.484375 137.023438 29.453125 C 137.035156 28.949219 137.109375 28.445312 137.25 27.957031 C 137.378906 28.558594 137.65625 29.128906 138.0625 29.636719 C 138.09375 29.675781 138.125 29.710938 138.15625 29.75 C 139.789062 30.019531 141.511719 30.226562 142.867188 30.363281 C 141.9375 33.152344 138.371094 35.4375 138.757812 37.132812 L 149.199219 38.90625 C 149.132812 38.203125 149.203125 37.496094 149.398438 36.808594 C 149.597656 37.714844 150.125 38.546875 150.910156 39.199219 L 151.800781 39.351562 L 152.0625 38.265625 C 154.355469 33.683594 151.160156 28.996094 145.929688 26.570312 C 144.996094 25.40625 143.550781 24.597656 141.902344 24.320312 L 140.597656 24.097656 C 137.140625 23.507812 133.765625 25.363281 133.058594 28.242188 Z M 133.058594 28.242188 "/>
<path style=" stroke:none;fill-rule:nonzero;fill:rgb(94.901961%,94.901961%,94.901961%);fill-opacity:1;" d="M 4.988281 116.703125 L 4.847656 114.070312 C 3.382812 113.414062 1.746094 113.070312 0.0859375 113.0625 C 2.375 114.621094 2.085938 117.625 3.636719 119.71875 C 4.628906 121.035156 6.289062 121.90625 8.144531 122.082031 L 10.058594 123.058594 C 10.589844 120.589844 9.796875 118.050781 7.890625 116.113281 C 7.351562 115.578125 6.738281 115.105469 6.0625 114.699219 C 5.601562 115.707031 4.988281 116.703125 4.988281 116.703125 Z M 4.988281 116.703125 "/>
<path style=" stroke:none;fill-rule:nonzero;fill:rgb(79.215686%,79.215686%,79.215686%);fill-opacity:1;" d="M 0.347656 123.121094 L 199.582031 123.121094 C 199.773438 123.121094 199.929688 122.988281 199.929688 122.832031 C 199.929688 122.671875 199.773438 122.542969 199.582031 122.542969 L 0.347656 122.542969 C 0.15625 122.542969 0 122.671875 0 122.832031 C 0 122.988281 0.15625 123.121094 0.347656 123.121094 Z M 0.347656 123.121094 "/>
<path style=" stroke:none;fill-rule:nonzero;fill:rgb(24.705882%,23.921569%,33.72549%);fill-opacity:1;" d="M 108.433594 16.542969 C 109.15625 19.183594 109.496094 22.179688 107.570312 24.546875 C 106.753906 25.558594 105.550781 26.316406 104.15625 26.699219 C 102.746094 27.046875 101.253906 27.125 99.804688 26.921875 C 96.515625 26.542969 93.597656 25.117188 90.363281 24.5625 C 88.9375 24.320312 87.425781 24.238281 86.050781 24.710938 C 85.023438 25.0625 83.941406 25.769531 83.933594 26.777344 C 83.929688 27.816406 85.011719 28.503906 86.085938 28.824219 C 87.523438 29.25 89.015625 29.082031 90.503906 29.03125 C 92.105469 28.972656 93.742188 29.09375 95.074219 29.910156 C 96.21875 30.65625 97.097656 31.648438 97.613281 32.777344 C 98.285156 34.132812 98.554688 35.585938 98.984375 36.996094 C 99.367188 38.265625 99.910156 39.5 100.601562 40.675781 C 101.957031 42.976562 103.855469 45.03125 106.1875 46.707031 C 107.339844 47.53125 108.738281 48.371094 110.308594 48.445312 C 111.519531 48.503906 112.992188 48.082031 113.460938 47.058594 C 113.816406 46.148438 113.347656 45.15625 112.339844 44.695312 C 111.300781 44.257812 110.167969 44.878906 109.835938 45.734375 C 109.65625 46.132812 109.71875 46.578125 110 46.933594 C 110.316406 47.324219 109.558594 47.691406 109.246094 47.300781 C 108.519531 46.402344 108.898438 45.1875 109.789062 44.464844 C 110.683594 43.703125 112.121094 43.617188 113.144531 44.257812 C 114.195312 44.925781 114.671875 46.042969 114.355469 47.113281 C 113.984375 48.234375 112.660156 48.949219 111.335938 49.125 C 109.703125 49.34375 108.132812 48.808594 106.8125 48.035156 C 105.492188 47.242188 104.289062 46.316406 103.230469 45.28125 C 101.082031 43.226562 99.46875 40.820312 98.488281 38.21875 C 97.523438 35.648438 97.453125 32.25 94.589844 30.511719 C 93.113281 29.621094 91.308594 29.71875 89.578125 29.800781 C 88.054688 29.875 86.566406 29.859375 85.164062 29.285156 C 84.011719 28.808594 83.078125 27.933594 83.058594 26.816406 C 83.039062 25.691406 84 24.785156 85.132812 24.269531 C 88.125 22.914062 91.71875 24.007812 94.65625 24.914062 C 97.613281 25.824219 100.988281 26.894531 104.128906 25.9375 C 105.578125 25.46875 106.746094 24.539062 107.375 23.355469 C 108.136719 22.011719 108.246094 20.488281 108.070312 19.027344 C 107.964844 18.257812 107.804688 17.492188 107.585938 16.738281 C 107.460938 16.28125 108.308594 16.085938 108.433594 16.542969 Z M 108.433594 16.542969 "/>
<path style=" stroke:none;fill-rule:nonzero;fill:rgb(42.352941%,38.823529%,100%);fill-opacity:1;" d="M 103.0625 9.128906 C 103.929688 11.539062 105.234375 13.820312 106.933594 15.898438 C 107.355469 16.410156 107.796875 16.90625 108.261719 17.390625 C 108.621094 16.847656 109.058594 16.339844 109.558594 15.878906 C 111.328125 14.261719 113.695312 13.203125 115.992188 12.144531 C 118.289062 11.085938 120.621094 9.949219 122.246094 8.230469 C 122.972656 7.457031 123.496094 6.5625 123.777344 5.605469 C 124.144531 4.308594 124.003906 2.957031 123.09375 1.878906 C 121.777344 0.304688 119.144531 -0.25 116.910156 0.203125 C 114.667969 0.660156 112.792969 1.953125 111.339844 3.441406 C 111.816406 1.613281 109.5 -0.148438 107.261719 0.0117188 C 105.023438 0.171875 103.226562 1.800781 102.632812 3.605469 C 102.03125 5.40625 102.421875 7.335938 103.0625 9.128906 Z M 103.0625 9.128906 "/>
<use xlink:href="#surface11" mask="url(#mask2)"/>
</g>
</svg>
