<?xml version="1.0" encoding="UTF-8"?>
<svg xmlns="http://www.w3.org/2000/svg" xmlns:xlink="http://www.w3.org/1999/xlink" width="200px" height="123px" viewBox="0 0 200 123" version="1.1">
<defs>
<filter id="alpha" filterUnits="objectBoundingBox" x="0%" y="0%" width="100%" height="100%">
  <feColorMatrix type="matrix" in="SourceGraphic" values="0 0 0 0 1 0 0 0 0 1 0 0 0 0 1 0 0 0 1 0"/>
</filter>
<mask id="mask0">
  <g filter="url(#alpha)">
<rect x="0" y="0" width="200" height="123" style="fill:rgb(0%,0%,0%);fill-opacity:0.101961;stroke:none;"/>
  </g>
</mask>
<clipPath id="clip1">
  <rect x="0" y="0" width="200" height="124"/>
</clipPath>
<g id="surface5" clip-path="url(#clip1)">
<path style=" stroke:none;fill-rule:nonzero;fill:rgb(0%,0%,0%);fill-opacity:1;" d="M 45.980469 50.398438 L 48.582031 52.308594 L 49.183594 57.875 L 51.1875 63.765625 C 51.1875 63.765625 54.597656 69.332031 53.996094 70.445312 C 53.394531 71.5625 54.597656 71.878906 54.597656 71.878906 L 49.988281 73.3125 C 49.988281 73.3125 44.976562 68.855469 44.976562 67.902344 C 44.976562 66.945312 45.980469 50.398438 45.980469 50.398438 Z M 45.980469 50.398438 "/>
</g>
<mask id="mask1">
  <g filter="url(#alpha)">
<rect x="0" y="0" width="200" height="123" style="fill:rgb(0%,0%,0%);fill-opacity:0.101961;stroke:none;"/>
  </g>
</mask>
<clipPath id="clip2">
  <rect x="0" y="0" width="200" height="124"/>
</clipPath>
<g id="surface8" clip-path="url(#clip2)">
<path style=" stroke:none;fill-rule:nonzero;fill:rgb(0%,0%,0%);fill-opacity:1;" d="M 44.375 72.039062 L 45.777344 73.3125 C 45.777344 73.3125 74.835938 76.175781 75.4375 80.628906 C 76.039062 85.085938 80.246094 106.089844 77.84375 106.726562 C 75.4375 107.363281 69.226562 109.75 69.226562 108.476562 C 69.226562 107.203125 65.21875 89.699219 66.019531 86.519531 C 66.019531 86.519531 31.347656 83.015625 30.546875 79.039062 C 29.746094 75.0625 31.347656 73.3125 31.347656 73.3125 Z M 44.375 72.039062 "/>
</g>
<mask id="mask2">
  <g filter="url(#alpha)">
<rect x="0" y="0" width="200" height="123" style="fill:rgb(0%,0%,0%);fill-opacity:0.101961;stroke:none;"/>
  </g>
</mask>
<clipPath id="clip3">
  <rect x="0" y="0" width="200" height="124"/>
</clipPath>
<g id="surface11" clip-path="url(#clip3)">
<path style=" stroke:none;fill-rule:nonzero;fill:rgb(0%,0%,0%);fill-opacity:1;" d="M 41.269531 39.019531 C 40.933594 39.5625 40.703125 40.136719 40.578125 40.734375 C 39.582031 41.210938 38.914062 41.089844 37.660156 41.089844 C 35.804688 41.089844 35.054688 39.203125 33.855469 38.226562 C 33.761719 37.316406 32.152344 38.304688 32.152344 38.304688 C 32.152344 38.304688 43.472656 35.519531 41.269531 39.019531 Z M 41.269531 39.019531 "/>
</g>
<mask id="mask3">
  <g filter="url(#alpha)">
<rect x="0" y="0" width="200" height="123" style="fill:rgb(0%,0%,0%);fill-opacity:0.101961;stroke:none;"/>
  </g>
</mask>
<clipPath id="clip4">
  <rect x="0" y="0" width="200" height="124"/>
</clipPath>
<g id="surface14" clip-path="url(#clip4)">
<path style=" stroke:none;fill-rule:nonzero;fill:rgb(0%,0%,0%);fill-opacity:1;" d="M 36.652344 74.050781 C 36.695312 74.664062 34.625 76.039062 33.953125 76.972656 C 33.582031 77.488281 30.714844 76.808594 27.164062 75.546875 C 24.441406 74.578125 21.800781 73.46875 19.253906 72.230469 C 19.328125 70.203125 20.054688 68.03125 20.726562 67.265625 C 21.945312 65.882812 20.75 53.484375 21.195312 49.394531 L 21.195312 49.390625 C 21.304688 49.347656 21.414062 49.3125 21.53125 49.285156 L 23.933594 49.285156 C 32.152344 52.308594 22.730469 65.355469 22.730469 65.355469 C 22.730469 65.355469 35.15625 73.46875 36.359375 73.789062 C 36.523438 73.8125 36.640625 73.921875 36.652344 74.050781 Z M 36.652344 74.050781 "/>
</g>
<mask id="mask4">
  <g filter="url(#alpha)">
<rect x="0" y="0" width="200" height="123" style="fill:rgb(0%,0%,0%);fill-opacity:0.101961;stroke:none;"/>
  </g>
</mask>
<clipPath id="clip5">
  <rect x="0" y="0" width="200" height="124"/>
</clipPath>
<g id="surface17" clip-path="url(#clip5)">
<path style=" stroke:none;fill-rule:nonzero;fill:rgb(0%,0%,0%);fill-opacity:1;" d="M 141.875 76.324219 L 141.902344 76.816406 C 140.265625 76.855469 137.160156 77.632812 137.160156 77.632812 L 136.023438 77.429688 C 137.84375 76.714844 139.84375 76.335938 141.875 76.324219 Z M 141.875 76.324219 "/>
</g>
<mask id="mask5">
  <g filter="url(#alpha)">
<rect x="0" y="0" width="200" height="123" style="fill:rgb(0%,0%,0%);fill-opacity:0.101961;stroke:none;"/>
  </g>
</mask>
<clipPath id="clip6">
  <rect x="0" y="0" width="200" height="124"/>
</clipPath>
<g id="surface20" clip-path="url(#clip6)">
<path style=" stroke:none;fill-rule:nonzero;fill:rgb(100%,100%,100%);fill-opacity:1;" d="M 136.054688 77.414062 L 137.160156 77.632812 L 137.496094 78.246094 C 137.480469 78.261719 137.464844 78.273438 137.449219 78.289062 L 135.96875 78.035156 L 135.964844 77.453125 C 135.964844 77.453125 135.984375 77.445312 136.023438 77.429688 C 136.035156 77.425781 136.046875 77.417969 136.054688 77.414062 Z M 136.054688 77.414062 "/>
</g>
<mask id="mask6">
  <g filter="url(#alpha)">
<rect x="0" y="0" width="200" height="123" style="fill:rgb(0%,0%,0%);fill-opacity:0.101961;stroke:none;"/>
  </g>
</mask>
<clipPath id="clip7">
  <rect x="0" y="0" width="200" height="124"/>
</clipPath>
<g id="surface23" clip-path="url(#clip7)">
<path style=" stroke:none;fill-rule:nonzero;fill:rgb(0%,0%,0%);fill-opacity:1;" d="M 97.1875 78.394531 L 97.214844 78.886719 C 95.574219 78.925781 92.472656 79.703125 92.472656 79.703125 L 91.335938 79.496094 C 93.15625 78.78125 95.15625 78.40625 97.1875 78.394531 Z M 97.1875 78.394531 "/>
</g>
<mask id="mask7">
  <g filter="url(#alpha)">
<rect x="0" y="0" width="200" height="123" style="fill:rgb(0%,0%,0%);fill-opacity:0.101961;stroke:none;"/>
  </g>
</mask>
<clipPath id="clip8">
  <rect x="0" y="0" width="200" height="124"/>
</clipPath>
<g id="surface26" clip-path="url(#clip8)">
<path style=" stroke:none;fill-rule:nonzero;fill:rgb(100%,100%,100%);fill-opacity:1;" d="M 91.367188 79.484375 L 92.472656 79.703125 L 92.808594 80.316406 C 92.789062 80.328125 92.773438 80.34375 92.761719 80.359375 L 91.277344 80.101562 L 91.273438 79.523438 C 91.273438 79.523438 91.296875 79.511719 91.335938 79.496094 C 91.34375 79.492188 91.355469 79.488281 91.367188 79.484375 Z M 91.367188 79.484375 "/>
</g>
</defs>
<g id="surface1">
<path style=" stroke:none;fill-rule:nonzero;fill:rgb(24.705882%,23.921569%,33.72549%);fill-opacity:1;" d="M 88.863281 27.960938 C 80.628906 27.964844 72.453125 26.875 64.671875 24.734375 C 54.242188 21.871094 45.695312 17.921875 39.273438 12.996094 C 27.125 3.675781 17.164062 2.273438 10.949219 2.734375 C 4.222656 3.234375 0.304688 5.972656 0.269531 6 L 0 5.761719 C 0.0390625 5.734375 4.035156 2.9375 10.886719 2.417969 C 14.902344 2.117188 19.105469 2.644531 23.371094 3.988281 C 28.695312 5.660156 34.140625 8.613281 39.550781 12.765625 C 45.933594 17.660156 54.425781 21.585938 64.804688 24.433594 C 83.851562 29.664062 105.316406 28.398438 123.699219 20.960938 C 129.789062 18.5 135.804688 16.820312 141.582031 15.964844 C 148.867188 14.890625 155.773438 15.140625 162.117188 16.707031 C 176.054688 20.148438 185.574219 19.96875 191.105469 19.207031 C 197.074219 18.390625 199.785156 16.75 199.808594 16.734375 L 200.054688 16.984375 C 199.945312 17.054688 197.242188 18.691406 191.175781 19.523438 C 185.597656 20.289062 176.011719 20.472656 162 17.011719 C 147.808594 13.507812 133.4375 17.378906 123.882812 21.246094 C 114.796875 24.941406 104.875 27.164062 94.695312 27.78125 C 92.746094 27.902344 90.800781 27.960938 88.863281 27.960938 Z M 88.863281 27.960938 "/>
<path style=" stroke:none;fill-rule:nonzero;fill:rgb(42.352941%,38.823529%,100%);fill-opacity:1;" d="M 92.117188 28.683594 C 92.117188 30.464844 90.300781 31.910156 88.054688 31.910156 C 85.8125 31.910156 83.996094 30.464844 83.996094 28.683594 C 83.996094 26.902344 85.8125 25.460938 88.054688 25.460938 C 90.300781 25.460938 92.117188 26.902344 92.117188 28.683594 Z M 92.117188 28.683594 "/>
<path style=" stroke:none;fill-rule:nonzero;fill:rgb(42.352941%,38.823529%,100%);fill-opacity:1;" d="M 155.042969 15.796875 C 155.042969 17.578125 153.226562 19.019531 150.980469 19.019531 C 148.738281 19.019531 146.921875 17.578125 146.921875 15.796875 C 146.921875 14.015625 148.738281 12.570312 150.980469 12.570312 C 153.226562 12.570312 155.042969 14.015625 155.042969 15.796875 Z M 155.042969 15.796875 "/>
<path style=" stroke:none;fill-rule:nonzero;fill:rgb(42.352941%,38.823529%,100%);fill-opacity:1;" d="M 24.183594 3.226562 C 24.183594 5.007812 22.363281 6.449219 20.121094 6.449219 C 17.878906 6.449219 16.058594 5.007812 16.058594 3.226562 C 16.058594 1.445312 17.878906 0 20.121094 0 C 22.363281 0 24.183594 1.445312 24.183594 3.226562 Z M 24.183594 3.226562 "/>
<path style=" stroke:none;fill-rule:nonzero;fill:rgb(24.705882%,23.921569%,33.72549%);fill-opacity:1;" d="M 117.183594 77.089844 L 117.183594 108.25 L 123.355469 108.25 L 123.355469 79.835938 L 148.035156 79.835938 L 148.035156 108.25 L 154.207031 108.25 L 154.207031 45.929688 L 148.035156 45.929688 C 145.992188 45.929688 142.851562 54.386719 142.851562 62.882812 C 142.851562 69.285156 143.792969 74.777344 145.132812 77.089844 Z M 148.035156 77.089844 L 147.976562 77.089844 C 147.996094 77.054688 148.015625 77.019531 148.035156 76.984375 Z M 148.035156 77.089844 "/>
<path style=" stroke:none;fill-rule:nonzero;fill:rgb(18.431373%,18.039216%,25.490196%);fill-opacity:1;" d="M 140.050781 30.507812 C 134.984375 30.507812 130.878906 34.125 130.878906 38.589844 L 130.878906 44.257812 L 133.074219 44.257812 L 134.347656 42.160156 L 134.027344 44.257812 L 148.144531 44.257812 L 149.300781 42.347656 L 149.011719 44.257812 L 150.601562 44.257812 L 150.601562 39.808594 C 150.601562 34.671875 145.878906 30.507812 140.050781 30.507812 Z M 140.050781 30.507812 "/>
<path style=" stroke:none;fill-rule:nonzero;fill:rgb(18.431373%,18.039216%,25.490196%);fill-opacity:1;" d="M 129.539062 67.554688 L 123.910156 69.457031 L 104.34375 82.085938 C 103.625 82.789062 103.183594 83.644531 103.074219 84.542969 C 102.933594 85.996094 97.023438 93.597656 99.132812 94.605469 C 101.246094 95.609375 108.847656 98.628906 109.269531 96.617188 C 109.691406 94.605469 111.945312 85.996094 111.945312 85.996094 L 130.808594 72.585938 Z M 129.539062 67.554688 "/>
<path style=" stroke:none;fill-rule:nonzero;fill:rgb(18.431373%,18.039216%,25.490196%);fill-opacity:1;" d="M 107.441406 94.941406 L 105.046875 100.527344 C 105.046875 100.527344 107.582031 102.652344 106.3125 104.441406 L 106.3125 110.585938 L 104.34375 110.585938 L 103.78125 107.347656 C 103.78125 107.347656 101.535156 110.546875 100.402344 110.585938 C 98.023438 110.671875 93.316406 111.34375 93.175781 110.339844 C 93.035156 109.332031 96.742188 108.351562 96.742188 108.351562 L 100.683594 99.746094 L 102.371094 94.492188 Z M 107.441406 94.941406 "/>
<path style=" stroke:none;fill-rule:nonzero;fill:rgb(18.431373%,18.039216%,25.490196%);fill-opacity:1;" d="M 144.179688 66.101562 C 144.179688 66.101562 145.449219 75.9375 141.789062 77.726562 C 138.128906 79.515625 121.9375 85.214844 121.9375 85.214844 C 121.9375 85.214844 128.835938 90.355469 127.429688 91.585938 C 126.023438 92.816406 119.6875 96.167969 118.84375 95.5 C 117.996094 94.828125 108.566406 86.78125 109.691406 84.210938 C 110.820312 81.636719 126.445312 73.253906 126.445312 73.253906 L 128.273438 68.003906 L 128.835938 63.753906 L 134.75 60.738281 Z M 144.179688 66.101562 "/>
<path style=" stroke:none;fill-rule:nonzero;fill:rgb(100%,72.54902%,72.54902%);fill-opacity:1;" d="M 143.601562 38.542969 C 143.601562 41.113281 140.972656 43.203125 137.730469 43.203125 C 134.492188 43.203125 131.863281 41.113281 131.863281 38.542969 C 131.863281 35.96875 134.492188 33.882812 137.730469 33.882812 C 140.972656 33.882812 143.601562 35.96875 143.601562 38.542969 Z M 143.601562 38.542969 "/>
<path style=" stroke:none;fill-rule:nonzero;fill:rgb(100%,72.54902%,72.54902%);fill-opacity:1;" d="M 142.28125 40.449219 C 142.28125 40.449219 142 44.699219 146.363281 46.039062 C 150.726562 47.378906 135.523438 56.097656 135.523438 56.097656 L 135.523438 46.375 C 135.523438 46.375 137.496094 44.699219 135.523438 42.125 Z M 142.28125 40.449219 "/>
<path style=" stroke:none;fill-rule:nonzero;fill:rgb(100%,72.54902%,72.54902%);fill-opacity:1;" d="M 151.640625 60.402344 L 150.515625 64.761719 L 147.136719 79.738281 C 147.136719 79.738281 149.953125 86.109375 146.152344 85.996094 C 142.351562 85.886719 144.179688 79.066406 144.179688 79.066406 L 146.152344 66.660156 L 146.152344 61.855469 Z M 151.640625 60.402344 "/>
<path style=" stroke:none;fill-rule:nonzero;fill:rgb(100%,72.54902%,72.54902%);fill-opacity:1;" d="M 127.429688 58.277344 L 126.164062 62.191406 L 120.390625 73.253906 C 120.390625 73.253906 116.449219 78.507812 119.6875 78.398438 C 122.925781 78.285156 122.925781 73.253906 122.925781 73.253906 L 129.539062 64.3125 L 129.539062 59.285156 Z M 127.429688 58.277344 "/>
<path style=" stroke:none;fill-rule:nonzero;fill:rgb(18.431373%,18.039216%,25.490196%);fill-opacity:1;" d="M 126.445312 90.914062 L 131.089844 94.378906 C 131.089844 94.378906 134.328125 93.820312 135.59375 96.839844 C 136.859375 99.859375 137.707031 101.757812 137.707031 101.757812 L 136.015625 102.539062 L 133.90625 100.191406 C 133.90625 100.191406 132.636719 104.441406 131.371094 104.777344 C 130.105469 105.109375 123.769531 107.347656 124.332031 104.777344 L 127.429688 101.199219 C 127.429688 101.199219 127.851562 97.175781 126.585938 96.839844 C 125.316406 96.503906 121.9375 93.152344 121.9375 93.152344 Z M 126.445312 90.914062 "/>
<path style=" stroke:none;fill-rule:nonzero;fill:rgb(24.705882%,23.921569%,33.72549%);fill-opacity:1;" d="M 144.402344 69.566406 C 144.402344 69.566406 131.171875 65.765625 130.328125 66.101562 C 129.699219 66.324219 129.027344 66.460938 128.34375 66.511719 L 128.355469 64.984375 C 128.355469 64.984375 132.71875 63.753906 135.113281 64.539062 C 137.507812 65.320312 144.828125 68.785156 144.828125 68.785156 Z M 144.402344 69.566406 "/>
<path style=" stroke:none;fill-rule:nonzero;fill:rgb(81.568627%,80.392157%,88.235294%);fill-opacity:1;" d="M 136.367188 53.863281 C 136.367188 53.863281 140.167969 50.398438 141.296875 48.273438 C 142.007812 46.988281 143.316406 45.964844 144.949219 45.421875 C 144.949219 45.421875 153.402344 46.933594 153.261719 49.617188 C 153.121094 52.296875 147.910156 56.433594 147.910156 56.433594 C 147.910156 56.433594 148.617188 71.300781 144.816406 71.074219 C 143.996094 70.300781 143.417969 69.378906 143.125 68.394531 C 142.703125 66.828125 129.613281 65.152344 129.613281 65.152344 C 129.613281 65.152344 128.484375 66.71875 128.34375 66.046875 C 128.203125 65.375 129.46875 48.945312 129.46875 48.945312 L 136.183594 45.421875 Z M 136.367188 53.863281 "/>
<path style=" stroke:none;fill-rule:nonzero;fill:rgb(81.568627%,80.392157%,88.235294%);fill-opacity:1;" d="M 152.175781 48.535156 L 152.269531 48.578125 C 152.882812 48.851562 153.261719 49.363281 153.261719 49.921875 L 153.261719 58.21875 C 153.261719 58.675781 153.519531 59.105469 153.957031 59.402344 C 154.5 59.765625 155.003906 60.292969 153.964844 60.570312 C 152.273438 61.015625 145.660156 63.25 145.519531 62.46875 C 145.378906 61.6875 145.097656 60.792969 145.519531 60.792969 C 145.847656 60.792969 147.820312 52.777344 149.402344 49.351562 C 149.597656 48.925781 150.019531 48.589844 150.550781 48.433594 C 151.085938 48.277344 151.679688 48.316406 152.175781 48.535156 Z M 152.175781 48.535156 "/>
<path style=" stroke:none;fill-rule:nonzero;fill:rgb(81.568627%,80.392157%,88.235294%);fill-opacity:1;" d="M 131.371094 48.554688 L 129.398438 49 L 127.148438 56.714844 C 127.148438 56.714844 124.472656 57.160156 125.316406 57.941406 C 126.164062 58.726562 129.683594 60.738281 129.683594 60.738281 Z M 131.371094 48.554688 "/>
<path style=" stroke:none;fill-rule:nonzero;fill:rgb(18.431373%,18.039216%,25.490196%);fill-opacity:1;" d="M 142.65625 32.734375 C 141.761719 31.78125 140.359375 31.210938 138.859375 31.195312 L 138.679688 31.195312 C 135.210938 31.195312 132.394531 33.691406 132.394531 36.765625 L 133.558594 36.765625 L 133.746094 35.632812 L 134.023438 36.765625 L 140.921875 36.765625 L 141.5 35.808594 L 141.355469 36.765625 L 142.710938 36.765625 C 143.34375 39.265625 142.433594 41.761719 139.980469 44.257812 L 142.292969 44.257812 L 143.449219 42.339844 L 143.160156 44.257812 L 147.566406 44.257812 L 148.433594 39.839844 C 148.433594 36.53125 146.011719 33.726562 142.65625 32.734375 Z M 142.65625 32.734375 "/>
<path style=" stroke:none;fill-rule:nonzero;fill:rgb(24.705882%,23.921569%,33.72549%);fill-opacity:1;" d="M 24.757812 84.289062 C 26.238281 81.730469 27.277344 75.660156 27.277344 68.582031 C 27.277344 59.1875 23.808594 49.839844 21.546875 49.839844 L 14.726562 49.839844 L 14.726562 118.742188 L 21.546875 118.742188 L 21.546875 87.324219 L 48.835938 87.324219 L 48.835938 118.742188 L 55.660156 118.742188 L 55.660156 84.289062 Z M 21.546875 84.171875 C 21.570312 84.210938 21.59375 84.253906 21.613281 84.289062 L 21.546875 84.289062 Z M 21.546875 84.171875 "/>
<path style=" stroke:none;fill-rule:nonzero;fill:rgb(62.352941%,38.039216%,41.568627%);fill-opacity:1;" d="M 53.191406 71.71875 C 53.191406 71.71875 61.410156 74.425781 58.804688 76.015625 C 56.199219 77.609375 50.789062 74.105469 50.988281 73.628906 C 51.1875 73.152344 50.1875 72.039062 50.1875 72.039062 Z M 53.191406 71.71875 "/>
<path style=" stroke:none;fill-rule:nonzero;fill:rgb(34.117647%,35.294118%,53.333333%);fill-opacity:1;" d="M 45.980469 50.398438 L 48.582031 52.308594 L 49.183594 57.875 L 51.1875 63.765625 C 51.1875 63.765625 54.597656 69.332031 53.996094 70.445312 C 53.394531 71.5625 54.597656 71.878906 54.597656 71.878906 L 49.988281 73.3125 C 49.988281 73.3125 44.976562 68.855469 44.976562 67.902344 C 44.976562 66.945312 45.980469 50.398438 45.980469 50.398438 Z M 45.980469 50.398438 "/>
<use xlink:href="#surface5" mask="url(#mask0)"/>
<path style=" stroke:none;fill-rule:nonzero;fill:rgb(34.117647%,35.294118%,53.333333%);fill-opacity:1;" d="M 70.628906 107.679688 C 70.628906 107.679688 69.625 111.339844 69.425781 111.660156 C 69.226562 111.976562 73.234375 113.089844 73.234375 113.089844 L 78.042969 110.386719 C 78.042969 110.386719 76.039062 106.886719 76.039062 106.25 Z M 70.628906 107.679688 "/>
<path style=" stroke:none;fill-rule:nonzero;fill:rgb(18.431373%,18.039216%,25.490196%);fill-opacity:1;" d="M 44.375 72.039062 L 45.777344 73.3125 C 45.777344 73.3125 74.835938 76.175781 75.4375 80.628906 C 76.039062 85.085938 80.246094 106.089844 77.84375 106.726562 C 75.4375 107.363281 69.226562 109.75 69.226562 108.476562 C 69.226562 107.203125 65.21875 89.699219 66.019531 86.519531 C 66.019531 86.519531 31.347656 83.015625 30.546875 79.039062 C 29.746094 75.0625 31.347656 73.3125 31.347656 73.3125 Z M 44.375 72.039062 "/>
<use xlink:href="#surface8" mask="url(#mask1)"/>
<path style=" stroke:none;fill-rule:nonzero;fill:rgb(18.431373%,18.039216%,25.490196%);fill-opacity:1;" d="M 70.226562 111.339844 C 70.226562 111.339844 69.425781 109.910156 69.023438 110.386719 C 68.625 110.863281 67.222656 116.433594 68.625 116.433594 C 70.027344 116.433594 82.851562 118.980469 84.65625 118.660156 C 86.460938 118.34375 89.867188 118.820312 89.464844 117.226562 C 89.066406 115.636719 87.0625 115.476562 87.0625 115.476562 C 87.0625 115.476562 79.644531 111.976562 79.246094 110.226562 C 78.84375 108.476562 76.640625 109.429688 76.640625 109.429688 L 76.640625 110.546875 C 76.640625 110.546875 72.429688 113.089844 70.226562 111.339844 Z M 70.226562 111.339844 "/>
<path style=" stroke:none;fill-rule:nonzero;fill:rgb(62.352941%,38.039216%,41.568627%);fill-opacity:1;" d="M 32.152344 38.304688 C 32.152344 38.304688 33.554688 43.714844 30.546875 44.191406 C 27.542969 44.667969 34.355469 47.851562 34.355469 47.851562 L 38.765625 49.761719 L 41.96875 47.214844 C 41.96875 47.214844 39.066406 42.519531 41.269531 39.019531 C 43.472656 35.519531 32.152344 38.304688 32.152344 38.304688 Z M 32.152344 38.304688 "/>
<path style=" stroke:none;fill-rule:nonzero;fill:rgb(62.352941%,38.039216%,41.568627%);fill-opacity:1;" d="M 41.96875 47.214844 L 38.765625 49.761719 L 34.355469 47.851562 C 34.355469 47.851562 27.542969 44.667969 30.546875 44.191406 C 32.480469 43.886719 32.589844 41.535156 32.421875 39.902344 C 32.371094 39.363281 32.277344 38.832031 32.152344 38.304688 C 32.152344 38.304688 43.472656 35.519531 41.269531 39.019531 C 40.933594 39.5625 40.703125 40.136719 40.578125 40.734375 C 39.90625 43.878906 41.96875 47.214844 41.96875 47.214844 Z M 41.96875 47.214844 "/>
<path style=" stroke:none;fill-rule:nonzero;fill:rgb(34.117647%,35.294118%,53.333333%);fill-opacity:1;" d="M 53.191406 112.296875 L 53.191406 115.957031 L 60.808594 115.957031 L 61.410156 114.523438 L 60.609375 110.703125 Z M 53.191406 112.296875 "/>
<path style=" stroke:none;fill-rule:nonzero;fill:rgb(18.431373%,18.039216%,25.490196%);fill-opacity:1;" d="M 21.730469 75.21875 C 21.730469 75.21875 21.730469 84.609375 26.539062 84.925781 C 31.347656 85.246094 48.582031 86.996094 48.582031 86.996094 C 48.582031 86.996094 49.585938 102.589844 51.390625 107.679688 C 53.191406 112.773438 51.589844 113.089844 53.191406 113.410156 C 54.796875 113.726562 61.609375 112.613281 61.410156 111.5 C 61.210938 110.386719 60.40625 82.222656 60.40625 82.222656 C 60.40625 82.222656 62.210938 76.175781 38.164062 73.3125 Z M 21.730469 75.21875 "/>
<path style=" stroke:none;fill-rule:nonzero;fill:rgb(18.431373%,18.039216%,25.490196%);fill-opacity:1;" d="M 53.792969 114.839844 C 53.792969 114.839844 52.59375 112.773438 52.390625 113.410156 C 52.191406 114.046875 49.785156 119.617188 52.191406 120.09375 C 54.597656 120.570312 62.210938 123.117188 67.222656 122.957031 C 72.230469 122.796875 72.832031 122.636719 72.832031 122.636719 C 72.832031 122.636719 74.234375 121.046875 72.429688 120.09375 C 70.628906 119.136719 63.214844 113.570312 62.8125 112.933594 C 62.410156 112.296875 59.40625 111.816406 59.40625 112.933594 C 59.40625 114.046875 55.195312 116.273438 53.792969 114.839844 Z M 53.792969 114.839844 "/>
<use xlink:href="#surface11" mask="url(#mask2)"/>
<path style=" stroke:none;fill-rule:nonzero;fill:rgb(62.352941%,38.039216%,41.568627%);fill-opacity:1;" d="M 43.773438 35.757812 C 43.773438 38.660156 40.8125 41.011719 37.160156 41.011719 C 33.507812 41.011719 30.546875 38.660156 30.546875 35.757812 C 30.546875 32.859375 33.507812 30.507812 37.160156 30.507812 C 40.8125 30.507812 43.773438 32.859375 43.773438 35.757812 Z M 43.773438 35.757812 "/>
<path style=" stroke:none;fill-rule:nonzero;fill:rgb(34.117647%,35.294118%,53.333333%);fill-opacity:1;" d="M 48.582031 52.308594 C 48.582031 52.308594 47.582031 58.035156 46.980469 60.105469 C 46.378906 62.171875 45.578125 71.71875 45.175781 72.992188 C 44.777344 74.265625 42.371094 74.585938 37.5625 74.105469 C 37.261719 74.078125 36.957031 74.058594 36.652344 74.054688 C 33.691406 73.976562 30.300781 74.859375 27.164062 75.546875 C 25.363281 75.945312 23.640625 76.28125 22.132812 76.335938 C 19.847656 76.417969 19.175781 74.40625 19.253906 72.230469 C 19.328125 70.203125 20.054688 68.03125 20.726562 67.265625 C 21.945312 65.882812 20.75 53.484375 21.195312 49.394531 L 21.195312 49.390625 C 21.265625 48.769531 21.371094 48.339844 21.53125 48.171875 C 22.730469 46.898438 30.546875 43.714844 31.421875 43.84375 C 32.296875 43.972656 39.765625 47.691406 39.765625 47.691406 C 41.570312 47.691406 41.511719 46.140625 41.511719 46.140625 C 41.511719 46.140625 42.773438 48.011719 45.175781 48.488281 C 47.582031 48.964844 48.582031 52.308594 48.582031 52.308594 Z M 48.582031 52.308594 "/>
<path style=" stroke:none;fill-rule:nonzero;fill:rgb(62.352941%,38.039216%,41.568627%);fill-opacity:1;" d="M 35.1875 72.9375 C 35.1875 72.9375 48.097656 73.261719 45.835938 74.480469 C 43.574219 75.699219 33.554688 76.8125 33.351562 75.21875 C 33.152344 73.628906 35.1875 72.9375 35.1875 72.9375 Z M 35.1875 72.9375 "/>
<use xlink:href="#surface14" mask="url(#mask3)"/>
<path style=" stroke:none;fill-rule:nonzero;fill:rgb(34.117647%,35.294118%,53.333333%);fill-opacity:1;" d="M 23.933594 48.328125 L 21.53125 48.328125 C 21.53125 48.328125 19.324219 48.808594 17.523438 51.988281 C 15.71875 55.171875 9.105469 65.035156 14.917969 68.855469 C 20.726562 72.675781 33.152344 77.128906 33.953125 76.015625 C 34.757812 74.902344 37.5625 73.152344 36.359375 72.832031 C 35.15625 72.515625 22.730469 64.402344 22.730469 64.402344 C 22.730469 64.402344 32.152344 51.351562 23.933594 48.328125 Z M 23.933594 48.328125 "/>
<path style=" stroke:none;fill-rule:nonzero;fill:rgb(18.431373%,18.039216%,25.490196%);fill-opacity:1;" d="M 36.144531 33.316406 C 36.144531 33.316406 36.433594 30.125 40.015625 31.425781 C 43.59375 32.726562 43.359375 29.140625 42.277344 28.507812 C 41.195312 27.875 41.230469 27.71875 37.273438 28.140625 C 33.316406 28.566406 25.632812 29.285156 28.117188 35.601562 C 30.601562 41.917969 32.851562 40.292969 32.851562 40.292969 C 32.851562 40.292969 30.878906 34.609375 32.878906 35.691406 L 34.878906 36.773438 L 35.933594 36.597656 Z M 36.144531 33.316406 "/>
<path style=" stroke:none;fill-rule:nonzero;fill:rgb(24.705882%,23.921569%,33.72549%);fill-opacity:1;" d="M 183.875 79.25 C 183.875 76.378906 156.996094 74.050781 123.835938 74.050781 C 90.679688 74.050781 63.800781 76.378906 63.800781 79.25 C 63.800781 80.363281 67.839844 81.394531 74.714844 82.238281 L 74.714844 117.820312 L 77.992188 117.820312 L 77.992188 82.605469 C 89.003906 83.734375 105.453125 84.449219 123.835938 84.449219 C 142.371094 84.449219 158.945312 83.722656 169.957031 82.578125 L 169.957031 117.820312 L 173.230469 117.820312 L 173.230469 82.207031 C 179.941406 81.367188 183.875 80.347656 183.875 79.25 Z M 183.875 79.25 "/>
<path style=" stroke:none;fill-rule:nonzero;fill:rgb(94.901961%,94.901961%,94.901961%);fill-opacity:1;" d="M 143.582031 76.972656 C 143.582031 75.652344 138.109375 74.585938 131.359375 74.585938 C 124.609375 74.585938 119.132812 75.652344 119.132812 76.972656 C 119.132812 78.289062 124.609375 79.359375 131.359375 79.359375 C 138.109375 79.359375 143.582031 78.289062 143.582031 76.972656 Z M 143.582031 76.972656 "/>
<path style=" stroke:none;fill-rule:nonzero;fill:rgb(81.568627%,80.392157%,88.235294%);fill-opacity:1;" d="M 141.378906 76.972656 C 141.378906 75.890625 136.894531 75.015625 131.359375 75.015625 C 125.824219 75.015625 121.339844 75.890625 121.339844 76.972656 C 121.339844 78.050781 125.824219 78.925781 131.359375 78.925781 C 136.894531 78.925781 141.378906 78.050781 141.378906 76.972656 Z M 141.378906 76.972656 "/>
<path style=" stroke:none;fill-rule:nonzero;fill:rgb(94.901961%,94.901961%,94.901961%);fill-opacity:1;" d="M 98.09375 78.878906 C 98.09375 77.5625 92.621094 76.492188 85.867188 76.492188 C 79.117188 76.492188 73.644531 77.5625 73.644531 78.878906 C 73.644531 80.199219 79.117188 81.265625 85.867188 81.265625 C 92.621094 81.265625 98.09375 80.199219 98.09375 78.878906 Z M 98.09375 78.878906 "/>
<path style=" stroke:none;fill-rule:nonzero;fill:rgb(81.568627%,80.392157%,88.235294%);fill-opacity:1;" d="M 95.886719 78.878906 C 95.886719 77.800781 91.402344 76.925781 85.867188 76.925781 C 80.335938 76.925781 75.847656 77.800781 75.847656 78.878906 C 75.847656 79.960938 80.335938 80.835938 85.867188 80.835938 C 91.402344 80.835938 95.886719 79.960938 95.886719 78.878906 Z M 95.886719 78.878906 "/>
<path style=" stroke:none;fill-rule:nonzero;fill:rgb(62.352941%,38.039216%,41.568627%);fill-opacity:1;" d="M 136.902344 76.070312 C 136.902344 75.667969 134.292969 75.339844 131.074219 75.339844 C 127.855469 75.339844 125.246094 75.667969 125.246094 76.070312 C 125.246094 76.476562 127.855469 76.800781 131.074219 76.800781 C 134.292969 76.800781 136.902344 76.476562 136.902344 76.070312 Z M 136.902344 76.070312 "/>
<path style=" stroke:none;fill-rule:nonzero;fill:rgb(42.352941%,38.823529%,100%);fill-opacity:1;" d="M 129.808594 75.007812 C 129.808594 74.570312 128.984375 74.214844 127.96875 74.214844 C 126.953125 74.214844 126.128906 74.570312 126.128906 75.007812 C 126.128906 75.445312 126.953125 75.796875 127.96875 75.796875 C 128.984375 75.796875 129.808594 75.445312 129.808594 75.007812 Z M 129.808594 75.007812 "/>
<path style=" stroke:none;fill-rule:nonzero;fill:rgb(42.352941%,38.823529%,100%);fill-opacity:1;" d="M 129.117188 75.007812 C 129.117188 74.570312 128.296875 74.214844 127.277344 74.214844 C 126.261719 74.214844 125.4375 74.570312 125.4375 75.007812 C 125.4375 75.445312 126.261719 75.796875 127.277344 75.796875 C 128.296875 75.796875 129.117188 75.445312 129.117188 75.007812 Z M 129.117188 75.007812 "/>
<path style=" stroke:none;fill-rule:nonzero;fill:rgb(42.352941%,38.823529%,100%);fill-opacity:1;" d="M 137.171875 75.1875 C 137.171875 74.75 136.347656 74.398438 135.332031 74.398438 C 134.3125 74.398438 133.488281 74.75 133.488281 75.1875 C 133.488281 75.625 134.3125 75.980469 135.332031 75.980469 C 136.347656 75.980469 137.171875 75.625 137.171875 75.1875 Z M 137.171875 75.1875 "/>
<path style=" stroke:none;fill-rule:nonzero;fill:rgb(42.352941%,38.823529%,100%);fill-opacity:1;" d="M 132.953125 75.007812 C 132.953125 74.570312 132.128906 74.214844 131.113281 74.214844 C 130.097656 74.214844 129.273438 74.570312 129.273438 75.007812 C 129.273438 75.445312 130.097656 75.796875 131.113281 75.796875 C 132.128906 75.796875 132.953125 75.445312 132.953125 75.007812 Z M 132.953125 75.007812 "/>
<path style=" stroke:none;fill-rule:nonzero;fill:rgb(42.352941%,38.823529%,100%);fill-opacity:1;" d="M 136.097656 75.007812 C 136.097656 74.570312 135.273438 74.214844 134.257812 74.214844 C 133.242188 74.214844 132.417969 74.570312 132.417969 75.007812 C 132.417969 75.445312 133.242188 75.796875 134.257812 75.796875 C 135.273438 75.796875 136.097656 75.445312 136.097656 75.007812 Z M 136.097656 75.007812 "/>
<path style=" stroke:none;fill-rule:nonzero;fill:rgb(24.705882%,23.921569%,33.72549%);fill-opacity:1;" d="M 136.632812 74.519531 C 133.308594 75.414062 129.574219 75.414062 125.4375 74.519531 L 125.4375 74.394531 C 125.4375 72.460938 127.347656 70.863281 129.78125 70.765625 C 130.765625 70.726562 131.753906 70.730469 132.742188 70.769531 C 134.929688 70.871094 136.640625 72.3125 136.632812 74.054688 Z M 136.632812 74.519531 "/>
<path style=" stroke:none;fill-rule:nonzero;fill:rgb(24.705882%,23.921569%,33.72549%);fill-opacity:1;" d="M 135 77.875 C 132.542969 78.070312 130.066406 78.070312 127.609375 77.875 C 126.398438 77.78125 125.480469 76.976562 125.476562 76.011719 L 137.132812 76.011719 C 137.128906 76.976562 136.207031 77.78125 135 77.875 Z M 135 77.875 "/>
<path style=" stroke:none;fill-rule:nonzero;fill:rgb(81.568627%,80.392157%,88.235294%);fill-opacity:1;" d="M 129.503906 71.902344 C 128.960938 72.078125 128.355469 72.078125 127.816406 71.902344 C 128.355469 71.722656 128.960938 71.722656 129.503906 71.902344 Z M 129.503906 71.902344 "/>
<path style=" stroke:none;fill-rule:nonzero;fill:rgb(81.568627%,80.392157%,88.235294%);fill-opacity:1;" d="M 131.191406 72.449219 C 130.648438 72.628906 130.042969 72.628906 129.503906 72.449219 C 130.042969 72.269531 130.648438 72.269531 131.191406 72.449219 Z M 131.191406 72.449219 "/>
<path style=" stroke:none;fill-rule:nonzero;fill:rgb(81.568627%,80.392157%,88.235294%);fill-opacity:1;" d="M 131.34375 71.476562 C 130.804688 71.652344 130.195312 71.652344 129.65625 71.476562 C 130.195312 71.296875 130.804688 71.296875 131.34375 71.476562 Z M 131.34375 71.476562 "/>
<path style=" stroke:none;fill-rule:nonzero;fill:rgb(81.568627%,80.392157%,88.235294%);fill-opacity:1;" d="M 134.488281 71.476562 C 133.945312 71.652344 133.339844 71.652344 132.800781 71.476562 C 133.339844 71.296875 133.945312 71.296875 134.488281 71.476562 Z M 134.488281 71.476562 "/>
<path style=" stroke:none;fill-rule:nonzero;fill:rgb(81.568627%,80.392157%,88.235294%);fill-opacity:1;" d="M 133.644531 72.023438 C 133.101562 72.203125 132.496094 72.203125 131.957031 72.023438 C 132.496094 71.84375 133.101562 71.84375 133.644531 72.023438 Z M 133.644531 72.023438 "/>
<path style=" stroke:none;fill-rule:nonzero;fill:rgb(62.352941%,38.039216%,41.568627%);fill-opacity:1;" d="M 91.613281 77.980469 C 91.613281 77.578125 89.003906 77.25 85.785156 77.25 C 82.566406 77.25 79.957031 77.578125 79.957031 77.980469 C 79.957031 78.386719 82.566406 78.710938 85.785156 78.710938 C 89.003906 78.710938 91.613281 78.386719 91.613281 77.980469 Z M 91.613281 77.980469 "/>
<path style=" stroke:none;fill-rule:nonzero;fill:rgb(42.352941%,38.823529%,100%);fill-opacity:1;" d="M 84.519531 76.914062 C 84.519531 76.480469 83.695312 76.125 82.679688 76.125 C 81.660156 76.125 80.839844 76.480469 80.839844 76.914062 C 80.839844 77.351562 81.660156 77.707031 82.679688 77.707031 C 83.695312 77.707031 84.519531 77.351562 84.519531 76.914062 Z M 84.519531 76.914062 "/>
<path style=" stroke:none;fill-rule:nonzero;fill:rgb(42.352941%,38.823529%,100%);fill-opacity:1;" d="M 83.828125 76.914062 C 83.828125 76.480469 83.003906 76.125 81.988281 76.125 C 80.972656 76.125 80.148438 76.480469 80.148438 76.914062 C 80.148438 77.351562 80.972656 77.707031 81.988281 77.707031 C 83.003906 77.707031 83.828125 77.351562 83.828125 76.914062 Z M 83.828125 76.914062 "/>
<path style=" stroke:none;fill-rule:nonzero;fill:rgb(42.352941%,38.823529%,100%);fill-opacity:1;" d="M 91.878906 77.097656 C 91.878906 76.660156 91.054688 76.308594 90.039062 76.308594 C 89.023438 76.308594 88.199219 76.660156 88.199219 77.097656 C 88.199219 77.535156 89.023438 77.890625 90.039062 77.890625 C 91.054688 77.890625 91.878906 77.535156 91.878906 77.097656 Z M 91.878906 77.097656 "/>
<path style=" stroke:none;fill-rule:nonzero;fill:rgb(42.352941%,38.823529%,100%);fill-opacity:1;" d="M 87.664062 76.914062 C 87.664062 76.480469 86.839844 76.125 85.820312 76.125 C 84.804688 76.125 83.980469 76.480469 83.980469 76.914062 C 83.980469 77.351562 84.804688 77.707031 85.820312 77.707031 C 86.839844 77.707031 87.664062 77.351562 87.664062 76.914062 Z M 87.664062 76.914062 "/>
<path style=" stroke:none;fill-rule:nonzero;fill:rgb(42.352941%,38.823529%,100%);fill-opacity:1;" d="M 90.804688 76.914062 C 90.804688 76.480469 89.984375 76.125 88.964844 76.125 C 87.949219 76.125 87.125 76.480469 87.125 76.914062 C 87.125 77.351562 87.949219 77.707031 88.964844 77.707031 C 89.984375 77.707031 90.804688 77.351562 90.804688 76.914062 Z M 90.804688 76.914062 "/>
<path style=" stroke:none;fill-rule:nonzero;fill:rgb(24.705882%,23.921569%,33.72549%);fill-opacity:1;" d="M 91.34375 76.429688 C 88.015625 77.324219 84.285156 77.324219 80.148438 76.429688 L 80.148438 76.304688 C 80.144531 74.371094 82.054688 72.773438 84.492188 72.675781 C 85.476562 72.636719 86.464844 72.636719 87.453125 72.679688 C 89.640625 72.78125 91.347656 74.222656 91.34375 75.964844 Z M 91.34375 76.429688 "/>
<path style=" stroke:none;fill-rule:nonzero;fill:rgb(24.705882%,23.921569%,33.72549%);fill-opacity:1;" d="M 89.710938 79.785156 C 87.253906 79.980469 84.777344 79.980469 82.316406 79.785156 C 81.109375 79.691406 80.1875 78.882812 80.1875 77.921875 L 91.839844 77.921875 C 91.839844 78.882812 90.917969 79.691406 89.710938 79.785156 Z M 89.710938 79.785156 "/>
<path style=" stroke:none;fill-rule:nonzero;fill:rgb(81.568627%,80.392157%,88.235294%);fill-opacity:1;" d="M 84.210938 73.8125 C 83.671875 73.988281 83.066406 73.988281 82.523438 73.8125 C 83.066406 73.632812 83.671875 73.632812 84.210938 73.8125 Z M 84.210938 73.8125 "/>
<path style=" stroke:none;fill-rule:nonzero;fill:rgb(81.568627%,80.392157%,88.235294%);fill-opacity:1;" d="M 85.898438 74.359375 C 85.359375 74.539062 84.75 74.539062 84.210938 74.359375 C 84.75 74.179688 85.359375 74.179688 85.898438 74.359375 Z M 85.898438 74.359375 "/>
<path style=" stroke:none;fill-rule:nonzero;fill:rgb(81.568627%,80.392157%,88.235294%);fill-opacity:1;" d="M 86.050781 73.382812 C 85.511719 73.5625 84.90625 73.5625 84.367188 73.382812 C 84.90625 73.207031 85.511719 73.207031 86.050781 73.382812 Z M 86.050781 73.382812 "/>
<path style=" stroke:none;fill-rule:nonzero;fill:rgb(81.568627%,80.392157%,88.235294%);fill-opacity:1;" d="M 89.195312 73.382812 C 88.65625 73.5625 88.050781 73.5625 87.507812 73.382812 C 88.050781 73.207031 88.65625 73.207031 89.195312 73.382812 Z M 89.195312 73.382812 "/>
<path style=" stroke:none;fill-rule:nonzero;fill:rgb(81.568627%,80.392157%,88.235294%);fill-opacity:1;" d="M 88.351562 73.933594 C 87.8125 74.109375 87.207031 74.109375 86.664062 73.933594 C 87.207031 73.753906 87.8125 73.753906 88.351562 73.933594 Z M 88.351562 73.933594 "/>
<path style=" stroke:none;fill-rule:nonzero;fill:rgb(42.352941%,38.823529%,100%);fill-opacity:1;" d="M 141.875 76.324219 L 141.902344 76.816406 L 141.9375 77.457031 C 141.9375 77.457031 138.242188 77.621094 137.496094 78.246094 C 137.480469 78.261719 137.464844 78.273438 137.449219 78.289062 L 135.96875 78.035156 L 135.964844 77.453125 C 135.964844 77.453125 135.984375 77.445312 136.023438 77.429688 C 136.035156 77.425781 136.046875 77.417969 136.054688 77.414062 C 137.867188 76.710938 139.855469 76.335938 141.875 76.324219 Z M 141.875 76.324219 "/>
<use xlink:href="#surface17" mask="url(#mask4)"/>
<use xlink:href="#surface20" mask="url(#mask5)"/>
<path style=" stroke:none;fill-rule:nonzero;fill:rgb(42.352941%,38.823529%,100%);fill-opacity:1;" d="M 97.1875 78.394531 L 97.214844 78.886719 L 97.25 79.523438 C 97.25 79.523438 93.550781 79.691406 92.808594 80.316406 C 92.789062 80.328125 92.773438 80.34375 92.761719 80.359375 L 91.277344 80.101562 L 91.273438 79.523438 C 91.273438 79.523438 91.296875 79.511719 91.335938 79.496094 C 91.34375 79.492188 91.355469 79.488281 91.367188 79.484375 C 93.179688 78.777344 95.167969 78.40625 97.1875 78.394531 Z M 97.1875 78.394531 "/>
<use xlink:href="#surface23" mask="url(#mask6)"/>
<use xlink:href="#surface26" mask="url(#mask7)"/>
<path style=" stroke:none;fill-rule:nonzero;fill:rgb(24.705882%,23.921569%,33.72549%);fill-opacity:1;" d="M 164.144531 61.5625 C 163.832031 61.3125 163.460938 61.109375 163.054688 60.960938 L 163.054688 54.78125 C 163.054688 54.628906 162.898438 54.507812 162.710938 54.507812 L 160.78125 54.507812 C 160.59375 54.507812 160.4375 54.628906 160.4375 54.78125 L 160.4375 60.84375 C 159.007812 61.21875 158.042969 62.28125 158.042969 63.476562 L 158.042969 76.738281 C 158.042969 77.410156 158.730469 77.953125 159.574219 77.953125 L 163.703125 77.953125 C 164.542969 77.953125 165.226562 77.414062 165.226562 76.746094 L 165.226562 63.632812 C 165.226562 62.855469 164.839844 62.109375 164.144531 61.5625 Z M 164.144531 61.5625 "/>
<path style=" stroke:none;fill-rule:nonzero;fill:rgb(42.352941%,38.823529%,100%);fill-opacity:1;" d="M 158.042969 65.421875 L 165.226562 65.421875 L 165.226562 72.957031 L 158.042969 72.957031 Z M 158.042969 65.421875 "/>
<path style=" stroke:none;fill-rule:nonzero;fill:rgb(42.352941%,38.823529%,100%);fill-opacity:1;" d="M 163.210938 54.929688 L 163.054688 54.929688 L 163.054688 54.78125 C 163.054688 54.628906 162.898438 54.507812 162.710938 54.507812 L 160.78125 54.507812 C 160.59375 54.507812 160.4375 54.628906 160.4375 54.78125 L 160.4375 54.929688 L 160.28125 54.929688 L 160.28125 55.5625 L 160.4375 55.5625 L 160.4375 58.800781 L 163.054688 58.800781 L 163.054688 55.5625 L 163.210938 55.5625 Z M 163.210938 54.929688 "/>
<path style=" stroke:none;fill-rule:nonzero;fill:rgb(81.568627%,80.392157%,88.235294%);fill-opacity:1;" d="M 106.628906 66.925781 C 106.4375 66.605469 106.289062 66.378906 106.234375 66.300781 C 103.011719 66.929688 100.859375 66.398438 100.519531 66.300781 C 100.355469 66.550781 99.320312 68.140625 98.898438 69.667969 C 98.523438 71.042969 98.742188 71.964844 99.550781 72.40625 L 99.578125 72.417969 L 99.582031 72.421875 C 100.476562 72.890625 101.332031 73.304688 102.121094 73.65625 C 102.226562 73.703125 102.328125 73.746094 102.421875 73.785156 L 102.429688 73.789062 L 102.4375 73.796875 C 102.546875 73.90625 102.648438 74.019531 102.738281 74.136719 C 102.914062 74.328125 103.019531 74.558594 103.046875 74.792969 L 103.046875 81.625 L 102.992188 81.625 C 100.933594 81.660156 99.660156 81.933594 99.660156 82.171875 C 99.660156 82.433594 101.1875 82.722656 103.378906 82.722656 C 105.570312 82.722656 107.097656 82.433594 107.097656 82.171875 C 107.097656 81.9375 105.84375 81.664062 103.824219 81.625 L 103.769531 81.625 L 103.820312 75.308594 C 103.820312 74.878906 103.945312 74.457031 104.183594 74.074219 C 104.226562 74.011719 104.269531 73.949219 104.316406 73.886719 C 104.351562 73.839844 104.390625 73.792969 104.429688 73.75 L 104.4375 73.742188 L 104.449219 73.738281 C 104.550781 73.695312 104.660156 73.648438 104.773438 73.59375 L 104.785156 73.589844 C 105.53125 73.253906 106.335938 72.863281 107.175781 72.421875 C 107.925781 72.03125 108.1875 71.234375 107.953125 70.0625 C 107.730469 68.945312 107.109375 67.742188 106.628906 66.925781 Z M 106.628906 66.925781 "/>
<path style=" stroke:none;fill-rule:nonzero;fill:rgb(42.352941%,38.823529%,100%);fill-opacity:1;" d="M 106.820312 72.28125 C 105.941406 72.742188 105.210938 73.085938 104.65625 73.335938 C 103.84375 73.292969 103.03125 73.308594 102.222656 73.390625 C 101.652344 73.136719 100.882812 72.773438 99.9375 72.28125 C 99.929688 72.273438 99.917969 72.269531 99.910156 72.265625 C 99.042969 71.789062 99.019531 70.785156 99.304688 69.757812 C 100.023438 69.695312 101.167969 69.722656 102.707031 70.160156 C 104.527344 70.675781 106.433594 70.386719 107.539062 70.121094 C 107.722656 71.023438 107.613281 71.867188 106.820312 72.28125 Z M 106.820312 72.28125 "/>
<path style=" stroke:none;fill-rule:nonzero;fill:rgb(42.352941%,38.823529%,100%);fill-opacity:1;" d="M 101.832031 69.191406 C 101.832031 69.300781 101.722656 69.386719 101.582031 69.386719 C 101.445312 69.386719 101.335938 69.300781 101.335938 69.191406 C 101.335938 69.082031 101.445312 68.992188 101.582031 68.992188 C 101.722656 68.992188 101.832031 69.082031 101.832031 69.191406 Z M 101.832031 69.191406 "/>
<path style=" stroke:none;fill-rule:nonzero;fill:rgb(100%,100%,100%);fill-opacity:1;" d="M 101.132812 71.011719 C 101.132812 71.121094 101.023438 71.210938 100.886719 71.210938 C 100.746094 71.210938 100.636719 71.121094 100.636719 71.011719 C 100.636719 70.902344 100.746094 70.8125 100.886719 70.8125 C 101.023438 70.8125 101.132812 70.902344 101.132812 71.011719 Z M 101.132812 71.011719 "/>
<path style=" stroke:none;fill-rule:nonzero;fill:rgb(42.352941%,38.823529%,100%);fill-opacity:1;" d="M 102.332031 69.664062 C 102.332031 69.730469 102.265625 69.785156 102.183594 69.785156 C 102.097656 69.785156 102.03125 69.730469 102.03125 69.664062 C 102.03125 69.601562 102.097656 69.546875 102.183594 69.546875 C 102.265625 69.546875 102.332031 69.601562 102.332031 69.664062 Z M 102.332031 69.664062 "/>
<path style=" stroke:none;fill-rule:nonzero;fill:rgb(100%,100%,100%);fill-opacity:1;" d="M 102.929688 71.921875 C 102.929688 71.988281 102.863281 72.042969 102.78125 72.042969 C 102.699219 72.042969 102.632812 71.988281 102.632812 71.921875 C 102.632812 71.855469 102.699219 71.804688 102.78125 71.804688 C 102.863281 71.804688 102.929688 71.855469 102.929688 71.921875 Z M 102.929688 71.921875 "/>
<path style=" stroke:none;fill-rule:nonzero;fill:rgb(100%,100%,100%);fill-opacity:1;" d="M 101.882812 72.042969 C 101.882812 72.105469 101.816406 72.160156 101.734375 72.160156 C 101.652344 72.160156 101.582031 72.105469 101.582031 72.042969 C 101.582031 71.976562 101.652344 71.921875 101.734375 71.921875 C 101.816406 71.921875 101.882812 71.976562 101.882812 72.042969 Z M 101.882812 72.042969 "/>
<path style=" stroke:none;fill-rule:nonzero;fill:rgb(42.352941%,38.823529%,100%);fill-opacity:1;" d="M 104.925781 68.082031 C 104.925781 68.148438 104.859375 68.199219 104.777344 68.199219 C 104.691406 68.199219 104.625 68.148438 104.625 68.082031 C 104.625 68.015625 104.691406 67.960938 104.777344 67.960938 C 104.859375 67.960938 104.925781 68.015625 104.925781 68.082031 Z M 104.925781 68.082031 "/>
<path style=" stroke:none;fill-rule:nonzero;fill:rgb(81.568627%,80.392157%,88.235294%);fill-opacity:1;" d="M 118.328125 60.488281 C 118.136719 60.167969 117.988281 59.9375 117.933594 59.859375 C 114.710938 60.492188 112.558594 59.957031 112.21875 59.863281 C 112.054688 60.113281 111.019531 61.703125 110.597656 63.226562 C 110.222656 64.601562 110.441406 65.523438 111.25 65.96875 L 111.277344 65.980469 L 111.28125 65.984375 C 112.175781 66.453125 113.03125 66.867188 113.820312 67.214844 C 113.925781 67.261719 114.027344 67.308594 114.121094 67.347656 L 114.128906 67.351562 L 114.136719 67.359375 C 114.246094 67.46875 114.347656 67.582031 114.4375 67.699219 C 114.613281 67.890625 114.71875 68.117188 114.746094 68.355469 L 114.746094 75.183594 L 114.691406 75.1875 C 112.632812 75.21875 111.359375 75.496094 111.359375 75.734375 C 111.359375 75.992188 112.886719 76.285156 115.078125 76.285156 C 117.269531 76.285156 118.796875 75.992188 118.796875 75.734375 C 118.796875 75.5 117.542969 75.222656 115.523438 75.1875 L 115.46875 75.1875 L 115.519531 68.867188 C 115.519531 68.441406 115.644531 68.019531 115.882812 67.636719 C 115.925781 67.570312 115.96875 67.507812 116.015625 67.449219 C 116.050781 67.402344 116.089844 67.355469 116.128906 67.3125 L 116.136719 67.304688 L 116.148438 67.300781 C 116.25 67.253906 116.355469 67.207031 116.472656 67.15625 L 116.484375 67.152344 C 117.230469 66.816406 118.035156 66.421875 118.875 65.984375 C 119.625 65.589844 119.886719 64.796875 119.652344 63.625 C 119.429688 62.507812 118.808594 61.300781 118.328125 60.488281 Z M 118.328125 60.488281 "/>
<path style=" stroke:none;fill-rule:nonzero;fill:rgb(42.352941%,38.823529%,100%);fill-opacity:1;" d="M 118.519531 65.839844 C 117.640625 66.300781 116.910156 66.648438 116.355469 66.894531 C 115.542969 66.851562 114.730469 66.871094 113.921875 66.949219 C 113.351562 66.699219 112.582031 66.335938 111.636719 65.839844 C 111.628906 65.835938 111.617188 65.832031 111.609375 65.824219 C 110.742188 65.351562 110.71875 64.347656 111.003906 63.320312 C 111.722656 63.257812 112.867188 63.285156 114.40625 63.722656 C 116.226562 64.238281 118.132812 63.945312 119.238281 63.679688 C 119.421875 64.585938 119.3125 65.425781 118.519531 65.839844 Z M 118.519531 65.839844 "/>
<path style=" stroke:none;fill-rule:nonzero;fill:rgb(42.352941%,38.823529%,100%);fill-opacity:1;" d="M 113.53125 62.75 C 113.53125 62.859375 113.421875 62.949219 113.28125 62.949219 C 113.144531 62.949219 113.03125 62.859375 113.03125 62.75 C 113.03125 62.640625 113.144531 62.554688 113.28125 62.554688 C 113.421875 62.554688 113.53125 62.640625 113.53125 62.75 Z M 113.53125 62.75 "/>
<path style=" stroke:none;fill-rule:nonzero;fill:rgb(100%,100%,100%);fill-opacity:1;" d="M 112.832031 64.574219 C 112.832031 64.683594 112.722656 64.769531 112.585938 64.769531 C 112.445312 64.769531 112.335938 64.683594 112.335938 64.574219 C 112.335938 64.464844 112.445312 64.375 112.585938 64.375 C 112.722656 64.375 112.832031 64.464844 112.832031 64.574219 Z M 112.832031 64.574219 "/>
<path style=" stroke:none;fill-rule:nonzero;fill:rgb(42.352941%,38.823529%,100%);fill-opacity:1;" d="M 114.03125 63.226562 C 114.03125 63.292969 113.964844 63.34375 113.882812 63.34375 C 113.796875 63.34375 113.730469 63.292969 113.730469 63.226562 C 113.730469 63.160156 113.796875 63.109375 113.882812 63.109375 C 113.964844 63.109375 114.03125 63.160156 114.03125 63.226562 Z M 114.03125 63.226562 "/>
<path style=" stroke:none;fill-rule:nonzero;fill:rgb(100%,100%,100%);fill-opacity:1;" d="M 114.628906 65.484375 C 114.628906 65.550781 114.5625 65.601562 114.480469 65.601562 C 114.398438 65.601562 114.328125 65.550781 114.328125 65.484375 C 114.328125 65.417969 114.398438 65.363281 114.480469 65.363281 C 114.5625 65.363281 114.628906 65.417969 114.628906 65.484375 Z M 114.628906 65.484375 "/>
<path style=" stroke:none;fill-rule:nonzero;fill:rgb(100%,100%,100%);fill-opacity:1;" d="M 113.582031 65.601562 C 113.582031 65.667969 113.515625 65.722656 113.433594 65.722656 C 113.347656 65.722656 113.28125 65.667969 113.28125 65.601562 C 113.28125 65.539062 113.347656 65.484375 113.433594 65.484375 C 113.515625 65.484375 113.582031 65.539062 113.582031 65.601562 Z M 113.582031 65.601562 "/>
<path style=" stroke:none;fill-rule:nonzero;fill:rgb(42.352941%,38.823529%,100%);fill-opacity:1;" d="M 116.625 61.640625 C 116.625 61.707031 116.558594 61.761719 116.476562 61.761719 C 116.390625 61.761719 116.324219 61.707031 116.324219 61.640625 C 116.324219 61.578125 116.390625 61.523438 116.476562 61.523438 C 116.558594 61.523438 116.625 61.578125 116.625 61.640625 Z M 116.625 61.640625 "/>
</g>
</svg>
