<?xml version="1.0" encoding="UTF-8"?>
<svg xmlns="http://www.w3.org/2000/svg" xmlns:xlink="http://www.w3.org/1999/xlink" width="200px" height="123px" viewBox="0 0 200 123" version="1.1">
<g id="surface1">
<path style=" stroke:none;fill-rule:nonzero;fill:rgb(94.901961%,94.901961%,94.901961%);fill-opacity:1;" d="M 80.695312 99.238281 C 80.324219 98.867188 78.710938 99.265625 78.414062 98.929688 C 78.117188 98.59375 79.617188 98.082031 80.472656 96.914062 C 80.625 96.703125 81.597656 95.378906 80.878906 94.96875 C 79.515625 94.191406 73.269531 97.394531 71.082031 96.347656 C 70.601562 96.117188 70.265625 95.65625 68.816406 94.910156 C 68.238281 94.617188 67.886719 94.480469 67.550781 94.53125 C 67.070312 94.601562 67.03125 94.980469 66.519531 95.726562 C 65.746094 96.84375 65.292969 96.777344 64.839844 97.667969 C 64.507812 98.328125 64.585938 98.714844 64.191406 98.789062 C 63.636719 98.894531 63.125 98.191406 62.421875 98.253906 C 61.703125 98.320312 61.269531 99.136719 61.132812 99.75 C 60.875 100.898438 61.585938 101.65625 61.984375 102.453125 C 62.414062 103.316406 62.667969 104.632812 61.675781 106.496094 L 51.839844 122.855469 C 54.011719 119.496094 60.300781 110.296875 62.941406 106.878906 C 63.703125 105.890625 64.546875 104.890625 66.273438 104.496094 C 67.9375 104.113281 70.226562 104.339844 73.140625 103.925781 C 73.480469 103.878906 74.425781 103.738281 74.542969 103.410156 C 74.640625 103.136719 74.085938 102.988281 74.171875 102.734375 C 74.285156 102.390625 75.378906 102.386719 76.722656 101.996094 C 77.667969 101.71875 78.257812 101.386719 78.765625 101.105469 C 78.917969 101.019531 81.191406 99.734375 80.695312 99.238281 Z M 80.695312 99.238281 "/>
<path style=" stroke:none;fill-rule:nonzero;fill:rgb(94.901961%,94.901961%,94.901961%);fill-opacity:1;" d="M 42 107.851562 C 41.582031 107.851562 41.449219 108.433594 41.082031 108.421875 C 40.71875 108.410156 40.726562 107.828125 40.003906 107.246094 C 39.871094 107.140625 39.050781 106.472656 38.5 106.566406 C 37.460938 106.738281 38.324219 109.46875 36.820312 109.800781 C 36.492188 109.875 36.011719 109.839844 34.972656 110.042969 C 34.558594 110.125 34.347656 110.1875 34.292969 110.300781 C 34.210938 110.460938 34.515625 110.578125 34.988281 110.945312 C 35.695312 111.488281 35.507812 111.601562 36.117188 111.988281 C 36.570312 112.277344 36.914062 112.367188 36.863281 112.5 C 36.789062 112.691406 36.058594 112.636719 35.910156 112.859375 C 35.753906 113.085938 36.308594 113.449219 36.777344 113.664062 C 37.660156 114.070312 38.496094 114.082031 39.269531 114.199219 C 40.117188 114.324219 41.285156 114.628906 42.546875 115.453125 L 53.308594 123.023438 C 51.144531 121.425781 45.308594 116.949219 43.230469 115.199219 C 42.628906 114.691406 42.039062 114.160156 42.207031 113.542969 C 42.371094 112.953125 43.222656 112.355469 43.71875 111.390625 C 43.777344 111.28125 43.929688 110.964844 43.691406 110.835938 C 43.496094 110.730469 43.207031 110.847656 43.023438 110.75 C 42.773438 110.617188 43.082031 110.300781 43.144531 109.796875 C 43.1875 109.441406 43.082031 109.175781 42.992188 108.949219 C 42.96875 108.878906 42.554688 107.847656 42 107.851562 Z M 42 107.851562 "/>
<path style=" stroke:none;fill-rule:nonzero;fill:rgb(94.901961%,94.901961%,94.901961%);fill-opacity:1;" d="M 50.300781 108.949219 L 50.050781 107.628906 L 50.164062 107.53125 C 50.695312 107.066406 50.964844 106.613281 50.96875 106.183594 C 50.96875 106.117188 50.960938 106.046875 50.957031 105.980469 C 50.933594 105.703125 50.910156 105.363281 51.210938 104.960938 C 51.378906 104.738281 51.855469 104.222656 52.574219 104.289062 C 52.765625 104.304688 52.910156 104.355469 53.023438 104.417969 C 53.039062 104.402344 53.054688 104.386719 53.074219 104.371094 C 53.296875 104.167969 53.472656 104.082031 53.644531 104 C 53.773438 103.9375 53.910156 103.871094 54.121094 103.714844 C 54.214844 103.648438 54.285156 103.585938 54.347656 103.535156 C 54.53125 103.382812 54.773438 103.203125 55.203125 103.207031 C 55.65625 103.21875 55.894531 103.441406 56.054688 103.589844 C 56.335938 103.851562 56.464844 104.039062 56.550781 104.167969 C 56.582031 104.210938 56.617188 104.265625 56.632812 104.28125 C 56.78125 104.40625 57.976562 104.289062 58.425781 104.246094 C 59.4375 104.144531 60.308594 104.058594 60.671875 104.433594 C 60.929688 104.703125 60.738281 105.058594 60.082031 105.519531 C 59.878906 105.664062 59.664062 105.773438 59.472656 105.859375 C 59.628906 105.914062 59.773438 106 59.832031 106.136719 C 59.964844 106.457031 59.5 106.777344 58.445312 107.089844 C 58.183594 107.171875 57.832031 107.273438 57.335938 107.324219 C 57.105469 107.347656 56.894531 107.355469 56.714844 107.359375 C 56.710938 107.417969 56.6875 107.484375 56.625 107.554688 C 56.4375 107.753906 56.050781 107.851562 55.472656 107.828125 C 54.832031 107.808594 54.304688 107.734375 53.839844 107.671875 C 53.433594 107.617188 53.085938 107.570312 52.808594 107.582031 C 52.300781 107.605469 51.910156 107.847656 51.449219 108.15625 Z M 50.300781 108.949219 "/>
<path style=" stroke:none;fill-rule:nonzero;fill:rgb(94.901961%,94.901961%,94.901961%);fill-opacity:1;" d="M 51.460938 101.085938 L 49.363281 101.566406 L 49.167969 101.523438 C 48.277344 101.339844 47.464844 101.300781 46.761719 101.40625 C 46.648438 101.425781 46.539062 101.445312 46.425781 101.464844 C 45.980469 101.546875 45.425781 101.648438 44.695312 101.578125 C 44.289062 101.539062 43.324219 101.398438 43.246094 100.972656 C 43.222656 100.855469 43.269531 100.761719 43.34375 100.683594 C 43.3125 100.675781 43.285156 100.671875 43.253906 100.664062 C 42.867188 100.589844 42.679688 100.507812 42.503906 100.433594 C 42.363281 100.375 42.222656 100.316406 41.914062 100.234375 C 41.777344 100.199219 41.664062 100.171875 41.5625 100.148438 C 41.265625 100.082031 40.90625 99.988281 40.804688 99.746094 C 40.710938 99.480469 41.015625 99.289062 41.214844 99.160156 C 41.574219 98.933594 41.851562 98.8125 42.035156 98.730469 C 42.105469 98.703125 42.179688 98.667969 42.203125 98.65625 C 42.375 98.539062 41.875 97.886719 41.691406 97.640625 C 41.269531 97.089844 40.90625 96.613281 41.433594 96.3125 C 41.808594 96.09375 42.441406 96.113281 43.363281 96.371094 C 43.648438 96.449219 43.882812 96.546875 44.070312 96.636719 C 44.121094 96.53125 44.226562 96.425781 44.433594 96.359375 C 44.925781 96.199219 45.570312 96.386719 46.351562 96.90625 C 46.546875 97.039062 46.804688 97.210938 47.015625 97.480469 C 47.113281 97.609375 47.175781 97.726562 47.226562 97.828125 C 47.328125 97.816406 47.441406 97.8125 47.570312 97.832031 C 47.945312 97.886719 48.199219 98.082031 48.308594 98.417969 C 48.441406 98.789062 48.453125 99.109375 48.46875 99.390625 C 48.484375 99.636719 48.496094 99.847656 48.582031 100 C 48.75 100.285156 49.246094 100.449219 49.871094 100.632812 Z M 51.460938 101.085938 "/>
<path style=" stroke:none;fill-rule:nonzero;fill:rgb(94.901961%,94.901961%,94.901961%);fill-opacity:1;" d="M 50.300781 97.195312 L 50.050781 95.875 L 50.164062 95.773438 C 50.695312 95.3125 50.964844 94.859375 50.96875 94.429688 C 50.96875 94.363281 50.960938 94.292969 50.957031 94.226562 C 50.933594 93.949219 50.910156 93.605469 51.210938 93.207031 C 51.378906 92.984375 51.855469 92.46875 52.574219 92.535156 C 52.765625 92.550781 52.910156 92.601562 53.023438 92.664062 C 53.039062 92.648438 53.054688 92.632812 53.074219 92.617188 C 53.296875 92.414062 53.472656 92.328125 53.644531 92.246094 C 53.773438 92.183594 53.910156 92.117188 54.121094 91.960938 C 54.214844 91.894531 54.285156 91.832031 54.347656 91.78125 C 54.53125 91.628906 54.773438 91.449219 55.203125 91.453125 C 55.65625 91.464844 55.894531 91.6875 56.054688 91.832031 C 56.335938 92.097656 56.464844 92.285156 56.550781 92.410156 C 56.582031 92.457031 56.617188 92.507812 56.632812 92.523438 C 56.78125 92.652344 57.976562 92.535156 58.425781 92.488281 C 59.4375 92.390625 60.308594 92.304688 60.671875 92.679688 C 60.929688 92.949219 60.738281 93.304688 60.082031 93.765625 C 59.878906 93.910156 59.664062 94.019531 59.472656 94.105469 C 59.628906 94.160156 59.773438 94.246094 59.832031 94.382812 C 59.964844 94.703125 59.5 95.023438 58.445312 95.335938 C 58.183594 95.414062 57.832031 95.519531 57.335938 95.570312 C 57.105469 95.59375 56.894531 95.601562 56.714844 95.601562 C 56.710938 95.664062 56.6875 95.730469 56.625 95.796875 C 56.4375 96 56.050781 96.09375 55.472656 96.070312 C 54.832031 96.050781 54.304688 95.980469 53.839844 95.917969 C 53.433594 95.863281 53.085938 95.816406 52.808594 95.828125 C 52.300781 95.851562 51.910156 96.089844 51.449219 96.402344 Z M 50.300781 97.195312 "/>
<path style=" stroke:none;fill-rule:nonzero;fill:rgb(94.901961%,94.901961%,94.901961%);fill-opacity:1;" d="M 52.589844 122.832031 L 52.121094 122.660156 L 52.007812 122.339844 L 52.121094 122.660156 L 51.574219 122.695312 C 51.566406 122.667969 51.535156 122.597656 51.492188 122.488281 C 51.246094 121.898438 50.5 120.101562 49.878906 117.273438 C 49.441406 115.296875 49.199219 113.265625 49.148438 111.234375 C 49.097656 109.199219 49.257812 107.660156 49.390625 106.421875 C 49.488281 105.488281 49.609375 104.597656 49.726562 103.734375 C 50.039062 101.417969 50.335938 99.234375 50.113281 96.8125 C 50.066406 96.273438 49.964844 95.148438 48.851562 93.953125 C 48.207031 93.257812 47.316406 92.644531 46.207031 92.121094 L 46.898438 91.613281 C 48.121094 92.1875 49.105469 92.867188 49.820312 93.640625 C 51.054688 94.964844 51.167969 96.191406 51.21875 96.78125 C 51.445312 99.242188 51.144531 101.449219 50.828125 103.785156 C 50.710938 104.648438 50.59375 105.53125 50.492188 106.460938 C 50.363281 107.6875 50.203125 109.214844 50.253906 111.222656 C 50.300781 113.230469 50.546875 115.238281 50.972656 117.1875 C 51.589844 119.980469 52.324219 121.753906 52.566406 122.332031 C 52.695312 122.644531 52.722656 122.710938 52.589844 122.832031 Z M 52.589844 122.832031 "/>
<path style=" stroke:none;fill-rule:nonzero;fill:rgb(94.901961%,94.901961%,94.901961%);fill-opacity:1;" d="M 44.179688 93.160156 C 44.132812 93.160156 44.089844 93.160156 44.042969 93.15625 C 43.097656 93.128906 42.226562 92.796875 41.449219 92.167969 C 41.082031 91.875 40.894531 91.539062 40.523438 90.867188 C 40.464844 90.765625 40.183594 90.242188 40.011719 89.519531 C 39.902344 89.046875 39.914062 88.851562 40.074219 88.675781 C 40.25 88.484375 40.535156 88.347656 40.855469 88.257812 C 40.839844 88.195312 40.851562 88.128906 40.898438 88.0625 C 41.085938 87.792969 41.585938 87.828125 41.859375 87.84375 C 41.996094 87.855469 42.167969 87.867188 42.351562 87.863281 C 42.640625 87.855469 42.796875 87.804688 43.035156 87.726562 C 43.261719 87.652344 43.542969 87.5625 43.960938 87.511719 C 44.785156 87.410156 45.472656 87.546875 45.699219 87.59375 C 46.898438 87.828125 47.488281 88.378906 48.167969 89.011719 C 48.304688 89.140625 48.773438 89.605469 49.082031 90.242188 C 49.304688 90.699219 49.273438 90.90625 49.207031 91.054688 C 49.070312 91.367188 48.75 91.546875 47.933594 91.941406 C 47.078125 92.355469 46.652344 92.558594 46.285156 92.6875 C 45.429688 92.976562 44.890625 93.160156 44.179688 93.160156 Z M 44.179688 93.160156 "/>
<path style=" stroke:none;fill-rule:nonzero;fill:rgb(100%,71.372549%,71.372549%);fill-opacity:1;" d="M 96.003906 121.714844 L 98.902344 121.714844 L 100.28125 115.117188 L 96.003906 115.117188 Z M 96.003906 121.714844 "/>
<path style=" stroke:none;fill-rule:nonzero;fill:rgb(18.431373%,18.039216%,25.490196%);fill-opacity:1;" d="M 105.929688 121.675781 C 106.023438 121.765625 106.070312 122.054688 106.070312 122.160156 C 106.070312 122.480469 105.628906 122.738281 105.085938 122.738281 L 96.113281 122.738281 C 95.742188 122.738281 95.441406 122.5625 95.441406 122.34375 L 95.441406 122.125 C 95.441406 122.125 95 121.460938 95.914062 120.644531 C 95.914062 120.644531 97.046875 121.285156 98.746094 120.28125 L 99.246094 119.746094 L 102.867188 121.308594 L 104.875 121.457031 C 105.316406 121.488281 105.707031 121.453125 105.929688 121.675781 Z M 105.929688 121.675781 "/>
<path style=" stroke:none;fill-rule:nonzero;fill:rgb(100%,71.372549%,71.372549%);fill-opacity:1;" d="M 87.175781 121.714844 L 90.070312 121.714844 L 91.449219 115.117188 L 87.175781 115.117188 Z M 87.175781 121.714844 "/>
<path style=" stroke:none;fill-rule:nonzero;fill:rgb(18.431373%,18.039216%,25.490196%);fill-opacity:1;" d="M 97.101562 121.675781 C 97.191406 121.765625 97.238281 122.054688 97.238281 122.160156 C 97.238281 122.480469 96.800781 122.738281 96.257812 122.738281 L 87.285156 122.738281 C 86.914062 122.738281 86.613281 122.5625 86.613281 122.34375 L 86.613281 122.125 C 86.613281 122.125 86.167969 121.460938 87.082031 120.644531 C 87.082031 120.644531 88.21875 121.285156 89.914062 120.28125 L 90.414062 119.746094 L 94.039062 121.308594 L 96.046875 121.457031 C 96.484375 121.488281 96.875 121.453125 97.101562 121.675781 Z M 97.101562 121.675781 "/>
<path style=" stroke:none;fill-rule:nonzero;fill:rgb(18.431373%,18.039216%,25.490196%);fill-opacity:1;" d="M 99.351562 93.230469 L 102.441406 100.292969 L 100.898438 118.433594 L 93.613281 118.71875 L 93.171875 108.277344 L 92.289062 119.027344 L 84.78125 118.105469 L 84.339844 94.457031 Z M 99.351562 93.230469 "/>
<path style=" stroke:none;fill-rule:nonzero;fill:rgb(100%,71.372549%,71.372549%);fill-opacity:1;" d="M 69.433594 69.445312 C 68.4375 68.414062 66.726562 67.878906 65.613281 68.253906 C 64.5 68.628906 64.40625 69.769531 65.402344 70.800781 C 65.792969 71.21875 66.34375 71.574219 67.011719 71.835938 L 71.332031 76.179688 L 74.742188 74.941406 L 70.121094 70.789062 C 70.078125 70.316406 69.84375 69.855469 69.433594 69.445312 Z M 69.433594 69.445312 "/>
<path style=" stroke:none;fill-rule:nonzero;fill:rgb(42.352941%,38.823529%,100%);fill-opacity:1;" d="M 89.0625 84.78125 C 89.0625 84.78125 84.96875 88.113281 82.464844 86.921875 C 79.960938 85.730469 66.128906 72.355469 66.128906 72.355469 L 71.617188 70.621094 Z M 89.0625 84.78125 "/>
<path style=" stroke:none;fill-rule:nonzero;fill:rgb(100%,71.372549%,71.372549%);fill-opacity:1;" d="M 85.222656 80.71875 L 90.523438 76.03125 L 95.820312 77.332031 L 94.496094 81.5 Z M 85.222656 80.71875 "/>
<path style=" stroke:none;fill-rule:nonzero;fill:rgb(42.352941%,38.823529%,100%);fill-opacity:1;" d="M 85.664062 79.675781 L 94.9375 79.417969 L 101.117188 80.460938 L 102.441406 99.742188 L 83.898438 98.699219 L 83.898438 88.53125 L 81.25 83.324219 Z M 85.664062 79.675781 "/>
<path style=" stroke:none;fill-rule:nonzero;fill:rgb(24.705882%,23.921569%,33.72549%);fill-opacity:1;" d="M 100.96875 92.683594 C 100.640625 92.125 100.511719 91.53125 100.59375 90.941406 C 100.832031 89.273438 100.878906 86.007812 97.996094 84.53125 L 96.371094 83.492188 C 96.335938 83.46875 96.300781 83.453125 96.265625 83.429688 L 98.957031 79.699219 L 97.332031 79.289062 L 94.832031 82.753906 C 93.726562 82.355469 92.449219 82.136719 91.125 82.136719 C 89.601562 82.136719 88.140625 82.429688 86.933594 82.949219 L 85.410156 79.652344 L 83.707031 79.929688 L 85.613281 83.683594 C 85.542969 83.734375 85.46875 83.78125 85.402344 83.832031 L 84.472656 84.570312 C 84.246094 84.75 83.996094 84.914062 83.722656 85.070312 C 83.152344 85.402344 82.039062 86.203125 82.027344 87.4375 C 82.023438 87.859375 81.878906 88.277344 81.660156 88.679688 L 80.554688 90.71875 C 80.449219 90.910156 80.367188 91.105469 80.3125 91.304688 C 79.824219 93.050781 78.136719 101.28125 89.671875 101.117188 C 100.425781 100.960938 101.132812 97.097656 101.070312 95.8125 C 101.058594 95.535156 101.101562 95.257812 101.1875 94.984375 C 101.351562 94.484375 101.496094 93.59375 100.96875 92.683594 Z M 100.96875 92.683594 "/>
<path style=" stroke:none;fill-rule:nonzero;fill:rgb(100%,71.372549%,71.372549%);fill-opacity:1;" d="M 149.546875 9.386719 L 150.550781 18.550781 L 137.90625 20.261719 L 138.789062 12.851562 Z M 149.546875 9.386719 "/>
<path style=" stroke:none;fill-rule:nonzero;fill:rgb(100%,71.372549%,71.372549%);fill-opacity:1;" d="M 150.507812 120.761719 L 144.808594 120.761719 L 142.097656 107.785156 L 150.511719 107.785156 Z M 150.507812 120.761719 "/>
<path style=" stroke:none;fill-rule:nonzero;fill:rgb(18.431373%,18.039216%,25.490196%);fill-opacity:1;" d="M 130.980469 120.683594 C 130.804688 120.859375 130.710938 121.429688 130.710938 121.636719 C 130.710938 122.265625 131.578125 122.777344 132.644531 122.777344 L 150.296875 122.777344 C 151.023438 122.777344 151.617188 122.429688 151.617188 122 L 151.617188 121.566406 C 151.617188 121.566406 152.488281 120.261719 150.691406 118.652344 C 150.691406 118.652344 148.457031 119.914062 145.117188 117.941406 L 144.132812 116.890625 L 137.007812 119.964844 L 133.054688 120.253906 C 132.191406 120.316406 131.425781 120.242188 130.980469 120.683594 Z M 130.980469 120.683594 "/>
<path style=" stroke:none;fill-rule:nonzero;fill:rgb(100%,71.372549%,71.372549%);fill-opacity:1;" d="M 165.960938 120.761719 L 160.261719 120.761719 L 157.550781 107.785156 L 165.964844 107.785156 Z M 165.960938 120.761719 "/>
<path style=" stroke:none;fill-rule:nonzero;fill:rgb(18.431373%,18.039216%,25.490196%);fill-opacity:1;" d="M 146.433594 120.683594 C 146.257812 120.859375 146.164062 121.429688 146.164062 121.636719 C 146.164062 122.265625 147.027344 122.777344 148.097656 122.777344 L 165.75 122.777344 C 166.476562 122.777344 167.070312 122.429688 167.070312 122 L 167.070312 121.566406 C 167.070312 121.566406 167.941406 120.261719 166.144531 118.652344 C 166.144531 118.652344 163.910156 119.914062 160.570312 117.941406 L 159.585938 116.890625 L 152.460938 119.964844 L 148.507812 120.253906 C 147.644531 120.316406 146.878906 120.242188 146.433594 120.683594 Z M 146.433594 120.683594 "/>
<path style=" stroke:none;fill-rule:nonzero;fill:rgb(18.431373%,18.039216%,25.490196%);fill-opacity:1;" d="M 169.550781 59.089844 C 169.550781 59.089844 174.40625 62.738281 173.523438 64.824219 C 172.640625 66.910156 166.460938 114.859375 166.460938 114.859375 L 157.628906 114.597656 L 152.332031 71.597656 L 150.96875 114.859375 L 142.617188 114.597656 L 132.023438 60.914062 Z M 169.550781 59.089844 "/>
<path style=" stroke:none;fill-rule:nonzero;fill:rgb(100%,71.372549%,71.372549%);fill-opacity:1;" d="M 118.5 70.722656 C 117.667969 72.613281 115.339844 73.890625 113.300781 73.574219 C 111.265625 73.261719 110.292969 71.476562 111.128906 69.585938 C 111.445312 68.828125 112.0625 68.128906 112.933594 67.539062 L 116.640625 59.5625 L 122.945312 60.671875 L 118.621094 68.417969 C 118.894531 69.179688 118.851562 69.972656 118.5 70.722656 Z M 118.5 70.722656 "/>
<path style=" stroke:none;fill-rule:nonzero;fill:rgb(100%,71.372549%,71.372549%);fill-opacity:1;" d="M 151.890625 9.542969 C 151.890625 13.65625 146.242188 16.992188 139.273438 16.992188 C 132.308594 16.992188 126.660156 13.65625 126.660156 9.542969 C 126.660156 5.433594 132.308594 2.097656 139.273438 2.097656 C 146.242188 2.097656 151.890625 5.433594 151.890625 9.542969 Z M 151.890625 9.542969 "/>
<path style=" stroke:none;fill-rule:nonzero;fill:rgb(90.196078%,90.196078%,90.196078%);fill-opacity:1;" d="M 137.761719 18.960938 L 151.007812 17.394531 L 165.578125 21.824219 L 168.667969 50.230469 L 172.640625 60.914062 L 131.582031 61.175781 L 133.347656 46.84375 L 130.699219 24.171875 Z M 137.761719 18.960938 "/>
<path style=" stroke:none;fill-rule:nonzero;fill:rgb(90.196078%,90.196078%,90.196078%);fill-opacity:1;" d="M 134.671875 24.953125 C 134.671875 24.953125 127.609375 23.648438 124.960938 25.996094 C 122.308594 28.339844 117.453125 49.449219 117.453125 49.449219 L 112.597656 65.34375 L 121.425781 66.125 L 135.996094 38.242188 Z M 134.671875 24.953125 "/>
<path style=" stroke:none;fill-rule:nonzero;fill:rgb(100%,71.372549%,71.372549%);fill-opacity:1;" d="M 198.925781 61.585938 C 200.363281 63.34375 199.996094 65.207031 198.101562 65.75 C 196.203125 66.289062 193.503906 65.300781 192.0625 63.542969 C 191.472656 62.847656 191.171875 62.074219 191.1875 61.296875 L 185.25 53.804688 L 191.265625 52.234375 L 196.480469 59.785156 C 197.527344 60.261719 198.367188 60.878906 198.925781 61.585938 Z M 198.925781 61.585938 "/>
<path style=" stroke:none;fill-rule:nonzero;fill:rgb(90.196078%,90.196078%,90.196078%);fill-opacity:1;" d="M 160.046875 22.097656 C 160.046875 22.097656 166.390625 19.847656 169.902344 21.757812 C 173.414062 23.667969 186.570312 43.503906 186.570312 43.503906 L 197.644531 58.273438 L 189.375 60.261719 L 164.070312 35.195312 Z M 160.046875 22.097656 "/>
<path style=" stroke:none;fill-rule:nonzero;fill:rgb(24.705882%,23.921569%,33.72549%);fill-opacity:1;" d="M 190.582031 122.800781 C 190.582031 122.972656 190.347656 123.113281 190.058594 123.113281 L 0.523438 123.113281 C 0.234375 123.113281 0 122.972656 0 122.800781 C 0 122.71875 0.0546875 122.644531 0.140625 122.589844 L 39.753906 122.589844 C 40.597656 122.589844 41.421875 122.558594 42.234375 122.492188 L 190.058594 122.492188 C 190.347656 122.492188 190.582031 122.628906 190.582031 122.800781 Z M 190.582031 122.800781 "/>
<path style=" stroke:none;fill-rule:nonzero;fill:rgb(100%,71.372549%,71.372549%);fill-opacity:1;" d="M 112.980469 71.542969 C 113.769531 70.449219 115.363281 69.804688 116.542969 70.101562 C 117.722656 70.394531 118.039062 71.523438 117.25 72.617188 C 116.945312 73.054688 116.46875 73.445312 115.855469 73.753906 L 112.417969 78.367188 L 108.785156 77.367188 L 112.5625 72.929688 C 112.511719 72.453125 112.65625 71.980469 112.980469 71.542969 Z M 112.980469 71.542969 "/>
<path style=" stroke:none;fill-rule:nonzero;fill:rgb(100%,71.372549%,71.372549%);fill-opacity:1;" d="M 98.140625 74.699219 C 98.140625 77.347656 94.507812 79.492188 90.023438 79.492188 C 85.535156 79.492188 81.902344 77.347656 81.902344 74.699219 C 81.902344 72.050781 85.535156 69.90625 90.023438 69.90625 C 94.507812 69.90625 98.140625 72.050781 98.140625 74.699219 Z M 98.140625 74.699219 "/>
<path style=" stroke:none;fill-rule:nonzero;fill:rgb(42.352941%,38.823529%,100%);fill-opacity:1;" d="M 100.234375 80.460938 L 108.183594 78.636719 L 110.832031 73.164062 L 116.570312 74.464844 L 112.15625 82.285156 L 100.234375 84.972656 Z M 100.234375 80.460938 "/>
<path style=" stroke:none;fill-rule:nonzero;fill:rgb(18.431373%,18.039216%,25.490196%);fill-opacity:1;" d="M 88.953125 80.027344 L 93.796875 77.703125 C 93.796875 77.703125 93.339844 74.21875 95.078125 73.902344 C 96.820312 73.589844 98.636719 72.339844 98.636719 72.339844 C 98.636719 72.339844 95.753906 68.496094 90.683594 69.078125 C 85.609375 69.660156 86.765625 68.773438 83.640625 69.753906 C 80.515625 70.730469 79.78125 72.03125 80.164062 73.417969 C 80.542969 74.804688 79.410156 78.246094 83.199219 78.421875 C 86.984375 78.597656 88.953125 80.027344 88.953125 80.027344 Z M 88.953125 80.027344 "/>
<path style=" stroke:none;fill-rule:nonzero;fill:rgb(18.431373%,18.039216%,25.490196%);fill-opacity:1;" d="M 131.632812 11.210938 C 130.714844 10.21875 131.191406 9.746094 130.359375 9.359375 C 130.359375 9.359375 130.027344 9.203125 127.511719 9.003906 C 127.269531 6.574219 126.601562 6.25 126.601562 6.25 C 125.835938 5.875 124.613281 5.929688 123.832031 6.097656 C 122.183594 6.457031 122.242188 7.40625 121.148438 7.535156 C 119.636719 7.714844 123.757812 6.1875 123.710938 4.574219 C 123.667969 3.257812 125.265625 2.054688 125.824219 2.148438 C 126.375 2.242188 127.855469 1.292969 128.578125 1.34375 C 129.070312 1.378906 131.164062 0.953125 131.703125 1.019531 C 132.289062 1.09375 134.167969 1.789062 134.269531 1.65625 C 134.964844 0.722656 134.835938 0.449219 135.351562 0.199219 C 136.273438 -0.246094 137.621094 0.15625 139.785156 0.441406 C 144.238281 1.027344 145.144531 0.1875 147.371094 0.890625 C 148.496094 1.246094 149.363281 2.101562 151.050781 3.796875 C 153.410156 6.171875 154.589844 7.355469 154.417969 8.667969 C 154.246094 10.003906 153.160156 9.867188 152.414062 11.824219 C 151.578125 14 152.582031 15.0625 151.238281 15.71875 C 150.203125 16.226562 141.609375 16.265625 140.648438 15.730469 C 139 14.816406 141.574219 12.921875 139.828125 11.363281 C 138.753906 10.410156 136.40625 9.894531 135.246094 10.289062 C 133.933594 10.730469 134.417969 12.238281 133.523438 12.339844 C 132.757812 12.421875 131.792969 11.382812 131.632812 11.210938 Z M 131.632812 11.210938 "/>
<path style=" stroke:none;fill-rule:nonzero;fill:rgb(100%,71.372549%,71.372549%);fill-opacity:1;" d="M 70.488281 71.789062 C 72.246094 70.914062 71.78125 68.878906 69.449219 67.25 C 68.425781 66.539062 67.21875 66.019531 66.03125 65.734375 L 64.671875 64.808594 L 47.085938 51.804688 C 47.085938 51.804688 37.351562 38.867188 34.476562 37.46875 C 31.601562 36.074219 28.21875 36.800781 28.21875 36.800781 L 25.582031 38.726562 L 42.023438 56.789062 L 58.851562 66.785156 L 61.125 68.183594 C 61.398438 68.921875 62.0625 69.710938 63.085938 70.425781 C 65.417969 72.054688 68.734375 72.664062 70.488281 71.789062 Z M 70.488281 71.789062 "/>
<path style=" stroke:none;fill-rule:nonzero;fill:rgb(90.196078%,90.196078%,90.196078%);fill-opacity:1;" d="M 37.296875 39.875 L 41.707031 43.691406 L 48.03125 49.214844 L 36.664062 51.535156 L 26.628906 41.371094 Z M 37.296875 39.875 "/>
<path style=" stroke:none;fill-rule:nonzero;fill:rgb(100%,71.372549%,71.372549%);fill-opacity:1;" d="M 41.773438 26.894531 L 38.582031 34.074219 L 26.414062 32.664062 C 26.414062 32.664062 31.199219 27.480469 30.003906 25.128906 Z M 41.773438 26.894531 "/>
<path style=" stroke:none;fill-rule:nonzero;fill:rgb(100%,71.372549%,71.372549%);fill-opacity:1;" d="M 28.929688 120.375 L 36.253906 120.375 L 39.742188 103.695312 L 28.925781 103.695312 Z M 28.929688 120.375 "/>
<path style=" stroke:none;fill-rule:nonzero;fill:rgb(18.431373%,18.039216%,25.490196%);fill-opacity:1;" d="M 54.03125 120.277344 C 54.261719 120.503906 54.378906 121.234375 54.378906 121.5 C 54.378906 122.308594 53.265625 122.96875 51.894531 122.96875 L 29.203125 122.96875 C 28.265625 122.96875 27.507812 122.519531 27.507812 121.964844 L 27.507812 121.410156 C 27.507812 121.410156 26.382812 119.734375 28.695312 117.667969 C 28.695312 117.667969 31.566406 119.285156 35.859375 116.75 L 37.125 115.398438 L 46.285156 119.351562 L 51.363281 119.722656 C 52.476562 119.800781 53.460938 119.710938 54.03125 120.277344 Z M 54.03125 120.277344 "/>
<path style=" stroke:none;fill-rule:nonzero;fill:rgb(18.431373%,18.039216%,25.490196%);fill-opacity:1;" d="M 49.273438 72.101562 L 39.175781 112.652344 L 26.507812 112.652344 L 28.195312 89.503906 L 29.082031 77.332031 L 26.507812 71.539062 C 26.507812 71.539062 25.335938 70.25 24.351562 68.691406 C 23.238281 66.929688 22.359375 64.816406 23.664062 63.816406 C 24.144531 63.445312 25.390625 63.171875 27.089844 62.96875 C 28.125 62.84375 29.332031 62.746094 30.632812 62.671875 C 38.125 62.234375 48.78125 62.507812 48.78125 62.507812 L 49.050781 67.78125 L 49.203125 70.730469 Z M 49.273438 72.101562 "/>
<path style=" stroke:none;fill-rule:nonzero;fill:rgb(100%,71.372549%,71.372549%);fill-opacity:1;" d="M 16.023438 118.390625 L 23.269531 119.019531 L 30.832031 102.816406 L 20.132812 101.886719 Z M 16.023438 118.390625 "/>
<path style=" stroke:none;fill-rule:nonzero;fill:rgb(18.431373%,18.039216%,25.490196%);fill-opacity:1;" d="M 40.882812 120.449219 C 41.050781 120.695312 40.992188 121.429688 40.925781 121.691406 C 40.726562 122.492188 39.460938 123.046875 38.105469 122.929688 L 15.652344 120.980469 C 14.726562 120.898438 14.085938 120.390625 14.222656 119.84375 L 14.359375 119.292969 C 14.359375 119.292969 13.664062 117.539062 16.457031 115.691406 C 16.457031 115.691406 18.902344 117.539062 23.773438 115.402344 L 25.355469 114.171875 L 33.445312 118.871094 L 38.378906 119.671875 C 39.460938 119.847656 40.457031 119.839844 40.882812 120.449219 Z M 40.882812 120.449219 "/>
<path style=" stroke:none;fill-rule:nonzero;fill:rgb(18.431373%,18.039216%,25.490196%);fill-opacity:1;" d="M 49.433594 65.335938 L 48.046875 72.375 L 40.496094 87.210938 L 28.0625 111.628906 L 15.53125 110.542969 L 26.777344 75.820312 L 25.664062 69.867188 C 25.664062 69.867188 25.300781 69.273438 24.886719 68.410156 C 24.0625 66.695312 23.027344 63.902344 24.164062 62.480469 C 24.320312 62.285156 24.511719 62.117188 24.75 61.980469 C 25.199219 61.726562 26.109375 61.570312 27.328125 61.488281 C 32.425781 61.148438 42.921875 62.117188 47.59375 62.597656 Z M 49.433594 65.335938 "/>
<path style=" stroke:none;fill-rule:nonzero;fill:rgb(90.196078%,90.196078%,90.196078%);fill-opacity:1;" d="M 39.777344 31.957031 L 53.539062 42.199219 L 51.070312 52.878906 L 48.953125 63.742188 L 24.019531 61.507812 C 24.019531 61.507812 29.40625 53.855469 30.003906 53.5 C 30.601562 53.148438 32.105469 54.019531 31.054688 52.878906 C 30.003906 51.734375 28.808594 51.734375 29.804688 51.144531 C 30.800781 50.558594 22.027344 42.90625 22.027344 38.785156 C 22.027344 34.664062 26.214844 31.367188 26.214844 31.367188 Z M 39.777344 31.957031 "/>
<path style=" stroke:none;fill-rule:nonzero;fill:rgb(100%,71.372549%,71.372549%);fill-opacity:1;" d="M 45.839844 22.777344 C 45.839844 25.800781 41.6875 28.25 36.566406 28.25 C 31.445312 28.25 27.296875 25.800781 27.296875 22.777344 C 27.296875 19.753906 31.445312 17.304688 36.566406 17.304688 C 41.6875 17.304688 45.839844 19.753906 45.839844 22.777344 Z M 45.839844 22.777344 "/>
<path style=" stroke:none;fill-rule:nonzero;fill:rgb(18.431373%,18.039216%,25.490196%);fill-opacity:1;" d="M 36.132812 33.242188 C 36.132812 33.242188 37.519531 26.761719 37.765625 24.875 C 38.011719 22.992188 42.519531 20.050781 42.519531 20.050781 L 45.710938 21.574219 C 45.710938 21.574219 48.410156 21.574219 46.570312 19.253906 C 44.726562 16.933594 41.289062 16.570312 41.289062 16.570312 C 41.289062 16.570312 40.921875 13.527344 34.539062 13.890625 C 28.152344 14.253906 25.328125 17.296875 25.328125 17.296875 C 25.328125 17.296875 24.960938 13.457031 20.910156 16.28125 C 16.855469 19.109375 14.523438 20.269531 18.820312 21.210938 C 23.117188 22.152344 26.3125 21.425781 26.3125 21.425781 C 26.3125 21.425781 22.136719 21.933594 22.875 23.675781 C 23.609375 25.414062 13.171875 33.3125 17.960938 34.183594 C 22.75 35.050781 33.433594 37.152344 34.660156 35.777344 C 35.886719 34.398438 36.132812 33.242188 36.132812 33.242188 Z M 36.132812 33.242188 "/>
<path style=" stroke:none;fill-rule:nonzero;fill:rgb(100%,71.372549%,71.372549%);fill-opacity:1;" d="M 74.351562 72.332031 C 76.121094 71.464844 75.683594 69.429688 73.375 67.789062 C 72.363281 67.070312 71.160156 66.546875 69.980469 66.257812 L 68.632812 65.320312 L 51.234375 52.230469 C 51.234375 52.230469 41.679688 39.246094 38.824219 37.835938 C 35.972656 36.425781 32.578125 37.136719 32.578125 37.136719 L 29.914062 39.046875 L 46.097656 57.191406 L 62.785156 67.269531 L 65.035156 68.679688 C 65.300781 69.417969 65.953125 70.210938 66.964844 70.929688 C 69.273438 72.570312 72.582031 73.199219 74.351562 72.332031 Z M 74.351562 72.332031 "/>
<path style=" stroke:none;fill-rule:nonzero;fill:rgb(90.196078%,90.196078%,90.196078%);fill-opacity:1;" d="M 28.902344 36.128906 C 28.902344 36.128906 33.164062 49.175781 38.007812 51.097656 L 47.667969 46.652344 C 47.667969 46.652344 48.511719 46.632812 46.9375 45.582031 C 45.367188 44.535156 45.769531 42.28125 45.769531 42.28125 C 45.769531 42.28125 46.476562 42.820312 44.9375 42.070312 C 43.394531 41.320312 44.828125 36.160156 44.828125 36.160156 Z M 28.902344 36.128906 "/>
<path style=" stroke:none;fill-rule:nonzero;fill:rgb(100%,71.372549%,71.372549%);fill-opacity:1;" d="M 99.246094 89.953125 C 99.042969 89.953125 98.859375 89.867188 98.816406 89.746094 L 98.328125 88.414062 C 97.617188 86.457031 94.75 85.027344 91.359375 84.9375 C 88.222656 84.855469 85.3125 85.953125 84.117188 87.667969 L 82.902344 89.421875 C 82.808594 89.554688 82.550781 89.617188 82.324219 89.5625 C 82.097656 89.507812 81.992188 89.355469 82.085938 89.222656 L 83.300781 87.472656 C 84.636719 85.550781 87.886719 84.328125 91.402344 84.417969 C 95.191406 84.519531 98.394531 86.117188 99.191406 88.304688 L 99.679688 89.636719 C 99.730469 89.777344 99.578125 89.914062 99.339844 89.945312 C 99.308594 89.949219 99.277344 89.953125 99.246094 89.953125 Z M 99.246094 89.953125 "/>
<path style=" stroke:none;fill-rule:nonzero;fill:rgb(100%,71.372549%,71.372549%);fill-opacity:1;" d="M 99.765625 94.191406 C 99.753906 94.191406 99.742188 94.191406 99.726562 94.1875 L 83.390625 93.328125 C 83.148438 93.316406 82.96875 93.191406 82.988281 93.046875 C 83.011719 92.902344 83.222656 92.796875 83.46875 92.808594 L 99.804688 93.667969 C 100.050781 93.683594 100.226562 93.808594 100.207031 93.953125 C 100.1875 94.089844 99.992188 94.191406 99.765625 94.191406 Z M 99.765625 94.191406 "/>
</g>
</svg>
