<?xml version="1.0" encoding="UTF-8"?>
<svg xmlns="http://www.w3.org/2000/svg" xmlns:xlink="http://www.w3.org/1999/xlink" width="200px" height="123px" viewBox="0 0 200 123" version="1.1">
<defs>
<filter id="alpha" filterUnits="objectBoundingBox" x="0%" y="0%" width="100%" height="100%">
  <feColorMatrix type="matrix" in="SourceGraphic" values="0 0 0 0 1 0 0 0 0 1 0 0 0 0 1 0 0 0 1 0"/>
</filter>
<mask id="mask0">
  <g filter="url(#alpha)">
<rect x="0" y="0" width="200" height="123" style="fill:rgb(0%,0%,0%);fill-opacity:0.101961;stroke:none;"/>
  </g>
</mask>
<clipPath id="clip1">
  <rect x="0" y="0" width="200" height="123"/>
</clipPath>
<g id="surface5" clip-path="url(#clip1)">
<path style=" stroke:none;fill-rule:nonzero;fill:rgb(0%,0%,0%);fill-opacity:1;" d="M 87.613281 54.742188 C 87.613281 54.742188 98.164062 19.582031 101.554688 19.109375 C 104.945312 18.632812 109.019531 28.226562 109.019531 28.226562 C 112.550781 42.863281 124.796875 66.570312 124.796875 66.570312 C 124.796875 66.570312 112.621094 67.332031 103.71875 72.085938 C 94.820312 76.835938 84.316406 71.84375 84.316406 71.84375 Z M 87.613281 54.742188 "/>
</g>
</defs>
<g id="surface1">
<path style=" stroke:none;fill-rule:nonzero;fill:rgb(62.745098%,38.039216%,41.568627%);fill-opacity:1;" d="M 127.609375 64.535156 C 129.292969 65.003906 131.058594 64.136719 131.722656 62.515625 C 132.382812 60.894531 131.734375 59.03125 130.207031 58.179688 L 122.886719 49.847656 L 116.699219 51.191406 L 125.402344 59.746094 C 124.972656 60.667969 124.964844 61.734375 125.390625 62.65625 C 125.816406 63.582031 126.628906 64.269531 127.609375 64.535156 Z M 127.609375 64.535156 "/>
<path style=" stroke:none;fill-rule:nonzero;fill:rgb(24.705882%,23.921569%,33.72549%);fill-opacity:1;" d="M 103.53125 34.714844 L 121.773438 57.683594 L 127.332031 55.125 L 105.894531 21.636719 Z M 103.53125 34.714844 "/>
<path style=" stroke:none;fill-rule:nonzero;fill:rgb(90.196078%,90.196078%,90.196078%);fill-opacity:1;" d="M 186.449219 114.105469 C 187.59375 111.878906 186.972656 109.074219 185.550781 107.015625 C 184.125 104.960938 182.027344 103.496094 179.972656 102.074219 L 177.113281 100.101562 L 178.476562 106.972656 C 178.9375 109.296875 179.507812 111.808594 181.316406 113.332031 C 182.761719 114.519531 184.71875 114.863281 186.480469 114.242188 "/>
<path style=" stroke:none;fill-rule:nonzero;fill:rgb(94.901961%,94.901961%,94.901961%);fill-opacity:1;" d="M 186.234375 122.5625 C 186.203125 122.671875 186.089844 122.738281 185.980469 122.707031 C 185.875 122.675781 185.8125 122.5625 185.839844 122.453125 C 185.996094 121.289062 186.15625 120.125 186.230469 118.953125 C 186.355469 117.015625 186.238281 115.023438 185.523438 113.199219 C 184.875 111.558594 183.726562 110.164062 182.238281 109.222656 C 182.015625 109.082031 182.222656 108.722656 182.445312 108.867188 C 183.304688 109.410156 184.0625 110.097656 184.6875 110.902344 C 185.863281 112.421875 186.4375 114.277344 186.617188 116.171875 C 186.820312 118.308594 186.523438 120.449219 186.234375 122.5625 Z M 186.234375 122.5625 "/>
<path style=" stroke:none;fill-rule:nonzero;fill:rgb(90.196078%,90.196078%,90.196078%);fill-opacity:1;" d="M 157.152344 109.511719 C 166.15625 115.070312 163.15625 122.480469 163.15625 122.480469 Z M 157.152344 109.511719 "/>
<path style=" stroke:none;fill-rule:nonzero;fill:rgb(90.196078%,90.196078%,90.196078%);fill-opacity:1;" d="M 174.84375 117.109375 C 167.761719 117.0625 166.84375 122.34375 166.84375 122.34375 Z M 174.84375 117.109375 "/>
<path style=" stroke:none;fill-rule:nonzero;fill:rgb(24.705882%,23.921569%,33.72549%);fill-opacity:1;" d="M 62.550781 120.910156 C 62.550781 122.019531 61.652344 122.917969 60.550781 122.917969 C 59.445312 122.917969 58.546875 122.019531 58.546875 120.910156 C 58.546875 119.800781 59.445312 118.902344 60.550781 118.902344 C 61.652344 118.902344 62.550781 119.800781 62.550781 120.910156 Z M 62.550781 120.910156 "/>
<path style=" stroke:none;fill-rule:nonzero;fill:rgb(24.705882%,23.921569%,33.72549%);fill-opacity:1;" d="M 62.003906 80.492188 C 62.003906 80.492188 66.730469 66.078125 67.097656 65.074219 C 67.460938 64.070312 71.277344 65.714844 72.277344 65.988281 C 73.277344 66.261719 73.007812 67.265625 73.007812 67.265625 L 67.914062 82.042969 L 69.460938 82.773438 L 74.1875 67.902344 C 76.917969 65.074219 74.914062 64.890625 74.914062 64.890625 C 74.914062 64.890625 69.097656 62.886719 66.914062 62.703125 C 64.730469 62.519531 65.550781 65.167969 65.550781 65.167969 L 60.277344 79.214844 Z M 62.003906 80.492188 "/>
<path style=" stroke:none;fill-rule:nonzero;fill:rgb(42.352941%,38.823529%,100%);fill-opacity:1;" d="M 73.371094 83.960938 L 73.367188 83.960938 C 72.699219 82.996094 71.746094 82.261719 70.640625 81.863281 C 70.601562 81.847656 70.558594 81.832031 70.503906 81.8125 C 68 80.933594 50.546875 76.207031 50.546875 76.207031 C 50.546875 76.207031 47.089844 74.929688 45.546875 78.394531 C 44 81.863281 34.816406 110.601562 34.816406 110.601562 C 34.816406 110.601562 52.777344 120.238281 58.015625 121.289062 C 58.339844 121.367188 58.671875 121.394531 59.003906 121.367188 C 59.894531 121.242188 60.769531 121.03125 61.621094 120.738281 C 62.558594 120.433594 63.453125 120 64.277344 119.449219 L 74.460938 88.886719 C 74.460938 88.886719 75.914062 85.511719 73.371094 83.960938 Z M 73.371094 83.960938 "/>
<path style=" stroke:none;fill-rule:nonzero;fill:rgb(24.705882%,23.921569%,33.72549%);fill-opacity:1;" d="M 73.371094 83.960938 L 73.367188 83.960938 C 72.699219 82.996094 71.746094 82.261719 70.640625 81.863281 C 70.601562 81.847656 70.558594 81.832031 70.503906 81.8125 C 71.328125 83.261719 71.640625 85.511719 71.640625 85.511719 C 71.640625 85.511719 61.640625 115.34375 60.730469 118.171875 C 60.039062 120.328125 58.640625 121.0625 58.015625 121.289062 C 58.339844 121.367188 58.671875 121.394531 59.003906 121.367188 C 59.894531 121.242188 60.769531 121.03125 61.621094 120.738281 C 61.867188 120.453125 62.085938 120.144531 62.277344 119.816406 C 62.277344 119.816406 72.460938 89.253906 73.371094 87.792969 C 74.277344 86.332031 73.371094 83.960938 73.371094 83.960938 Z M 73.371094 83.960938 "/>
<path style=" stroke:none;fill-rule:nonzero;fill:rgb(24.705882%,23.921569%,33.72549%);fill-opacity:1;" d="M 56.410156 120.957031 C 56.410156 122.066406 55.515625 122.964844 54.410156 122.964844 C 53.304688 122.964844 52.410156 122.066406 52.410156 120.957031 C 52.410156 119.847656 53.304688 118.949219 54.410156 118.949219 C 55.515625 118.949219 56.410156 119.847656 56.410156 120.957031 Z M 56.410156 120.957031 "/>
<path style=" stroke:none;fill-rule:nonzero;fill:rgb(24.705882%,23.921569%,33.72549%);fill-opacity:1;" d="M 37 112.515625 C 37 113.625 36.101562 114.523438 34.996094 114.523438 C 33.894531 114.523438 32.996094 113.625 32.996094 112.515625 C 32.996094 111.410156 33.894531 110.511719 34.996094 110.511719 C 36.101562 110.511719 37 111.410156 37 112.515625 Z M 37 112.515625 "/>
<path style=" stroke:none;fill-rule:nonzero;fill:rgb(62.745098%,38.039216%,41.568627%);fill-opacity:1;" d="M 70.257812 66.296875 C 68.59375 66.824219 66.796875 66.019531 66.078125 64.425781 C 65.355469 62.828125 65.941406 60.941406 67.4375 60.035156 L 74.453125 51.449219 L 80.6875 52.570312 L 72.292969 61.429688 C 72.757812 62.335938 72.800781 63.402344 72.40625 64.339844 C 72.015625 65.277344 71.226562 65.996094 70.257812 66.296875 Z M 70.257812 66.296875 "/>
<path style=" stroke:none;fill-rule:nonzero;fill:rgb(62.745098%,38.039216%,41.568627%);fill-opacity:1;" d="M 118.085938 104.078125 L 122.433594 104.007812 L 121.910156 118.875 L 118.085938 118.875 Z M 118.085938 104.078125 "/>
<path style=" stroke:none;fill-rule:nonzero;fill:rgb(18.431373%,18.039216%,25.490196%);fill-opacity:1;" d="M 117.113281 117.621094 L 124.640625 117.621094 C 127.292969 117.621094 129.441406 119.777344 129.441406 122.433594 L 129.441406 122.59375 L 117.113281 122.59375 Z M 117.113281 117.621094 "/>
<path style=" stroke:none;fill-rule:nonzero;fill:rgb(62.745098%,38.039216%,41.568627%);fill-opacity:1;" d="M 89.304688 100.132812 L 94.054688 103.191406 L 84.554688 114.660156 L 81.339844 112.585938 Z M 89.304688 100.132812 "/>
<path style=" stroke:none;fill-rule:nonzero;fill:rgb(18.431373%,18.039216%,25.490196%);fill-opacity:1;" d="M 81.191406 111.003906 L 87.527344 115.085938 C 89.757812 116.523438 90.40625 119.5 88.972656 121.738281 L 88.890625 121.871094 L 78.515625 115.1875 Z M 81.191406 111.003906 "/>
<path style=" stroke:none;fill-rule:nonzero;fill:rgb(24.705882%,23.921569%,33.72549%);fill-opacity:1;" d="M 87.613281 54.742188 C 87.613281 54.742188 98.164062 19.582031 101.554688 19.109375 C 104.945312 18.632812 110.410156 28.128906 110.410156 28.128906 C 117.492188 37.195312 124.796875 66.570312 124.796875 66.570312 C 124.796875 66.570312 112.621094 67.332031 103.71875 72.085938 C 94.820312 76.835938 84.316406 71.84375 84.316406 71.84375 Z M 87.613281 54.742188 "/>
<use xlink:href="#surface5" mask="url(#mask0)"/>
<path style=" stroke:none;fill-rule:nonzero;fill:rgb(18.431373%,18.039216%,25.490196%);fill-opacity:1;" d="M 96.269531 44.222656 L 96.269531 61.890625 L 94.199219 87.484375 L 83.84375 106.839844 L 88.785156 110.382812 L 102.902344 91.96875 L 108.488281 73.683594 L 117.257812 114.160156 L 123.84375 113.6875 L 119.269531 57.566406 L 110.585938 41.773438 Z M 96.269531 44.222656 "/>
<path style=" stroke:none;fill-rule:nonzero;fill:rgb(80%,80%,80%);fill-opacity:1;" d="M 106.90625 27.132812 C 110.203125 30.441406 107.144531 33.980469 107.144531 33.980469 L 110.90625 42.480469 L 96.082031 46.492188 L 90.902344 23.269531 L 94.433594 19.492188 C 101.492188 19.253906 101.496094 19.109375 101.496094 19.109375 C 102.730469 20.320312 106.90625 27.132812 106.90625 27.132812 Z M 106.90625 27.132812 "/>
<path style=" stroke:none;fill-rule:nonzero;fill:rgb(24.705882%,23.921569%,33.72549%);fill-opacity:1;" d="M 90.226562 20.921875 C 87.691406 22.792969 86.910156 26.246094 88.394531 29.027344 C 90.09375 32.28125 91.917969 37.316406 90.976562 42.847656 C 89.273438 52.859375 83.808594 60.464844 80.765625 62.90625 C 79.707031 63.757812 79.667969 64.996094 79.824219 65.886719 C 80.257812 68.371094 82.660156 71.1875 84.320312 71.753906 C 84.429688 71.789062 84.546875 71.808594 84.664062 71.808594 C 87.363281 71.808594 93.996094 63.191406 101.621094 46.355469 C 106.367188 35.871094 102.921875 27.464844 99.195312 22.257812 C 98.207031 20.882812 96.710938 19.960938 95.042969 19.699219 C 93.371094 19.433594 91.667969 19.855469 90.304688 20.863281 Z M 90.226562 20.921875 "/>
<path style=" stroke:none;fill-rule:nonzero;fill:rgb(24.705882%,23.921569%,33.72549%);fill-opacity:1;" d="M 97.257812 31.058594 L 75.847656 59.242188 L 70.203125 56.882812 L 90.4375 22.648438 Z M 97.257812 31.058594 "/>
<path style=" stroke:none;fill-rule:nonzero;fill:rgb(18.431373%,18.039216%,25.490196%);fill-opacity:1;" d="M 103.605469 16.046875 L 88.882812 16.046875 C 88.25 16.046875 87.742188 15.535156 87.738281 14.902344 L 87.738281 8.535156 C 87.738281 3.820312 91.546875 -0.00390625 96.246094 -0.00390625 C 100.941406 -0.00390625 104.75 3.820312 104.75 8.535156 L 104.75 14.902344 C 104.75 15.535156 104.238281 16.046875 103.605469 16.046875 Z M 103.605469 16.046875 "/>
<path style=" stroke:none;fill-rule:nonzero;fill:rgb(62.745098%,38.039216%,41.568627%);fill-opacity:1;" d="M 100.984375 4.152344 C 104.003906 5.8125 105.113281 9.613281 103.464844 12.644531 C 101.8125 15.675781 98.023438 16.789062 95 15.132812 C 91.980469 13.476562 90.867188 9.675781 92.519531 6.640625 C 94.171875 3.609375 97.960938 2.496094 100.984375 4.152344 Z M 100.984375 4.152344 "/>
<path style=" stroke:none;fill-rule:nonzero;fill:rgb(18.431373%,18.039216%,25.490196%);fill-opacity:1;" d="M 106.761719 9.171875 L 97.757812 9.171875 L 97.664062 7.871094 L 97.203125 9.171875 L 95.816406 9.171875 L 95.632812 6.597656 L 94.71875 9.171875 L 92.035156 9.171875 L 92.035156 9.042969 C 92.039062 5.316406 95.050781 2.296875 98.765625 2.292969 L 100.035156 2.292969 C 103.746094 2.296875 106.757812 5.316406 106.761719 9.042969 Z M 106.761719 9.171875 "/>
<path style=" stroke:none;fill-rule:nonzero;fill:rgb(18.431373%,18.039216%,25.490196%);fill-opacity:1;" d="M 97.683594 17.234375 C 97.617188 17.234375 97.546875 17.230469 97.480469 17.21875 L 90.886719 16.050781 L 90.886719 5.117188 L 98.144531 5.117188 L 97.964844 5.328125 C 95.464844 8.253906 97.351562 12.996094 98.695312 15.566406 C 98.898438 15.949219 98.863281 16.414062 98.605469 16.761719 C 98.390625 17.058594 98.046875 17.234375 97.683594 17.234375 Z M 97.683594 17.234375 "/>
<path style=" stroke:none;fill-rule:nonzero;fill:rgb(79.607843%,79.607843%,79.607843%);fill-opacity:1;" d="M 0 122.726562 C 0 122.597656 0.105469 122.492188 0.234375 122.492188 L 199.765625 122.492188 C 199.894531 122.492188 200 122.597656 200 122.726562 C 200 122.859375 199.894531 122.964844 199.765625 122.964844 L 0.234375 122.964844 C 0.105469 122.964844 0 122.859375 0 122.726562 Z M 0 122.726562 "/>
</g>
</svg>
